<svg xmlns="http://www.w3.org/2000/svg" xmlns:xlink="http://www.w3.org/1999/xlink" width="26.667" height="20" viewBox="0 0 26.667 20">
  <defs>
    <clipPath id="clip-path">
      <rect id="Rectangle_1999" data-name="Rectangle 1999" width="26.667" height="20" fill="none"/>
    </clipPath>
  </defs>
  <g id="Mask_Group_22" data-name="Mask Group 22" clip-path="url(#clip-path)">
    <path id="bed" d="M27.159,22.163h-.43v-1.72a2.151,2.151,0,0,0-2.151-2.151h-.43V12.7A3.011,3.011,0,0,0,21.138,9.69H9.094A3.011,3.011,0,0,0,6.084,12.7v5.591h-.43A2.151,2.151,0,0,0,3.5,20.443v1.72h-.43a.43.43,0,0,0-.43.43v4.731a.43.43,0,0,0,.43.43H6.226a.43.43,0,0,0,.409-.292l.31-.976a1.29,1.29,0,0,1,1.222-.86H22.049a1.29,1.29,0,0,1,1.222.86l.327.976a.43.43,0,0,0,.43.292h3.131a.43.43,0,0,0,.43-.43V22.593A.43.43,0,0,0,27.159,22.163ZM6.944,12.7A2.151,2.151,0,0,1,9.094,10.55H21.138A2.151,2.151,0,0,1,23.288,12.7v5.591H21.92A4.024,4.024,0,0,0,22,17a1.29,1.29,0,0,0-1.29-1.29H17.7A1.29,1.29,0,0,0,16.406,17a3.47,3.47,0,0,0,.077,1.29H13.748A4.024,4.024,0,0,0,13.826,17a1.29,1.29,0,0,0-1.29-1.29H9.525A1.29,1.29,0,0,0,8.234,17a4.024,4.024,0,0,0,.077,1.29H6.944Zm10.323,5.161V17a.43.43,0,0,1,.43-.43h3.011a.43.43,0,0,1,.43.43v.86a.43.43,0,0,1-.43.43H17.7A.43.43,0,0,1,17.267,17.862Zm-8.172,0V17a.43.43,0,0,1,.43-.43h3.011a.43.43,0,0,1,.43.43v.86a.43.43,0,0,1-.43.43H9.525A.43.43,0,0,1,9.094,17.862ZM4.363,20.443a1.29,1.29,0,0,1,1.29-1.29H24.578a1.29,1.29,0,0,1,1.29,1.29v1.72H4.363Zm22.366,6.452H24.316l-.228-.68a2.151,2.151,0,0,0-2.039-1.471H8.183a2.151,2.151,0,0,0-2.039,1.471l-.228.68H3.5V23.024H26.729Z" transform="translate(-1.933 -8.785)" fill="#fff"/>
  </g>
</svg>
