<svg xmlns="http://www.w3.org/2000/svg" xmlns:xlink="http://www.w3.org/1999/xlink" width="23.222" height="22" viewBox="0 0 23.222 22">
  <defs>
    <clipPath id="clip-path">
      <rect id="Rectangle_2000" data-name="Rectangle 2000" width="23.222" height="22" fill="#b1b1b1" stroke="#fff" stroke-width="1"/>
    </clipPath>
  </defs>
  <g id="Mask_Group_23" data-name="Mask Group 23" clip-path="url(#clip-path)">
    <g id="bathtub" transform="translate(1.107 0.976)">
      <path id="Path_1357" data-name="Path 1357" d="M23.235,14.129H3.186V7.507A1.638,1.638,0,0,1,4.821,5.872h.94V7.437a.364.364,0,0,0,.364.364h5a.364.364,0,0,0,.364-.364V5.508a.364.364,0,0,0-.364-.364H4.82A2.366,2.366,0,0,0,2.458,7.507v9.834a5.677,5.677,0,0,0,2.827,4.9v2.231a.364.364,0,0,0,.364.364H8.343a.364.364,0,0,0,.364-.364V23.02h8.642v1.456a.364.364,0,0,0,.364.364h2.694a.364.364,0,0,0,.364-.364V22.245a5.677,5.677,0,0,0,2.828-4.9V14.493A.364.364,0,0,0,23.235,14.129ZM8.889,5.872h1.875v1.2H6.488v-1.2ZM22.871,16.347H3.186V14.855H22.871ZM6.014,24.112V22.6a5.644,5.644,0,0,0,1.966.407v1.1Zm14.029,0H18.077v-1.1a5.648,5.648,0,0,0,1.966-.407Zm-2.122-1.82H8.137a4.956,4.956,0,0,1-4.951-4.95v-.266H22.871v.265A4.956,4.956,0,0,1,17.92,22.292Z" transform="translate(-2.458 -5.144)" fill="#fff"/>
    </g>
  </g>
</svg>
