<svg xmlns="http://www.w3.org/2000/svg" width="48" height="38" viewBox="0 0 48 38" fill="none">
    <path d="M46.758 36.2765H39.858V35.0765L40.303 35.5365C40.4017 35.6343 40.535 35.6892 40.674 35.6892C40.813 35.6892 40.9463 35.6343 41.045 35.5365C41.1459 35.4303 41.2022 35.2895 41.2022 35.143C41.2022 34.9965 41.1459 34.8556 41.045 34.7495L40.585 34.2745H40.667C40.7379 34.2742 40.808 34.2596 40.8731 34.2316C40.9382 34.2036 40.997 34.1627 41.046 34.1115C41.1469 34.0053 41.2032 33.8645 41.2032 33.718C41.2032 33.5715 41.1469 33.4306 41.046 33.3245L40.586 32.8495H40.668C40.7389 32.8492 40.809 32.8346 40.8741 32.8066C40.9392 32.7786 40.998 32.7377 41.047 32.6865C41.1479 32.5803 41.2042 32.4395 41.2042 32.293C41.2042 32.1465 41.1479 32.0056 41.047 31.8995L40.587 31.4245H40.669C40.7399 31.4242 40.81 31.4096 40.8751 31.3816C40.9402 31.3536 40.999 31.3127 41.048 31.2615C41.1489 31.1553 41.2052 31.0145 41.2052 30.868C41.2052 30.7215 41.1489 30.5806 41.048 30.4745L40.588 29.9995H40.67C40.7409 29.9992 40.811 29.9846 40.8761 29.9566C40.9412 29.9286 41 29.8877 41.049 29.8365C41.1499 29.7303 41.2062 29.5895 41.2062 29.443C41.2062 29.2965 41.1499 29.1556 41.049 29.0495L39.683 27.6395C39.5843 27.5417 39.451 27.4868 39.312 27.4868C39.173 27.4868 39.0397 27.5417 38.941 27.6395L37.575 29.0495C37.4741 29.1556 37.4178 29.2965 37.4178 29.443C37.4178 29.5895 37.4741 29.7303 37.575 29.8365C37.634 29.8965 37.7066 29.9414 37.7868 29.9672C37.8669 29.9929 37.9521 29.9989 38.035 29.9845L37.575 30.4595C37.4741 30.5656 37.4178 30.7065 37.4178 30.853C37.4178 30.9995 37.4741 31.1403 37.575 31.2465C37.634 31.3065 37.7066 31.3514 37.7868 31.3772C37.8669 31.4029 37.9521 31.4089 38.035 31.3945L37.575 31.8695C37.4741 31.9756 37.4178 32.1165 37.4178 32.263C37.4178 32.4095 37.4741 32.5503 37.575 32.6565C37.634 32.7165 37.7066 32.7614 37.7868 32.7872C37.8669 32.8129 37.9521 32.8189 38.035 32.8045L37.575 33.2795C37.4741 33.3856 37.4178 33.5265 37.4178 33.673C37.4178 33.8195 37.4741 33.9603 37.575 34.0665C37.634 34.1265 37.7066 34.1714 37.7868 34.1972C37.8669 34.2229 37.9521 34.2289 38.035 34.2145L37.575 34.6895C37.4741 34.7956 37.4178 34.9365 37.4178 35.083C37.4178 35.2295 37.4741 35.3703 37.575 35.4765C37.6737 35.5743 37.807 35.6292 37.946 35.6292C38.085 35.6292 38.2183 35.5743 38.317 35.4765L38.762 35.0165V36.2785H34.549V14.7525H36.709C36.9058 14.7525 37.0945 14.6743 37.2337 14.5352C37.3728 14.396 37.451 14.2073 37.451 14.0105V11.0415C37.451 10.8447 37.3728 10.656 37.2337 10.5168C37.0945 10.3777 36.9058 10.2995 36.709 10.2995H34.549V1.38848C34.549 1.19169 34.4708 1.00296 34.3317 0.863811C34.1925 0.724659 34.0038 0.646484 33.807 0.646484H26.533C26.4383 0.647343 26.3447 0.667415 26.258 0.705484C26.1691 0.743839 26.0886 0.799212 26.021 0.868484L24.811 2.13048H15.831C15.6342 2.13048 15.4455 2.20866 15.3063 2.34781C15.1672 2.48696 15.089 2.67569 15.089 2.87248V12.1355L13.144 14.1465C13.0089 14.2885 12.9343 14.4775 12.936 14.6735V22.9115H10.8C10.7026 22.9115 10.6061 22.9307 10.516 22.968C10.426 23.0053 10.3442 23.0599 10.2753 23.1288C10.2064 23.1977 10.1518 23.2795 10.1145 23.3695C10.0772 23.4596 10.058 23.556 10.058 23.6535V26.6225C10.058 26.8193 10.1362 27.008 10.2753 27.1472C10.4145 27.2863 10.6032 27.3645 10.8 27.3645H12.96V36.2705H7.125V33.4335L8.253 34.5985C8.3517 34.6963 8.48503 34.7512 8.624 34.7512C8.76296 34.7512 8.89631 34.6963 8.995 34.5985C9.09595 34.4923 9.15224 34.3515 9.15224 34.205C9.15224 34.0585 9.09595 33.9176 8.995 33.8115L7.125 31.8225V31.2805L8.253 32.4455C8.3517 32.5433 8.48503 32.5982 8.624 32.5982C8.76296 32.5982 8.89631 32.5433 8.995 32.4455C9.09595 32.3393 9.15224 32.1985 9.15224 32.052C9.15224 31.9055 9.09595 31.7646 8.995 31.6585L7.125 29.7435V29.2015L8.253 30.3385C8.3517 30.4363 8.48503 30.4912 8.624 30.4912C8.76296 30.4912 8.89631 30.4363 8.995 30.3385C9.09595 30.2323 9.15224 30.0915 9.15224 29.945C9.15224 29.7985 9.09595 29.6576 8.995 29.5515L7.125 27.6295V27.0885L8.253 28.2535C8.3517 28.3513 8.48503 28.4062 8.624 28.4062C8.76296 28.4062 8.89631 28.3513 8.995 28.2535C9.09595 28.1473 9.15224 28.0065 9.15224 27.86C9.15224 27.7135 9.09595 27.5726 8.995 27.4665L7.125 25.5145V24.9725L8.253 26.1375C8.3517 26.2353 8.48503 26.2902 8.624 26.2902C8.76296 26.2902 8.89631 26.2353 8.995 26.1375C9.09595 26.0313 9.15224 25.8905 9.15224 25.744C9.15224 25.5975 9.09595 25.4566 8.995 25.3505L6.969 23.2435C6.87031 23.1457 6.73696 23.0908 6.598 23.0908C6.45904 23.0908 6.3257 23.1457 6.227 23.2435L4.156 25.3515C4.05506 25.4576 3.99876 25.5985 3.99876 25.745C3.99876 25.8915 4.05506 26.0323 4.156 26.1385C4.25469 26.2363 4.38804 26.2912 4.527 26.2912C4.66596 26.2912 4.7993 26.2363 4.898 26.1385L6.026 24.9735V25.5155L4.156 27.4675C4.05506 27.5736 3.99876 27.7145 3.99876 27.861C3.99876 28.0075 4.05506 28.1483 4.156 28.2545C4.25469 28.3523 4.38804 28.4072 4.527 28.4072C4.66596 28.4072 4.7993 28.3523 4.898 28.2545L6.027 27.0885V27.6305L4.157 29.5975C4.06862 29.7009 4.02005 29.8325 4.02005 29.9685C4.02005 30.1045 4.06862 30.2361 4.157 30.3395C4.25569 30.4373 4.38904 30.4922 4.528 30.4922C4.66696 30.4922 4.80031 30.4373 4.899 30.3395L6.027 29.1745V29.7165L4.157 31.6985C4.05606 31.8046 3.99976 31.9455 3.99976 32.092C3.99976 32.2385 4.05606 32.3793 4.157 32.4855C4.25569 32.5833 4.38904 32.6382 4.528 32.6382C4.66696 32.6382 4.80031 32.5833 4.899 32.4855L6.027 31.3185V31.8185L4.157 33.8005C4.05606 33.9066 3.99976 34.0475 3.99976 34.194C3.99976 34.3405 4.05606 34.4813 4.157 34.5875C4.25569 34.6853 4.38904 34.7402 4.528 34.7402C4.66696 34.7402 4.80031 34.6853 4.899 34.5875L6.027 33.4225V36.2725H0.742C0.545209 36.2725 0.356479 36.3507 0.217327 36.4898C0.0781748 36.629 0 36.8177 0 37.0145C0 37.2113 0.0781748 37.4 0.217327 37.5392C0.356479 37.6783 0.545209 37.7565 0.742 37.7565H46.758C46.9548 37.7565 47.1435 37.6783 47.2827 37.5392C47.4218 37.4 47.5 37.2113 47.5 37.0145C47.5 36.8177 47.4218 36.629 47.2827 36.4898C47.1435 36.3507 46.9548 36.2725 46.758 36.2725V36.2765ZM35.981 13.2685H24.492V11.7885H35.981V13.2685ZM16.551 3.61948H23.372L16.551 10.6555V3.61948ZM11.519 24.4015H23.008V25.8885H11.519V24.4015ZM14.399 27.3705H23.75C23.9468 27.3705 24.1355 27.2923 24.2747 27.1532C24.4138 27.014 24.492 26.8253 24.492 26.6285V23.6585C24.492 23.4617 24.4138 23.273 24.2747 23.1338C24.1355 22.9947 23.9468 22.9165 23.75 22.9165H14.391V14.9755L16.328 12.9755L25.62 3.40448L26.845 2.13548H33.1V10.2995H23.75C23.5532 10.2995 23.3645 10.3777 23.2253 10.5168C23.0862 10.656 23.008 10.8447 23.008 11.0415V14.0105C23.008 14.2073 23.0862 14.396 23.2253 14.5352C23.3645 14.6743 23.5532 14.7525 23.75 14.7525H33.109V25.8885H28.07C27.8732 25.8885 27.6845 25.9667 27.5453 26.1058C27.4062 26.245 27.328 26.4337 27.328 26.6305V36.2785H14.391L14.399 27.3705ZM28.79 36.2765V27.3695H33.11V36.2755L28.79 36.2765Z" fill="#B1B1B1"/>
</svg>