<?xml version="1.0" encoding="utf-8"?>
<svg xmlns="http://www.w3.org/2000/svg" viewBox="0 0 64 64" fill="#000000"><path d="M 19 0.0585938 C 18.449219 0.0585938 18 0.503906 18 1.054688 L 18 10 L 9 10 C 7.347656 10 6 11.347656 6 13 C 6 14.132813 6.640625 15.113281 7.570313 15.621094 L 2.394531 25.972656 C 1.429688 27.902344 1.808594 30.222656 3.332031 31.746094 L 3.613281 32.027344 C 4.308594 32.722656 5.128906 33.222656 6 33.5625 L 6 56 L 3 56 C 2.449219 56 2 56.445313 2 57 C 2 57.554688 2.449219 58 3 58 L 61 58 C 61.550781 58 62 57.554688 62 57 C 62 56.445313 61.550781 56 61 56 L 58 56 L 58 33.5625 C 58.871094 33.222656 59.691406 32.722656 60.386719 32.027344 L 60.667969 31.746094 C 62.191406 30.222656 62.570313 27.902344 61.605469 25.972656 L 56.429688 15.621094 C 57.359375 15.109375 58 14.132813 58 13 C 58 11.347656 56.652344 10 55 10 L 24 10 L 24 6.054688 C 24 5.503906 23.550781 5.054688 23 5.054688 C 22.449219 5.054688 22 5.503906 22 6.054688 L 22 10 L 20 10 L 20 1.054688 C 20 0.503906 19.550781 0.0585938 19 0.0585938 Z M 9 12 L 55 12 C 55.550781 12 56 12.449219 56 13 C 56 13.550781 55.550781 14 55 14 L 9 14 C 8.449219 14 8 13.550781 8 13 C 8 12.449219 8.449219 12 9 12 Z M 9.617188 16 L 16.988281 16 L 15.023438 24.839844 C 14.902344 25.378906 15.246094 25.914063 15.78125 26.03125 C 15.855469 26.050781 15.929688 26.058594 16 26.058594 C 16.460938 26.058594 16.875 25.738281 16.976563 25.273438 L 18.976563 16.273438 C 18.996094 16.179688 18.988281 16.089844 18.980469 16 L 45.015625 16 C 45.011719 16.089844 45.003906 16.179688 45.023438 16.273438 L 47.023438 25.273438 C 47.128906 25.738281 47.539063 26.058594 48 26.058594 C 48.070313 26.058594 48.144531 26.046875 48.21875 26.03125 C 48.753906 25.914063 49.09375 25.378906 48.972656 24.839844 L 47.011719 16 L 54.382813 16 L 59.816406 26.867188 C 60.394531 28.023438 60.167969 29.417969 59.253906 30.332031 L 58.972656 30.613281 C 57.226563 32.363281 54.414063 32.5625 52.4375 31.078125 L 49.800781 29.097656 C 48.738281 28.304688 47.257813 28.304688 46.199219 29.097656 L 43 31.5 C 41.234375 32.824219 38.765625 32.824219 37 31.5 L 33.800781 29.101563 C 33.554688 28.914063 33.28125 28.777344 33 28.675781 L 33 20.058594 C 33 19.503906 32.550781 19.058594 32 19.058594 C 31.449219 19.058594 31 19.503906 31 20.058594 L 31 28.675781 C 30.71875 28.777344 30.445313 28.914063 30.199219 29.101563 L 27 31.5 C 25.234375 32.824219 22.765625 32.824219 21 31.5 L 17.800781 29.101563 C 16.738281 28.304688 15.257813 28.304688 14.199219 29.101563 L 11.5625 31.078125 C 9.585938 32.558594 6.773438 32.359375 5.023438 30.613281 L 4.742188 30.332031 C 3.828125 29.417969 3.605469 28.027344 4.183594 26.871094 Z M 16 30.5 C 16.210938 30.5 16.421875 30.566406 16.597656 30.699219 L 19.800781 33.097656 C 22.273438 34.953125 25.726563 34.953125 28.199219 33.097656 L 31.402344 30.699219 C 31.753906 30.433594 32.246094 30.433594 32.597656 30.699219 L 35.800781 33.097656 C 37.039063 34.027344 38.519531 34.488281 40 34.488281 C 41.480469 34.488281 42.964844 34.027344 44.199219 33.097656 L 47.402344 30.699219 C 47.753906 30.433594 48.246094 30.433594 48.597656 30.699219 L 51.234375 32.675781 C 52.640625 33.730469 54.34375 34.171875 56 34.039063 L 56 45.972656 L 53 45.972656 C 52.449219 45.972656 52 46.421875 52 46.972656 C 52 47.527344 52.449219 47.972656 53 47.972656 L 56 47.972656 L 56 56 L 28 56 L 28 48 L 31.167969 48 C 31.71875 48 32.167969 47.554688 32.167969 47 C 32.167969 46.445313 31.71875 46 31.167969 46 L 28 46 L 28 38 C 28 36.898438 27.101563 36 26 36 L 16 36 C 14.898438 36 14 36.898438 14 38 L 14 46 L 8 46 L 8 34.035156 C 9.65625 34.171875 11.359375 33.730469 12.765625 32.675781 L 15.402344 30.699219 C 15.578125 30.566406 15.789063 30.5 16 30.5 Z M 36 36 C 34.898438 36 34 36.898438 34 38 L 34 45.949219 C 34 47.050781 34.898438 47.949219 36 47.949219 L 48 47.949219 C 49.101563 47.949219 50 47.050781 50 45.949219 L 50 38 C 50 36.898438 49.101563 36 48 36 Z M 16 38 L 26 38 L 26 55.949219 L 16 55.949219 Z M 36 38 L 48 38 L 48 45.949219 L 36 45.949219 Z M 23 45 C 22.449219 45 22 45.445313 22 46 L 22 48 C 22 48.554688 22.449219 49 23 49 C 23.550781 49 24 48.554688 24 48 L 24 46 C 24 45.445313 23.550781 45 23 45 Z M 8 48 L 14 48 L 14 56 L 8 56 Z M 11 50 C 10.449219 50 10 50.445313 10 51 L 10 53 C 10 53.554688 10.449219 54 11 54 C 11.550781 54 12 53.554688 12 53 L 12 51 C 12 50.445313 11.550781 50 11 50 Z M 32 50 C 31.449219 50 31 50.445313 31 51 L 31 53 C 31 53.554688 31.449219 54 32 54 C 32.550781 54 33 53.554688 33 53 L 33 51 C 33 50.445313 32.550781 50 32 50 Z M 37 50 C 36.449219 50 36 50.445313 36 51 L 36 53 C 36 53.554688 36.449219 54 37 54 C 37.550781 54 38 53.554688 38 53 L 38 51 C 38 50.445313 37.550781 50 37 50 Z M 42 50 C 41.449219 50 41 50.445313 41 51 L 41 53 C 41 53.554688 41.449219 54 42 54 C 42.550781 54 43 53.554688 43 53 L 43 51 C 43 50.445313 42.550781 50 42 50 Z M 47 50 C 46.449219 50 46 50.445313 46 51 L 46 53 C 46 53.554688 46.449219 54 47 54 C 47.550781 54 48 53.554688 48 53 L 48 51 C 48 50.445313 47.550781 50 47 50 Z M 52 50 C 51.449219 50 51 50.445313 51 51 L 51 53 C 51 53.554688 51.449219 54 52 54 C 52.550781 54 53 53.554688 53 53 L 53 51 C 53 50.445313 52.550781 50 52 50 Z" fill="#FFFFFF"/></svg>
