<svg width="24" height="24" viewBox="0 0 24 24" fill="none" xmlns="http://www.w3.org/2000/svg">
<path d="M13.0581 13.2268H5.72965C5.5245 13.2268 5.35876 13.3925 5.35876 13.5977V17.6496C5.35876 17.8547 5.5245 18.0205 5.72965 18.0205H13.0581C13.2633 18.0205 13.429 17.8547 13.429 17.6496V13.5977C13.429 13.3925 13.2633 13.2268 13.0581 13.2268ZM12.6872 17.2787H6.10054V13.9686H12.6872V17.2787Z" fill="white"/>
<path d="M18.231 13.2268H14.9081C14.703 13.2268 14.5372 13.3925 14.5372 13.5977V19.0892C14.5372 19.2944 14.703 19.4601 14.9081 19.4601H18.231C18.4361 19.4601 18.6019 19.2944 18.6019 19.0892V13.5977C18.6019 13.3925 18.4361 13.2268 18.231 13.2268ZM17.8601 18.7183H15.279V13.9686H17.8601V18.7183Z" fill="white"/>
<path d="M22.5333 7.52544L20.3845 5.32328L20.3833 3.07011C20.3833 2.86496 20.2176 2.69922 20.0124 2.69922H3.98762C3.78247 2.69922 3.61673 2.86496 3.61673 3.07011V5.30123L1.35083 7.60537C1.34967 7.60653 1.34851 7.60769 1.34736 7.61001C1.34504 7.61233 1.34272 7.6158 1.33924 7.61812C1.33692 7.62044 1.33577 7.62276 1.33345 7.62392C1.33113 7.62624 1.32881 7.62855 1.32765 7.63087C1.32533 7.63319 1.32417 7.63551 1.32186 7.63898C1.3207 7.6413 1.31838 7.64362 1.31722 7.64594C1.3149 7.64826 1.31258 7.65173 1.31143 7.65405C1.31027 7.65637 1.30911 7.65869 1.30679 7.65985C1.30447 7.66332 1.30331 7.66564 1.30099 7.66912C1.29984 7.67144 1.29868 7.6726 1.29752 7.67491C1.2952 7.67839 1.29404 7.68071 1.29172 7.68419C1.29056 7.68651 1.2894 7.68882 1.28825 7.69114C1.28709 7.69462 1.28477 7.69694 1.28361 7.70041C1.28245 7.70273 1.28129 7.70505 1.28013 7.70737C1.27897 7.71084 1.27781 7.71316 1.27665 7.71664C1.2755 7.71896 1.27434 7.72243 1.27318 7.72475C1.27202 7.72707 1.27086 7.73055 1.2697 7.73287C1.26854 7.73634 1.26738 7.73866 1.26622 7.74214C1.26506 7.74446 1.26506 7.74677 1.26391 7.74909C1.26275 7.75257 1.26159 7.75605 1.26043 7.75952C1.25927 7.76184 1.25927 7.76416 1.25811 7.76648C1.25695 7.76996 1.25579 7.77343 1.25579 7.77691C1.25579 7.77923 1.25463 7.78155 1.25463 7.78386C1.25347 7.78734 1.25347 7.79082 1.25231 7.79429C1.25231 7.79661 1.25116 7.79893 1.25116 7.80125C1.25 7.80473 1.25 7.8082 1.25 7.81168C1.25 7.814 1.24884 7.81748 1.24884 7.81979C1.24884 7.82327 1.24768 7.82675 1.24768 7.82907C1.24768 7.83254 1.24768 7.83486 1.24652 7.83834V7.84761V7.85804C1.2442 7.86152 1.2442 7.86268 1.2442 7.865V9.94776C1.2442 11.181 2.16098 12.2044 3.34901 12.3713V20.9296C3.34901 21.1348 3.51475 21.3005 3.7199 21.3005H20.3254C20.5305 21.3005 20.6963 21.1348 20.6963 20.9296V12.3645C21.8622 12.179 22.7558 11.166 22.7558 9.94791V7.86514C22.7558 7.71331 22.6643 7.58222 22.5333 7.52544ZM17.8601 9.94782C17.8601 10.889 17.0951 11.6539 16.154 11.6539C15.2129 11.6539 14.4479 10.889 14.4479 9.94782V8.23594H17.8601V9.94782ZM4.22057 5.7452H6.65105L5.58939 7.49416H2.50062L4.22057 5.7452ZM16.4807 5.7452C16.4842 5.75215 16.4888 5.75911 16.4934 5.76722L17.5829 7.49417H14.3853L14.0179 5.7452L16.4807 5.7452ZM13.2608 5.7452L13.6282 7.49416H10.3712L10.7386 5.7452H13.2608ZM9.6133 7.49416H6.45718L7.50843 5.76143C7.51191 5.75563 7.51422 5.751 7.5177 5.7452H9.98064L9.6133 7.49416ZM6.1397 8.23594H9.55188V9.94782C9.55188 10.889 8.78693 11.6539 7.84579 11.6539C6.90465 11.6539 6.1397 10.889 6.1397 9.94782V8.23594ZM10.2937 8.23594H13.7058V9.94782C13.7058 10.889 12.9409 11.6539 11.9998 11.6539C11.0586 11.6539 10.2937 10.889 10.2937 9.94782V8.23594ZM18.4601 7.49416L17.3566 5.7452H19.7582L21.4654 7.49416H18.4601ZM19.6411 3.44109V5.00345H4.35809V3.44109H19.6411ZM1.98559 9.94797V8.23609H5.39777V9.94797C5.39777 10.8891 4.63282 11.6541 3.69168 11.6541C2.75054 11.6541 1.98559 10.8891 1.98559 9.94797ZM4.0904 20.559V12.3635C4.79741 12.2476 5.40359 11.8269 5.76866 11.2427C6.20213 11.9347 6.97058 12.396 7.84564 12.396C8.7207 12.396 9.48916 11.9347 9.92262 11.2427C10.3561 11.9347 11.1245 12.396 11.9996 12.396C12.8747 12.396 13.6431 11.9347 14.0766 11.2427C14.51 11.9347 15.2785 12.396 16.1536 12.396C17.0286 12.396 17.7971 11.9347 18.2305 11.2427C18.6037 11.8396 19.2273 12.265 19.954 12.3705V20.5591L4.0904 20.559ZM22.0136 9.94797C22.0136 10.8891 21.2486 11.6541 20.3075 11.6541C19.3663 11.6541 18.6014 10.8891 18.6014 9.94797V8.23609H22.0136V9.94797Z" fill="white"/>
</svg>
