<svg id="Layer_1" data-name="Layer 1" xmlns="http://www.w3.org/2000/svg" viewBox="0 0 216.98 233.42"><defs><style>.cls-1{fill:#ffffff;}.cls-2{fill:#ffffff;}.cls-3{fill:#ffffff;}</style></defs><path class="cls-1" d="M216.9,216.28a7.17,7.17,0,0,0-3-5.4,8.35,8.35,0,0,0-5.55-1.6c-1,0-2.38.46-3-.2s-.26-2.08-.26-3.15c0-34.72,0-69.44-.09-104.15,0-2.91.31-5.25,3.14-6.63a4.22,4.22,0,0,0,.87-.72A23,23,0,0,0,216.94,77a6.38,6.38,0,0,0-1.39-4c-7.16-9.44-14.24-18.93-21.39-28.38a6,6,0,0,1-1.2-4c.12-10.81.16-21.61,0-32.41C192.86,4,190.3,1.11,186.1.33a31.25,31.25,0,0,0-5.88-.3L53.58,0Q47,0,40.39.13a8.56,8.56,0,0,0-4.32,1.15C33.16,3,32.19,5.71,32.2,8.94c0,10.43,0,20.85,0,31.28a7.72,7.72,0,0,1-1.67,5C28,48.59,25.4,52,22.84,55.4q-6.75,9-13.48,18a5.2,5.2,0,0,0-1.23,3.23c.12,8.18,3.44,14.74,10.13,19.46a3.66,3.66,0,0,1,1.8,3.38Q20,133.69,20,167.93q0,6.34,0,12.69c0,.69-.11,1.15-.89,1.41-6.72,2.26-10.17,7.14-11,14-.11.85-.41,1.09-1.18,1.23-4.2.77-6.65,3.38-6.76,7.63-.21,8.21-.26,16.42,0,24.62.09,2.64,1.28,3.72,4,3.83,1.63.06,3.27.06,4.9.06H130.45l75.12,0a22.66,22.66,0,0,0,5.14-.29c2.88-.68,6.12-2.78,6.2-7C217,222.8,217,219.55,216.9,216.28ZM207.75,82.77a16,16,0,0,1-25.57,5.51,23.89,23.89,0,0,1-4.79-7.43,3.2,3.2,0,0,1,1.59-.23q13.7,0,27.38,0C208.66,80.64,208.66,80.69,207.75,82.77ZM187.7,49.42q6.53,8.76,13.1,17.48c1.11,1.48,2.24,2.93,3.35,4.4.22.28.63.54.43,1s-.66.3-1,.3H190.12v0c-4.35,0-8.71,0-13.06,0a1.48,1.48,0,0,1-1.67-1.06c-2.71-6.81-5.26-13.67-7.74-20.56-.09-.24-.15-.48-.24-.71-.71-1.88-.71-1.89,1.37-1.89,5.61,0,11.22,0,16.83,0A2.33,2.33,0,0,1,187.7,49.42ZM137.24,72.55c-.91,0-1.23-.3-1.32-1.19-.76-7.28-1.48-14.57-2.69-21.79-.13-.8.06-1.16.93-1.15q11.42,0,22.85,0a1.41,1.41,0,0,1,1.55,1.1c2.18,6.59,4.73,13.06,7.22,19.54,1.38,3.57,1.44,3.52-2.3,3.5-4.06,0-8.12,0-12.18,0v0C146.62,72.53,141.93,72.51,137.24,72.55Zm1.48,8.07c4.77,0,9.54,0,14.31,0,4.52,0,9,0,13.56,0,1.84,0,1.86.09,1.09,1.82-2.32,5.27-6.16,8.81-11.89,9.75C147.07,93.63,141,89.46,137.54,82,137,80.89,137.25,80.63,138.72,80.62ZM40.29,10.09c0-1.74,0-1.78,1.79-1.78q28.52,0,57-.06,42.14,0,84.28,0c1.27,0,1.55.3,1.54,1.58-.06,9.59,0,19.18,0,28.76,0,1.71,0,1.72-1.64,1.72H112.56v0q-35.36,0-70.71,0c-1.24,0-1.61-.25-1.6-1.56C40.31,29.27,40.28,19.68,40.29,10.09Zm72.28,62.5c-4.73,0-9.45,0-14.18,0-1,0-1.4-.21-1.26-1.34C98,64,99.24,56.78,99.69,49.46c0-.62.31-.91.91-1s1-.08,1.5-.08h22c.65,0,1.18-.05,1.26.91.52,6.76,1.59,13.46,2.41,20.19.38,3.09.34,3.07-2.74,3-4.14,0-8.28,0-12.43,0ZM97.91,80.68c2,0,3.92-.09,5.89-.11,3,0,5.94,0,8.91,0v0c4.68,0,9.37,0,14.05,0,.94,0,1.52.17,1,1.27-1.77,4-4.21,7.3-8.32,9.16-6.58,3-16.19,1.77-21-6.73-.45-.8-.84-1.63-1.27-2.45S97,80.69,97.91,80.68ZM87.7,72.57c-4.64,0-9.29,0-13.93,0h0c-4.69,0-9.38,0-14.07,0-1.5,0-1.64-.24-1.12-1.6q3.48-9.15,7-18.3c.39-1,.71-2.06,1-3.09a1.46,1.46,0,0,1,1.59-1.11q11.35,0,22.72,0c1.14,0,.94.68.87,1.33-.55,4.4-1.11,8.8-1.65,13.2-.34,2.78-.71,5.57-1,8.36C89.08,72.31,88.7,72.58,87.7,72.57Zm-.22,9.51c-1.37,2.75-2.84,5.41-5.38,7.3C75,94.69,61.91,94,57.09,81.79c-.4-1-.08-1.23.88-1.22,4.81,0,9.63,0,14.44,0v0c4.73,0,9.46,0,14.19,0C88.1,80.62,88.15,80.73,87.48,82.08ZM21.3,70.75c2.25-2.7,4.25-5.59,6.37-8.4,3-4,6.08-8,9-12a4,4,0,0,1,3.69-2c5.52.13,11.05,0,16.57,0,1.54,0,1.54,0,1,1.45-2.5,6.66-5,13.33-7.47,20-1,2.71-1,2.7-3.92,2.7H34.91v0c-4.27,0-8.53,0-12.8,0-.48,0-1.15.25-1.39-.22S20.93,71.19,21.3,70.75ZM17,82c-.5-1.14-.32-1.38,1.11-1.38,4.73,0,9.45,0,14.18,0v0c4.64,0,9.28,0,13.92,0,1.69,0,1.71.08,1,1.57-2.4,5.11-5.95,9-11.74,10C27,93.63,20.44,89.84,17,82Zm-.88,113.44c1.44-3.81,4.28-6.44,8.42-6.35A8.26,8.26,0,0,1,32.05,196c.13.82-.07,1.15-.94,1.13-2.3,0-4.61,0-6.91,0h0c-2.26,0-4.52,0-6.78,0C16.09,197.1,15.63,196.6,16.08,195.42Zm79.07,29.66c-14.28.22-28.56,0-42.83,0q-21,0-42.09,0c-2.54,0-2.1.21-2.11-2.17,0-5.44,0-10.89,0-16.33,0-1.57,0-1.56,1.54-1.42.5.05,1,0,1.5,0l83.79,0c1.6,0,1.59,0,1.58,1.62,0,5.61,0,11.22,0,16.83C96.55,224.78,96.25,225.06,95.15,225.08ZM40.3,196a6.49,6.49,0,0,1,2-4.23,7.29,7.29,0,0,1,7.67-2.51,7.71,7.71,0,0,1,6.06,6c.37,1.63.18,1.81-1.47,1.8-2.14,0-4.27,0-6.4,0v.06c-2.22,0-4.44,0-6.65,0C40.58,197.21,40.3,196.9,40.3,196Zm26.17,1c-1.32,0-1.56-.44-.89-1.51,3.76-6,9.79-7.79,15.45-5.49a12.25,12.25,0,0,1,6.17,5.83c.54,1,.35,1.26-.77,1.27H76.51v-.08C73.16,197.09,69.81,197.12,66.47,197.07Zm31.72.32a4,4,0,0,1-3-2.67,21.84,21.84,0,0,0-6.6-9.61c-7.47-5.89-19.53-5.18-26.14,1.65-.87.9-1.28.75-2-.06a16.15,16.15,0,0,0-23-1.46,1.64,1.64,0,0,1-2.55,0A16.49,16.49,0,0,0,29.14,182c-.91-.26-1-.9-1-1.65q0-7.22,0-14.44,0-31.85,0-63.7c0-2-.32-1.86,1.79-1.71A24,24,0,0,0,46.39,96a42.36,42.36,0,0,0,5.17-4.94c.71-.72,1-.81,1.76.11,6.17,7.69,14.2,10.57,23.87,8.87,6.56-1.16,11.41-4.94,15.27-10.22a22.3,22.3,0,0,0,13.41,9.76c9.23,2.34,17.41.42,24.19-6.53.73-.75,1.53-1.43,2.27-2.17.54-.54.88-.53,1.37.12,7.1,9.58,18.88,11.5,28.33,7.71a25.91,25.91,0,0,0,9.62-7.09c1.57-1.76,1.31-1.38,2.5,0,5.39,6.3,12.13,9.44,20.5,8.79,2.38-.18,2.39-.18,2.39,2.19q0,52.71.05,105.4c0,.93-.21,1.24-1.17,1.23q-7-.07-13.95,0c-.94,0-1.17-.26-1.17-1.2q.06-45,.07-89.95a23.06,23.06,0,0,0-.15-2.63,7.31,7.31,0,0,0-7.21-6.59c-13.52-.28-27-.13-40.57-.12-4.55,0-8.31,3-8.32,8.28q0,13.82-.05,27.64,0,31.65.07,63.31c0,1-.34,1.26-1.28,1.26q-8.92,0-17.84,0c-.81,0-1-.27-1-1s0-1.76,0-2.64C104.43,201.3,102.37,198.52,98.19,197.39Zm34.59-79.53c0-1,.32-1.16,1.22-1.16q19,0,37.93,0c1.09,0,1,.56,1,1.23V163h0q0,22.48,0,45c0,1-.23,1.33-1.3,1.33q-18.7,0-37.42,0c-1.09,0-1.4-.25-1.4-1.38Q132.83,162.88,132.78,117.86Zm74.9,107.28c-8.67,0-17.33,0-26,0H156.8v-.07h-50c-2.23,0-2.22,0-2.22-2.28,0-1.5,0-3,0-4.52-.06-.91.24-1.11,1.1-1.11,6.53,0,13.07,0,19.6,0q41.27,0,82.54,0c1,0,1.31.25,1.26,1.25-.07,1.8-.08,3.6,0,5.4C209.09,224.89,208.7,225.14,207.68,225.14Z"/><path class="cls-2" d="M127.16,20.29c15.24,0,30.48,0,45.72,0a3.47,3.47,0,0,1,3.63,2.21,4.2,4.2,0,0,1-.53,4.39A2.56,2.56,0,0,1,173.89,28c-1.26.05-2.51.15-3.77.15q-44,0-87.92,0a19.1,19.1,0,0,1-2.51-.13,3.49,3.49,0,0,1-3.34-3.81,3.73,3.73,0,0,1,3.34-3.88,20.94,20.94,0,0,1,2.75-.12h44.72Z"/><path class="cls-2" d="M58,28.13c-2,0-4,.08-6,0a3.78,3.78,0,0,1-3.75-3.91A4,4,0,0,1,52,20.31c4.15-.14,8.29-.17,12.44,0a4.05,4.05,0,0,1,4,4,4,4,0,0,1-3.82,3.76,6.34,6.34,0,0,1-.75.07H58Z"/><path class="cls-3" d="M165,162.73c-.06.91-.07,1.71-.17,2.49a3.87,3.87,0,0,1-4,3.7,3.78,3.78,0,0,1-4-3.42,15.62,15.62,0,0,1,0-5.37,3.83,3.83,0,0,1,3.76-3.21,4.11,4.11,0,0,1,4.16,3.3A22.91,22.91,0,0,1,165,162.73Z"/><path class="cls-1" d="M108.19,126.65q-1-3.78-1.93-7.54c-.59-2.36-1.12-4.73-1.79-7.06-.79-2.74-1.19-3-4-3.16-7.83-.32-15.66-.06-22.81-.16-7.67,0-14.66,0-21.65,0-1.5,0-3,.05-4.51.18a3.49,3.49,0,0,0-3.1,2.57c-.23.67-.35,1.37-.52,2.06q-1.74,7-3.46,14a5.7,5.7,0,0,0,.55,3.78,1.44,1.44,0,0,0,1.14.86c2,.36,2,.38,2.06,2.5,0,.71,0,1.42,0,2.14q0,11.86.05,23.73a7.47,7.47,0,0,0,.7,3.53A8.19,8.19,0,0,0,56.87,169c13,0,26,.1,38.93,0,4.86,0,8.87-3,8.78-8.84-.12-7.57,0-15.15,0-22.73,0-1.34,0-2.68.08-4a1,1,0,0,1,1-1.12c1.91-.21,2.19-.54,2.65-2.41A6.62,6.62,0,0,0,108.19,126.65ZM94.53,161c-6.08,0-12.15,0-18.22,0v0H58c-1.71,0-1.73,0-1.74-1.64q0-12.49,0-25c0-1.34.45-1.82,1.72-1.65a28.29,28.29,0,0,0,4,.13q14.82,0,29.65,0c1.17,0,2.34-.09,3.51-.19.92-.08,1.31.35,1.37,1.2,0,.21,0,.42,0,.63q0,12.32,0,24.62C96.49,161,96.47,161,94.53,161Zm3.37-36.23H76.44v-.08H55.59c-1.83,0-2.71-.07-1.63-2.34a13.09,13.09,0,0,0,.94-4.53c.06-.74.33-1,1.07-1,1,0,2-.05,3-.05l36.78,0c1.87,0,1.85,0,2.2,1.8.31,1.6.67,3.19,1,4.78C99.28,124.52,99.13,124.73,97.9,124.73Z"/></svg>