<svg xmlns="http://www.w3.org/2000/svg" width="32.274" height="23.835" viewBox="0 0 32.274 23.835">
  <path id="calendar" d="M34.262,11.254H31.695V10.52a2.567,2.567,0,1,0-5.134,0v.733H23.627V10.52a2.567,2.567,0,1,0-5.134,0v.733H15.56V10.52a2.567,2.567,0,1,0-5.134,0v.733H7.859c-.015,0-.026,0-.04,0a.655.655,0,0,0-.084.007.384.384,0,0,0-.062.015L7.6,11.3c-.022.007-.04.018-.062.026a.593.593,0,0,0-.066.037c-.018.011-.037.026-.055.037a.67.67,0,0,0-.059.048l-.048.048c-.015.018-.033.037-.048.055a.514.514,0,0,0-.037.059c-.011.018-.022.04-.033.062a.611.611,0,0,0-.029.073c0,.015-.011.026-.015.04l-4.4,15.768a.737.737,0,0,0,.711.935H7.126v2.567a.736.736,0,0,0,.733.733h26.4a.736.736,0,0,0,.733-.733V11.987A.736.736,0,0,0,34.262,11.254Zm-6.234-.733a1.1,1.1,0,1,1,2.2,0v.733h-2.2Zm-8.067,0a1.1,1.1,0,0,1,2.2,0v.733h-2.2Zm-8.067,0a1.1,1.1,0,1,1,2.2,0v.733h-2.2Zm-7.47,16.5,2.7-9.677v9.677Zm29.1,3.3H8.593V12.72h5.5v1.467a.733.733,0,1,0,1.467,0V12.72h6.6v1.467a.733.733,0,1,0,1.467,0V12.72h6.6v1.467a.733.733,0,0,0,1.467,0V12.72h1.833ZM17.379,18.811a.7.7,0,0,1,0,.286.666.666,0,0,1-.04.139.832.832,0,0,1-.07.125.791.791,0,0,1-.2.2.542.542,0,0,1-.128.07.578.578,0,0,1-.136.04.7.7,0,0,1-.286,0,.608.608,0,0,1-.139-.04.6.6,0,0,1-.125-.07.791.791,0,0,1-.2-.2.831.831,0,0,1-.07-.125.666.666,0,0,1-.04-.139.7.7,0,0,1,0-.286.578.578,0,0,1,.04-.136.716.716,0,0,1,.07-.128.791.791,0,0,1,.2-.2.832.832,0,0,1,.125-.07,1,1,0,0,1,.139-.04.734.734,0,0,1,.66.2.522.522,0,0,1,.092.11.717.717,0,0,1,.07.128A.578.578,0,0,1,17.379,18.811Zm4.4,0a.632.632,0,0,1,.015.143.721.721,0,0,1-.216.517.522.522,0,0,1-.11.092.717.717,0,0,1-.128.07.578.578,0,0,1-.136.04.632.632,0,0,1-.143.015.739.739,0,0,1-.733-.733.631.631,0,0,1,.015-.143.666.666,0,0,1,.04-.139.832.832,0,0,1,.07-.125.791.791,0,0,1,.2-.2.831.831,0,0,1,.125-.07,1,1,0,0,1,.139-.04.751.751,0,0,1,.286,0,.829.829,0,0,1,.136.04.716.716,0,0,1,.128.07.791.791,0,0,1,.2.2.832.832,0,0,1,.07.125A.666.666,0,0,1,21.779,18.811Zm4.2-.374a.733.733,0,1,1-1.034,0A.751.751,0,0,1,25.978,18.437Zm4.6.374a.7.7,0,0,1,0,.286.578.578,0,0,1-.04.136.717.717,0,0,1-.07.128.791.791,0,0,1-.2.2.832.832,0,0,1-.125.07.666.666,0,0,1-.139.04.632.632,0,0,1-.143.015.721.721,0,0,1-.517-.216.522.522,0,0,1-.092-.11.717.717,0,0,1-.07-.128.578.578,0,0,1-.04-.136.632.632,0,0,1-.015-.143.721.721,0,0,1,.216-.517.522.522,0,0,1,.11-.092.832.832,0,0,1,.125-.07.608.608,0,0,1,.139-.04.75.75,0,0,1,.286,0,.666.666,0,0,1,.139.04.831.831,0,0,1,.125.07.791.791,0,0,1,.2.2.717.717,0,0,1,.07.128A.578.578,0,0,1,30.58,18.811Zm-17.6,3.667a.632.632,0,0,1,.015.143.732.732,0,0,1-.733.733.731.731,0,0,1-.517-1.25.522.522,0,0,1,.11-.092.542.542,0,0,1,.128-.07.579.579,0,0,1,.136-.04.751.751,0,0,1,.286,0,.608.608,0,0,1,.139.04.6.6,0,0,1,.125.07.656.656,0,0,1,.114.092.644.644,0,0,1,.088.11.6.6,0,0,1,.07.125A.608.608,0,0,1,12.978,22.478Zm4.2-.374a.731.731,0,1,1-1.25.517.631.631,0,0,1,.015-.143.871.871,0,0,1,.04-.139.832.832,0,0,1,.07-.125.791.791,0,0,1,.2-.2.6.6,0,0,1,.125-.07.666.666,0,0,1,.139-.04.751.751,0,0,1,.286,0,.666.666,0,0,1,.139.04.6.6,0,0,1,.125.07A.522.522,0,0,1,17.177,22.1Zm4.4,0a.731.731,0,1,1-1.25.517.631.631,0,0,1,.015-.143.608.608,0,0,1,.04-.139.6.6,0,0,1,.07-.125.791.791,0,0,1,.2-.2.6.6,0,0,1,.125-.07.608.608,0,0,1,.139-.04A.731.731,0,0,1,21.578,22.1Zm4.4,0a.721.721,0,0,1,.216.517.805.805,0,0,1-.055.282.6.6,0,0,1-.07.125.791.791,0,0,1-.2.2.709.709,0,0,1-.125.07.608.608,0,0,1-.139.04.632.632,0,0,1-.143.015.745.745,0,0,1-.282-.055.849.849,0,0,1-.33-.271.811.811,0,0,1-.066-.125.805.805,0,0,1-.055-.282.632.632,0,0,1,.015-.143.607.607,0,0,1,.04-.139.6.6,0,0,1,.07-.125.522.522,0,0,1,.092-.11.722.722,0,0,1,.66-.2.579.579,0,0,1,.136.04.717.717,0,0,1,.128.07A.523.523,0,0,1,25.978,22.1Zm4.4,0a.721.721,0,0,1,.216.517.632.632,0,0,1-.015.143.608.608,0,0,1-.04.139.6.6,0,0,1-.07.125.791.791,0,0,1-.2.2.6.6,0,0,1-.125.07.608.608,0,0,1-.139.04.632.632,0,0,1-.143.015.745.745,0,0,1-.282-.055.689.689,0,0,1-.235-.161.522.522,0,0,1-.092-.11.6.6,0,0,1-.07-.125.608.608,0,0,1-.04-.139.7.7,0,0,1,0-.286.608.608,0,0,1,.04-.139.832.832,0,0,1,.07-.125.522.522,0,0,1,.092-.11.731.731,0,0,1,.66-.2.666.666,0,0,1,.139.04.832.832,0,0,1,.125.07A.522.522,0,0,1,30.378,22.1Zm-17.6,3.667a.735.735,0,0,1,0,1.034.719.719,0,0,1-.521.216.731.731,0,0,1-.517-1.25A.756.756,0,0,1,12.78,25.771Zm4.4,0a.727.727,0,1,1-.374-.2.665.665,0,0,1,.139.04.832.832,0,0,1,.125.07A.522.522,0,0,1,17.177,25.771Zm4.4,0a.721.721,0,0,1,.216.517.745.745,0,0,1-.055.282.689.689,0,0,1-.161.235.522.522,0,0,1-.11.092.71.71,0,0,1-.125.07.608.608,0,0,1-.139.04.631.631,0,0,1-.143.015.745.745,0,0,1-.282-.055.689.689,0,0,1-.235-.161.726.726,0,0,1,0-1.034.522.522,0,0,1,.11-.092.832.832,0,0,1,.125-.07.608.608,0,0,1,.139-.04A.731.731,0,0,1,21.578,25.771Z" transform="translate(-2.721 -7.953)" fill="#b1b1b1"/>
</svg>
