<svg xmlns="http://www.w3.org/2000/svg" width="100" height="100" viewBox="0 0 100 100">
    <path id="real-11912" d="M50,0a50,50,0,1,0,50,50A50.016,50.016,0,0,0,50,0Zm0,2.083A47.917,47.917,0,1,1,2.083,50,47.9,47.9,0,0,1,50,2.083Zm.008,18.75a1.042,1.042,0,0,0-.761.321L35.38,35.628a11.535,11.535,0,0,1,1.79,1.139L50,23.385,71.513,45.833H69.946a.558.558,0,0,0-.3,0H41.667a11.3,11.3,0,0,1-.208,2.083H68.75V75H56.25V57.292a1.042,1.042,0,0,0-1.042-1.042H44.792a1.042,1.042,0,0,0-1.042,1.042V75H31.25V68.266l-1.042-1.042-1.042,1.042v7.776a1.042,1.042,0,0,0,1.042,1.042H69.792a1.042,1.042,0,0,0,1.042-1.042V47.917h3.125a1.042,1.042,0,0,0,.753-1.762L70.833,42.11q0-.012,0-.024V30.208a1.042,1.042,0,0,0-1.042-1.042H65.625a1.042,1.042,0,0,0-1.042,1.042v5.379L50.753,21.155a1.042,1.042,0,0,0-.745-.321ZM66.667,31.25H68.75v8.683l-2.108-2.2a1.041,1.041,0,0,0,.024-.236ZM30.208,36.458A9.368,9.368,0,0,0,25,53.617V69.486l5.208-5.208,5.208,5.208V53.617a9.368,9.368,0,0,0-5.208-17.159Zm0,2.083a7.292,7.292,0,1,1-7.292,7.292A7.276,7.276,0,0,1,30.208,38.542Zm0,2.075-2.063,2.922-3.414,1.054,2.14,2.865-.049,3.573,3.385-1.152,3.385,1.152-.049-3.573,2.14-2.865-3.414-1.054-1.208-1.713Zm0,3.613.769,1.09,1.27.391-.793,1.066.016,1.331-1.261-.427-1.261.427.02-1.331-.8-1.066,1.27-.391Zm-3.125,10.4a8.74,8.74,0,0,0,6.25,0v9.827l-3.125-3.125-3.125,3.125Zm18.75,3.7h8.333V75H45.833Z" fill="#b1b1b1" fill-rule="evenodd"/>
</svg>
