<svg xmlns="http://www.w3.org/2000/svg" width="138" height="173.432" viewBox="0 0 138 173.432">
  <g id="Group_5974" data-name="Group 5974" transform="translate(-891 -344.877)">
    <g id="house-svgrepo-com_2_" data-name="house-svgrepo-com (2)" transform="translate(890.999 380.309)">
      <g id="Group_5973" data-name="Group 5973" transform="translate(0.001 -0.001)">
        <g id="Group_5972" data-name="Group 5972" transform="translate(0 0)">
          <path id="Path_2092" data-name="Path 2092" d="M96.161,45.326,135.935,5.552l39.774,39.774a2.29,2.29,0,0,0,1.626.674h6.9a2.3,2.3,0,0,0,2.3-2.3V6.9a2.3,2.3,0,0,0-2.3-2.3h-11.5V2.3a2.3,2.3,0,0,0-2.3-2.3h-9.2a2.3,2.3,0,0,0-2.3,2.3V4.6h-6.9a2.3,2.3,0,1,0,0,4.6h9.2a2.3,2.3,0,0,0,2.3-2.3V4.6h4.6V6.9a2.3,2.3,0,0,0,2.3,2.3h11.5V41.4h-3.648L137.561.673a2.3,2.3,0,0,0-3.252,0L93.583,41.4H89.935V9.2h29.9a2.3,2.3,0,1,0,0-4.6h-32.2a2.3,2.3,0,0,0-2.3,2.3V43.7a2.3,2.3,0,0,0,2.3,2.3h6.9A2.293,2.293,0,0,0,96.161,45.326Z" transform="translate(-62.335 0.001)"/>
          <path id="Path_2093" data-name="Path 2093" d="M238.934,77.469v11.5a2.3,2.3,0,0,0,2.3,2.3h13.8a2.3,2.3,0,0,0,2.3-2.3v-11.5a9.2,9.2,0,1,0-18.4,0Zm13.8,9.2h-9.2v-4.6h9.2Zm0-9.2h-9.2a4.6,4.6,0,1,1,9.2,0Z" transform="translate(-174.534 -49.868)"/>
          <path id="Path_2094" data-name="Path 2094" d="M11.5,307.2C.132,307.2,0,336.8,0,337.1A11.52,11.52,0,0,0,9.2,348.37V360.1a2.3,2.3,0,1,0,4.6,0V348.37A11.52,11.52,0,0,0,23,337.1C23,336.8,22.87,307.2,11.5,307.2Zm0,36.8a6.908,6.908,0,0,1-6.9-6.9c0-11.459,3.078-25.3,6.9-25.3s6.9,13.842,6.9,25.3A6.908,6.908,0,0,1,11.5,344Z" transform="translate(-0.001 -224.401)"/>
          <path id="Path_2095" data-name="Path 2095" d="M255.035,244.869a2.3,2.3,0,0,0,2.3-2.3v-18.4a2.3,2.3,0,0,0-2.3-2.3h-13.8a2.3,2.3,0,0,0-2.3,2.3v18.4a2.3,2.3,0,0,0,2.3,2.3Zm-11.5-18.4h9.2v4.6h-9.2Zm0,9.2h9.2v4.6h-9.2Z" transform="translate(-174.535 -162.068)"/>
          <path id="Path_2096" data-name="Path 2096" d="M185.2,343.636a2.3,2.3,0,0,0-2.3-2.3H104.7a2.3,2.3,0,0,0-2.3,2.3v41.4a2.3,2.3,0,1,0,4.6,0v-39.1h75.9A2.3,2.3,0,0,0,185.2,343.636Z" transform="translate(-74.801 -249.335)"/>
          <path id="Path_2097" data-name="Path 2097" d="M280.335,377.769a2.3,2.3,0,0,0-2.3-2.3h-36.8a2.3,2.3,0,0,0-2.3,2.3v18.4a2.3,2.3,0,0,0,2.3,2.3h36.8a2.3,2.3,0,0,0,2.3-2.3Zm-23,16.1h-13.8v-13.8h13.8Zm18.4,0h-13.8v-13.8h13.8Z" transform="translate(-174.535 -274.268)"/>
          <path id="Path_2098" data-name="Path 2098" d="M205.9,261.336a6.764,6.764,0,0,0-1.182.1,9.151,9.151,0,0,0-10.318-4.4v-67a2.3,2.3,0,0,0-2.3-2.3H104.7a2.3,2.3,0,0,0-2.3,2.3v32.2a2.3,2.3,0,1,0,4.6,0v-29.9h82.8v67.542a8.865,8.865,0,0,0-1.118,1.562,6.763,6.763,0,0,0-1.182-.1,6.9,6.9,0,1,0,0,13.8h18.4a6.9,6.9,0,0,0,0-13.8Zm0,9.2H187.5a2.3,2.3,0,0,1,0-4.6,2.278,2.278,0,0,1,1.247.375,2.3,2.3,0,0,0,3.489-1.415,4.579,4.579,0,0,1,8.928,0,2.3,2.3,0,0,0,3.489,1.415,2.346,2.346,0,0,1,3.546,1.925A2.3,2.3,0,0,1,205.9,270.536Z" transform="translate(-74.801 -137.135)"/>
          <path id="Path_2099" data-name="Path 2099" d="M198.635,407.669h-34.5v-2.3a2.3,2.3,0,0,0-2.3-2.3h-2.3v-25.3a2.3,2.3,0,0,0-2.3-2.3h-13.8a2.3,2.3,0,0,0-2.3,2.3v25.3h-2.3a2.3,2.3,0,1,0,0,4.6h20.7v2.3a2.3,2.3,0,0,0,2.3,2.3h36.8a2.3,2.3,0,1,0,0-4.6Zm-43.7-18.4h-2.3a2.3,2.3,0,1,0,0,4.6h2.3v9.2h-9.2v-23h9.2Z" transform="translate(-99.736 -274.268)"/>
          <path id="Path_2100" data-name="Path 2100" d="M340.368,244.869a2.3,2.3,0,0,0,2.3-2.3v-18.4a2.3,2.3,0,0,0-2.3-2.3h-13.8a2.3,2.3,0,0,0-2.3,2.3v18.4a2.3,2.3,0,0,0,2.3,2.3Zm-11.5-18.4h9.2v4.6h-9.2Zm0,9.2h9.2v4.6h-9.2Z" transform="translate(-236.868 -162.068)"/>
          <path id="Path_2101" data-name="Path 2101" d="M169.7,244.869a2.3,2.3,0,0,0,2.3-2.3v-18.4a2.3,2.3,0,0,0-2.3-2.3H155.9a2.3,2.3,0,0,0-2.3,2.3v18.4a2.3,2.3,0,0,0,2.3,2.3Zm-11.5-18.4h9.2v4.6h-9.2Zm0,9.2h9.2v4.6h-9.2Z" transform="translate(-112.201 -162.068)"/>
        </g>
      </g>
    </g>
    <path id="heart-svgrepo-com" d="M15.165,6.692c-2.432-2.834-6.5-3.71-9.544-1.115a7.206,7.206,0,0,0-1.083,10c1.99,2.552,8.011,7.935,9.985,9.677a1.4,1.4,0,0,0,.46.331.616.616,0,0,0,.348,0,1.4,1.4,0,0,0,.46-.331c1.974-1.742,8-7.125,9.985-9.677a7.155,7.155,0,0,0-1.083-10C21.592,3.009,17.6,3.858,15.165,6.692Z" transform="translate(979.5 342.853)" fill="#b1201f" stroke="#000" stroke-linecap="round" stroke-linejoin="round" stroke-width="4" fill-rule="evenodd"/>
  </g>
</svg>
