<svg xmlns="http://www.w3.org/2000/svg" width="100" height="100" viewBox="0 0 100 100">
    <path id="paper-11904" d="M50,0a50,50,0,1,0,50,50A50.016,50.016,0,0,0,50,0Zm0,2.083A47.917,47.917,0,1,1,2.083,50,47.9,47.9,0,0,1,50,2.083ZM25.936,22.925a1.042,1.042,0,0,0-.134.024,5.209,5.209,0,0,0-4.968,5.184v3.125h8.333v4.167H31.25V28.133a5.159,5.159,0,0,0-1.07-3.125H65.625a3.1,3.1,0,0,1,3.125,3.125v9.4h2.083V28.2q0-.035,0-.069a5.22,5.22,0,0,0-5.208-5.208H26.042a1.041,1.041,0,0,0-.106,0Zm.106,2.083a3.1,3.1,0,0,1,3.125,3.125v1.042h-6.25V28.133A3.1,3.1,0,0,1,26.042,25.008Zm9.375,4.167v2.083H43.75V29.175Zm40.625,4.167a3.141,3.141,0,0,0-3.125,3.125A3.067,3.067,0,0,0,73.34,38L68.461,43.86a2.989,2.989,0,0,0-2.429.4l-5.64-3.4c.006-.075.024-.146.024-.224a3.125,3.125,0,0,0-6.25,0,3.092,3.092,0,0,0,.529,1.725l-4.561,5.8a3.078,3.078,0,0,0-1.176-.232,3.125,3.125,0,1,0,3.125,3.125,3.081,3.081,0,0,0-.4-1.493L56.368,43.6a3.027,3.027,0,0,0,.924.159,3.116,3.116,0,0,0,2.25-.977l5.212,3.141a3.058,3.058,0,0,0-.171.96,3.125,3.125,0,0,0,6.25,0,3.1,3.1,0,0,0-.631-1.86l4.708-5.656a3.063,3.063,0,0,0,1.131.224,3.125,3.125,0,0,0,0-6.25Zm0,2.083A1.042,1.042,0,1,1,75,36.466,1.026,1.026,0,0,1,76.042,35.425Zm-45.85,2.083a1.042,1.042,0,0,0-.72.305L19.055,48.23a1.042,1.042,0,0,0,.736,1.778h1.042V61.466a1.042,1.042,0,0,0,1.042,1.042H38.542a1.042,1.042,0,0,0,1.042-1.042V50.008h1.042a1.042,1.042,0,0,0,.736-1.778l-1.778-1.778V42.733a1.042,1.042,0,1,0-2.083,0v1.636l-6.555-6.555A1.042,1.042,0,0,0,30.192,37.508Zm27.1,2.083a1.042,1.042,0,1,1-1.042,1.042A1.026,1.026,0,0,1,57.292,39.591Zm-27.083.431,7.4,7.4a1.042,1.042,0,0,0,.48.48l.024.024h-15.8ZM75,41.675V58.341h2.083V41.675ZM56.25,45.841v12.5h2.083v-12.5Zm11.458,0a1.042,1.042,0,1,1-1.042,1.042A1.026,1.026,0,0,1,67.708,45.841ZM22.917,50.008H37.5V60.425H33.333V55.216a1.042,1.042,0,0,0-1.042-1.042H28.125a1.042,1.042,0,0,0-1.042,1.042v5.208H22.917Zm26.042,0a1.042,1.042,0,1,1-1.042,1.042A1.026,1.026,0,0,1,48.958,50.008Zm17.708,2.083v6.25H68.75v-6.25Zm-37.5,4.167H31.25v4.167H29.167Zm18.75,0v2.083H50V56.258Zm-2.083,4.167v2.083H79.167V60.425ZM29.167,64.583v7.292a5.22,5.22,0,0,0,5.208,5.208H73.958a5.22,5.22,0,0,0,5.208-5.208V68.75H70.833V64.583H68.75V68.75H37.5v3.125a3.125,3.125,0,0,1-6.25,0V64.583Zm10.417,6.258h37.5v1.042a3.1,3.1,0,0,1-3.125,3.125H38.509a5.146,5.146,0,0,0,1.074-3.125Z" fill="#b1b1b1" fill-rule="evenodd"/>
</svg>
