<svg xmlns="http://www.w3.org/2000/svg" xmlns:xlink="http://www.w3.org/1999/xlink" width="20.262" height="20.262" viewBox="0 0 20.262 20.262">
    <defs>
        <clipPath id="clip-path">
            <rect id="Прямоугольник_2206" data-name="Прямоугольник 2206" width="20.262" height="20.262" fill="none"/>
        </clipPath>
    </defs>
    <g id="Сгруппировать_4241" data-name="Сгруппировать 4241" clip-path="url(#clip-path)">
        <path id="Контур_1528" data-name="Контур 1528" d="M10.132,0a10.132,10.132,0,1,0,10.13,10.132A10.143,10.143,0,0,0,10.132,0m5.595,17.319a6.026,6.026,0,0,0-5.6-4.2,6.016,6.016,0,0,0-5.589,4.2,9.12,9.12,0,1,1,11.191,0" transform="translate(0 -0.001)" fill="#fff"/>
        <path id="Контур_1529" data-name="Контур 1529" d="M9.81,2.754a4,4,0,0,0-2.529,7.585A3.985,3.985,0,0,0,12.338,7.81a3.927,3.927,0,0,0-.2-3.021A4.007,4.007,0,0,0,9.81,2.754" transform="translate(1.578 0.885)" fill="#fff"/>
    </g>
</svg>
