<svg xmlns="http://www.w3.org/2000/svg" width="100" height="100" viewBox="0 0 100 100">
    <g transform="translate(-850 -2331)">
        <path id="paper-11904" d="M50,0a50,50,0,1,0,50,50A50.016,50.016,0,0,0,50,0Zm0,2.083A47.917,47.917,0,1,1,2.083,50,47.9,47.9,0,0,1,50,2.083Z" transform="translate(850 2331)" fill="#b1b1b1" fill-rule="evenodd"/>
        <g transform="translate(716.505 2338.354)">
            <path d="M19.451,0H.437a.438.438,0,0,0,0,.875H19.451Z" transform="translate(181.955 50.094) rotate(180)" fill="#b1b1b1" stroke="#b1b1b1" stroke-width="0.5" fill-rule="evenodd"/>
            <path  d="M.437.012A.438.438,0,0,0,0,.45V13.837a.438.438,0,0,0,.438.438H18.26a.438.438,0,0,0,.438-.438V.438A.438.438,0,0,0,18.26,0ZM.875.887,17.823.876V13.4H.875Z" transform="translate(209.281 35.444) rotate(180)" fill="#b1b1b1" stroke="#b1b1b1" stroke-width="0.5" fill-rule="evenodd"/>
            <path  d="M.438,0A.438.438,0,0,0,0,.438V4.753a.438.438,0,0,0,.438.438h33a.438.438,0,0,0,.438-.438V.438A.438.438,0,0,0,33.442,0ZM.875.876H33v3.44H.875Z" transform="translate(193.702 22.045) rotate(180)" fill="#b1b1b1" stroke="#b1b1b1" stroke-width="0.5" fill-rule="evenodd"/>
            <path  d="M.438,0A.438.438,0,0,0,0,.438V4.753a.438.438,0,0,0,.438.438H18.625a.438.438,0,0,0,.438-.438V.438A.438.438,0,0,0,18.625,0ZM.875.876H18.187v3.44H.875Z" transform="translate(211.887 22.045) rotate(180)" fill="#b1b1b1" stroke="#b1b1b1" stroke-width="0.5" fill-rule="evenodd"/>
            <path d="M.875,3.674V.437A.438.438,0,0,0,0,.437V3.674a.438.438,0,1,0,.875,0Z" transform="translate(184.3 51.174) rotate(180)" fill="#b1b1b1" stroke="#b1b1b1" stroke-width="0.5" fill-rule="evenodd"/>
            <path  d="M.875,2.117V.438A.438.438,0,0,0,0,.438v1.68a.438.438,0,1,0,.875,0Z" transform="translate(203.887 49.616) rotate(180)" fill="#b1b1b1" stroke="#b1b1b1" stroke-width="0.5" fill-rule="evenodd"/>
            <path  d="M.875,3.674V.437A.438.438,0,0,0,0,.437V3.674a.438.438,0,1,0,.875,0Z" transform="translate(195.628 51.174) rotate(180)" fill="#b1b1b1" stroke="#b1b1b1" stroke-width="0.5" fill-rule="evenodd"/>
            <path  d="M.875,2.117V.438A.438.438,0,0,0,0,.438v1.68a.438.438,0,1,0,.875,0Z" transform="translate(215.215 49.616) rotate(180)" fill="#b1b1b1" stroke="#b1b1b1" stroke-width="0.5" fill-rule="evenodd"/>
            <path  d="M18.659,30.653a.438.438,0,0,0,.438-.438V.438A.438.438,0,0,0,18.659,0H.438A.438.438,0,0,0,0,.438V30.216a.438.438,0,0,0,.438.438Zm-.438-.875H.875V.875H18.222Z" transform="translate(200.174 68.434) rotate(180)" fill="#b1b1b1" stroke="#b1b1b1" stroke-width="0.5" fill-rule="evenodd"/>
            <path  d="M18.659,30.653a.438.438,0,0,0,.438-.438V.438A.438.438,0,0,0,18.659,0H.438A.438.438,0,0,0,0,.438V30.216a.438.438,0,0,0,.438.438Zm-.438-.875H.875V.875H18.222Z" transform="translate(218.396 68.434) rotate(180)" fill="#b1b1b1" stroke="#b1b1b1" stroke-width="0.5" fill-rule="evenodd"/>
            <path  d="M32.919,19.215a.438.438,0,0,0,.438-.438V.438A.438.438,0,0,0,32.919,0H.438A.438.438,0,0,0,0,.438v18.34a.438.438,0,0,0,.438.438Zm-.437-.875H.875V.875H32.482Z" transform="translate(181.951 68.435) rotate(180)" fill="#b1b1b1" stroke="#b1b1b1" stroke-width="0.5" fill-rule="evenodd"/>
            <path  d="M26.329,4.651a.438.438,0,0,0,.438-.438V.438A.438.438,0,0,0,26.329,0H.438A.438.438,0,0,0,0,.438V4.213a.438.438,0,0,0,.438.438Zm-.437-.875H.876V.875H25.892Z" transform="translate(177.737 57.105) rotate(180)" fill="#b1b1b1" stroke="#b1b1b1" stroke-width="0.5" fill-rule="evenodd"/>
            <path  d="M13.383,15.979a.438.438,0,0,0,.438-.438V.438A.438.438,0,0,0,13.383,0H.438A.438.438,0,0,0,0,.438v15.1a.438.438,0,0,0,.438.438Zm-.438-.875H.875V.875h12.07Z" transform="translate(178.602 39.307) rotate(180)" fill="#b1b1b1" stroke="#b1b1b1" stroke-width="0.5" fill-rule="evenodd"/>
            <path d="M6.91,8.966a.438.438,0,0,0,.438-.438V.438A.438.438,0,0,0,6.91,0H.438A.438.438,0,0,0,0,.438V8.528a.438.438,0,0,0,.438.438Zm-.438-.875H.875V.875h5.6Z" transform="translate(188.31 32.294) rotate(180)" fill="#b1b1b1" stroke="#b1b1b1" stroke-width="0.5" fill-rule="evenodd"/>
            <path  d="M26.329,7.887a.438.438,0,0,0,.438-.438V.438A.438.438,0,0,0,26.329,0H.438A.438.438,0,0,0,0,.438V7.449a.438.438,0,0,0,.438.438Zm-.437-.875H.876V.875H25.892Z" transform="translate(177.737 66.275) rotate(180)" fill="#b1b1b1" stroke="#b1b1b1" stroke-width="0.5" fill-rule="evenodd"/>
            <path  d="M11.765,15.978a.438.438,0,0,0,.438-.438V.438A.438.438,0,0,0,11.765,0H.438A.438.438,0,0,0,0,.438v15.1a.438.438,0,0,0,.438.438Zm-.437-.875H.875V.875H11.327Z" transform="translate(195.631 68.433) rotate(180)" fill="#b1b1b1" stroke="#b1b1b1" stroke-width="0.5" fill-rule="evenodd"/>
            <path  d="M11.765,8.716a.438.438,0,0,0,.438-.438V.438A.438.438,0,0,0,11.765,0H.438A.438.438,0,0,0,0,.438v7.84a.438.438,0,0,0,.438.438Zm-.437-.875H.875V.875H11.327Z" transform="translate(215.218 58.578) rotate(180)" fill="#b1b1b1" stroke="#b1b1b1" stroke-width="0.5" fill-rule="evenodd"/>
            <path id="Контур_1506" data-name="Контур 1506" d="M11.765,6.269a.438.438,0,0,0,.438-.438V.438A.438.438,0,0,0,11.765,0H.438A.438.438,0,0,0,0,.438V5.831a.438.438,0,0,0,.438.438Zm-.437-.875H.875V.875H11.327Z" transform="translate(195.631 53.33) rotate(180)" fill="#b1b1b1" stroke="#b1b1b1" stroke-width="0.5" fill-rule="evenodd"/>
            <path id="Контур_1507" data-name="Контур 1507" d="M11.765,3.675a.438.438,0,0,0,.438-.438V.438A.438.438,0,0,0,11.765,0H.438A.438.438,0,0,0,0,.438v2.8a.438.438,0,0,0,.438.438ZM11.327,2.8H.875V.875H11.327Z" transform="translate(215.218 50.737) rotate(180)" fill="#b1b1b1" stroke="#b1b1b1" stroke-width="0.5" fill-rule="evenodd"/>
            <path id="Контур_1508" data-name="Контур 1508" d="M11.765,5.73a.438.438,0,0,0,.438-.438V.438A.438.438,0,0,0,11.765,0H.438A.438.438,0,0,0,0,.438V5.292a.438.438,0,0,0,.438.438Zm-.437-.875H.875V.875H11.327Z" transform="translate(195.631 45.779) rotate(180)" fill="#b1b1b1" stroke="#b1b1b1" stroke-width="0.5" fill-rule="evenodd"/>
            <path id="Контур_1510" data-name="Контур 1510" d="M49.538,167.383a.441.441,0,0,0-.362,0l-5.933,2.7a.438.438,0,0,0,.181.836H55.29a.438.438,0,0,0,.182-.836Zm-.182.879,3.913,1.779H45.444Z" transform="translate(123.951 -125.678)" fill="#b1b1b1" stroke="#b1b1b1" stroke-width="0.5" fill-rule="evenodd"/>
            <path id="Контур_1511" data-name="Контур 1511" d="M49.538,167.383a.441.441,0,0,0-.362,0l-5.933,2.7a.438.438,0,0,0,.181.836H55.29a.438.438,0,0,0,.182-.836Zm-.182.879,3.913,1.779H45.444Z" transform="translate(109.926 -125.678)" fill="#b1b1b1" stroke="#b1b1b1" stroke-width="0.5" fill-rule="evenodd"/>
            <path id="Контур_1512" data-name="Контур 1512" d="M18.921,304.337v4.855a.437.437,0,0,0,.875,0v-4.855a.437.437,0,1,0-.875,0Z" transform="translate(139.924 -259.535)" fill="#b1b1b1" stroke="#b1b1b1" stroke-width="0.5" fill-rule="evenodd"/>
            <path id="Контур_1513" data-name="Контур 1513" d="M18.921,684.628v10.914a.437.437,0,0,0,.875,0V684.628a.437.437,0,1,0-.875,0Z" transform="translate(135.663 -645.883)" fill="#b1b1b1" stroke="#b1b1b1" stroke-width="0.5" fill-rule="evenodd"/>
            <path id="Контур_1514" data-name="Контур 1514" d="M18.921,304.337v4.855a.437.437,0,0,0,.875,0v-4.855a.437.437,0,1,0-.875,0Z" transform="translate(153.948 -259.535)" fill="#b1b1b1" stroke="#b1b1b1" stroke-width="0.5" fill-rule="evenodd"/>
            <path id="Контур_1516" data-name="Контур 1516" d="M.919,108.655l0,0a4.4,4.4,0,0,0-.536,2.118A4.068,4.068,0,0,0,4.3,114.969a4.068,4.068,0,0,0,3.923-4.194,4.351,4.351,0,0,0-.541-2.118h0a3.237,3.237,0,0,1-.391-1.94h0a3.446,3.446,0,0,0,.021-.376A3.118,3.118,0,0,0,4.3,103.128a3.118,3.118,0,0,0-3.011,3.212c0,.121.006.24.014.358,0,.006,0,.013,0,.019A3.237,3.237,0,0,1,.919,108.655Zm.766.424a4.115,4.115,0,0,0,.494-2.455c-.006-.09-.011-.187-.011-.285A2.243,2.243,0,0,1,4.3,104a2.243,2.243,0,0,1,2.136,2.336,2.554,2.554,0,0,1-.015.28,4.115,4.115,0,0,0,.5,2.463,3.48,3.48,0,0,1,.43,1.692A3.193,3.193,0,0,1,4.3,114.094a3.193,3.193,0,0,1-3.048-3.319,3.521,3.521,0,0,1,.429-1.7Z" transform="translate(150.704 -73.036)" fill="#b1b1b1" stroke="#b1b1b1" stroke-width="0.5" fill-rule="evenodd"/>
            <path id="Контур_1517" data-name="Контур 1517" d="M86.378,109.125H68.523v0c-.115,0-.231,0-.346,0a17.111,17.111,0,0,0-9.406,3.3.437.437,0,0,0,.245.8H95.459a.438.438,0,0,0,.26-.79,15.241,15.241,0,0,0-9.321-3.308Zm-.03.874,0,0h.059a13.8,13.8,0,0,1,7.642,2.347H60.524A15.385,15.385,0,0,1,68.186,110h.337l0,0Zm0,0c-.027,0-.436-.052-.436-.437C85.911,109.461,86.321,109.966,86.347,110Z" transform="translate(122.5 -74.566)" fill="#b1b1b1" stroke="#b1b1b1" stroke-width="0.5" fill-rule="evenodd"/>
            <path id="Контур_1518" data-name="Контур 1518" d="M44.71,42.025a16.113,16.113,0,0,1,8.733-3.018c.11,0,.22,0,.33,0a.438.438,0,0,0,.445-.438V25.182a.438.438,0,0,0-.438-.438H25.258a.438.438,0,0,0-.438.438v21.96a.436.436,0,0,0,.257.4l.875.4h-.694a.438.438,0,0,0-.438.438V53.23a.438.438,0,0,0,.438.438H44.272a.437.437,0,0,0,.438-.438Zm8.632-3.893a17.169,17.169,0,0,0-9.315,3.3l-.192.362v11H25.7v-3.98h2.276a.437.437,0,0,0,.181-.836L25.7,46.86V25.619H53.342Z" transform="translate(137.244 -3.574)" fill="#b1b1b1" stroke="#b1b1b1" stroke-width="0.5" fill-rule="evenodd"/>
            <path id="Контур_1519" data-name="Контур 1519" d="M18.727.8,18.482,0H.26L0,.79C6.165,5.342,12.412,5.08,18.727.8ZM.282,0h0ZM.3,0h0ZM.348.009.327,0l.02,0Zm.021,0H.364l.015,0Zm.09.034A.427.427,0,0,0,.381.017.447.447,0,0,1,.459.048Zm.01,0-.007,0L.474.056ZM.487.063l-.008,0L.49.065ZM.5.075.5.069l.01.007.006,0ZM.522.087h0ZM1.671.875c5.046,3.2,10.15,3.033,15.3,0Z" transform="translate(199.996 38.655) rotate(180)" fill="#b1b1b1" stroke="#b1b1b1" stroke-width="0.5" fill-rule="evenodd"/>
        </g>
    </g>
</svg>
