<svg xmlns="http://www.w3.org/2000/svg" width="19" height="20" viewBox="0 0 19 20" fill="none">
    <path d="M13.195 0.533203C11.8243 0.537414 10.5008 1.0343 9.46598 1.9332L2.12098 8.3742C1.45601 8.94114 0.922008 9.64562 0.555823 10.439C0.189638 11.2324 0 12.0959 0 12.9697C0 13.8435 0.189638 14.707 0.555823 15.5004C0.922008 16.2938 1.45601 16.9983 2.12098 17.5652C3.5478 18.7917 5.36698 19.4661 7.24848 19.4661C9.12998 19.4661 10.9492 18.7917 12.376 17.5652L15.676 14.6042L13.856 12.9692L10.79 15.6462L10.552 15.9542C9.63291 16.7452 8.46056 17.1802 7.24798 17.1802C6.03539 17.1802 4.86305 16.7452 3.94398 15.9542C3.5268 15.5895 3.19246 15.1397 2.96339 14.6351C2.73431 14.1306 2.6158 13.5828 2.6158 13.0287C2.6158 12.4746 2.73431 11.9268 2.96339 11.4223C3.19246 10.9177 3.5268 10.4679 3.94398 10.1032L11.292 3.5892C11.8251 3.1417 12.4989 2.8964 13.195 2.8964C13.891 2.8964 14.5648 3.1417 15.098 3.5892C15.3347 3.79827 15.5243 4.05529 15.6542 4.34321C15.784 4.63112 15.8512 4.94336 15.8512 5.2592C15.8512 5.57505 15.784 5.88728 15.6542 6.1752C15.5243 6.46311 15.3347 6.72013 15.098 6.9292L8.49098 12.7802C8.34909 12.8938 8.17274 12.9557 7.99098 12.9557C7.80921 12.9557 7.63287 12.8938 7.49098 12.7802C7.42853 12.7231 7.37866 12.6535 7.34454 12.5761C7.31042 12.4986 7.2928 12.4149 7.2928 12.3302C7.2928 12.2456 7.31042 12.1618 7.34454 12.0844C7.37866 12.0069 7.42853 11.9374 7.49098 11.8802L7.64998 11.8092L10.055 9.5822L8.22598 7.9472L5.66598 10.2452C5.36751 10.5018 5.12798 10.8198 4.96378 11.1775C4.79957 11.5352 4.71456 11.9241 4.71456 12.3177C4.71456 12.7113 4.79957 13.1002 4.96378 13.4579C5.12798 13.8156 5.36751 14.1336 5.66598 14.3902C6.30823 14.946 7.12915 15.2518 7.97848 15.2518C8.82781 15.2518 9.64873 14.946 10.291 14.3902L16.899 8.6102C17.3833 8.2014 17.7726 7.6918 18.0396 7.11699C18.3066 6.54218 18.445 5.91601 18.445 5.2822C18.445 4.6484 18.3066 4.02223 18.0396 3.44742C17.7726 2.87261 17.3833 2.36301 16.899 1.9542C15.871 1.0417 14.5405 0.543805 13.166 0.557203L13.195 0.533203Z" fill="white"/>
</svg>