<svg xmlns="http://www.w3.org/2000/svg" width="14" height="25" viewBox="0 0 14 25" fill="none">
    <path d="M8.689 0.678711H4.911C0.184 0.678711 0 0.866711 0 5.71071V19.6467C0 24.4907 0.184 24.6787 4.911 24.6787H8.689C13.417 24.6787 13.6 24.4907 13.6 19.6467V5.71071C13.6 0.866711 13.416 0.678711 8.689 0.678711ZM12.845 19.6467C12.845 21.7897 12.845 22.9707 12.389 23.4377C11.933 23.9047 10.781 23.9047 8.689 23.9047H4.911C2.819 23.9047 1.667 23.9047 1.211 23.4377C0.755 22.9707 0.755 21.7897 0.755 19.6467V5.71071C0.755 3.56771 0.755 2.38671 1.211 1.91971C1.667 1.45271 2.819 1.45271 4.911 1.45271H8.689C10.781 1.45271 11.933 1.45271 12.389 1.91971C12.845 2.38671 12.845 3.56771 12.845 5.71071V19.6467Z" fill="black"/>
    <path d="M9.44453 2.22656H4.15653C4.05389 2.22656 3.95546 2.26734 3.88288 2.33991C3.8103 2.41249 3.76953 2.51092 3.76953 2.61356C3.76953 2.7162 3.8103 2.81464 3.88288 2.88721C3.95546 2.95979 4.05389 3.00056 4.15653 3.00056H9.44553C9.54817 3.00056 9.6466 2.95979 9.71918 2.88721C9.79176 2.81464 9.83253 2.7162 9.83253 2.61356C9.83253 2.51092 9.79176 2.41249 9.71918 2.33991C9.6466 2.26734 9.54717 2.22656 9.44453 2.22656ZM6.80053 20.0336C6.49249 20.026 6.1892 20.1105 5.92943 20.2762C5.66966 20.4419 5.46521 20.6814 5.34224 20.9639C5.21927 21.2464 5.18335 21.5592 5.23908 21.8623C5.29482 22.1653 5.43966 22.4449 5.65511 22.6652C5.87055 22.8854 6.1468 23.0365 6.44854 23.0989C6.75027 23.1614 7.06378 23.1325 7.34898 23.0158C7.63417 22.8991 7.8781 22.7001 8.04956 22.4441C8.22102 22.188 8.31223 21.8867 8.31153 21.5786C8.31501 21.1736 8.15801 20.7838 7.87486 20.4943C7.59171 20.2047 7.20545 20.0391 6.80053 20.0336ZM6.80053 22.3556C6.64673 22.3591 6.49536 22.3168 6.36573 22.234C6.2361 22.1511 6.1341 22.0315 6.07274 21.8904C6.01139 21.7494 5.99347 21.5932 6.02127 21.4419C6.04908 21.2906 6.12134 21.151 6.22883 21.0409C6.33632 20.9309 6.47418 20.8554 6.62479 20.824C6.7754 20.7927 6.93194 20.8069 7.07442 20.8649C7.2169 20.9229 7.33886 21.0221 7.42473 21.1497C7.5106 21.2774 7.55649 21.4277 7.55653 21.5816C7.55867 21.7844 7.48028 21.9798 7.33855 22.1249C7.19683 22.27 7.00334 22.3529 6.80053 22.3556Z" fill="black"/>
</svg>