<svg width="38" height="30" viewBox="0 0 38 30" fill="none" xmlns="http://www.w3.org/2000/svg">
<path d="M29.8292 29.845C23.1792 29.845 19.8542 24.525 19.8542 19.585C19.8542 12.65 25.8392 5.33499 36.0042 0.774997L37.1442 2.105C30.6842 5.80999 28.3092 9.61 28.3092 13.885C28.3092 21.295 37.4292 21.77 37.4292 22.245C37.4292 25.285 34.8642 29.845 29.8292 29.845ZM10.0692 29.845C3.22922 29.845 -0.000781193 24.525 -0.000781193 19.585C-0.000781193 12.65 6.07922 5.33499 16.1492 0.774997L17.3842 2.105C10.8292 5.80999 8.54922 9.61 8.54922 13.885C8.54922 21.295 17.5742 21.77 17.5742 22.245C17.5742 25.285 15.1042 29.845 10.0692 29.845Z" fill="#29282D"/>
</svg>
