<svg xmlns="http://www.w3.org/2000/svg" width="31.083" height="31.083" viewBox="0 0 31.083 31.083">
  <g id="market-value" transform="translate(-5.573 -5.573)">
    <path id="Path_1444" data-name="Path 1444" d="M28.4,28.8c-2.126,0-3.856-1.191-3.856-2.655H23c0,1.869,2.015,3.415,4.627,3.674v1.1h1.542v-1.1c2.611-.259,4.627-1.806,4.627-3.674,0-1.763-1.693-2.972-5.175-3.694-2.744-.569-4.078-1.445-4.078-2.677,0-1.464,1.73-2.655,3.856-2.655s3.856,1.191,3.856,2.655H33.8c0-1.869-2.015-3.415-4.627-3.674V15H27.627v1.1C25.015,16.363,23,17.91,23,19.778c0,1.739,1.741,2.982,5.175,3.694,2.782.577,4.078,1.428,4.078,2.677C32.253,27.613,30.524,28.8,28.4,28.8Z" transform="translate(-7.467 -2.272)" fill="#b1b1b1"/>
    <path id="Path_1445" data-name="Path 1445" d="M22.542,7A15.559,15.559,0,0,0,7,22.542H8.351A14.2,14.2,0,1,1,10.9,30.65h2.855V29.3H9.027v4.73h1.351V32.206A15.539,15.539,0,1,0,22.542,7Z" transform="translate(-1.427 -1.427)" fill="#b1b1b1"/>
  </g>
</svg>
