<svg id="Group_5977" data-name="Group 5977" xmlns="http://www.w3.org/2000/svg" width="136.637" height="136.63" viewBox="0 0 136.637 136.63">
  <g id="Group_5976" data-name="Group 5976">
    <path id="Path_2108" data-name="Path 2108" d="M34.795,74.431l-.813-23.664L54.641,30.109,75.632,51.1V74.431H59.305V61.474H50.122V74.431Z" fill="#b1201f"/>
    <path id="Path_2102" data-name="Path 2102" d="M384.483,336.232a2.279,2.279,0,0,0,0,3.22l4.832,4.832a2.277,2.277,0,0,0,3.22-3.22l-4.83-4.832A2.282,2.282,0,0,0,384.483,336.232Z" transform="translate(-281.388 -246.018)"/>
    <path id="Path_2103" data-name="Path 2103" d="M421.561,126.128v21.83h-9.109V136.572a2.277,2.277,0,1,0-4.554,0v13.664a2.277,2.277,0,0,0,2.277,2.277h13.664a2.277,2.277,0,0,0,2.277-2.277V130.683l.667.667a2.277,2.277,0,1,0,3.22-3.22l-4.552-4.552,0,0L404.953,103.08a2.277,2.277,0,0,0-3.22,3.22Z" transform="translate(-294.034 -75.085)"/>
    <path id="Path_2104" data-name="Path 2104" d="M151.833,123.578l0,0L131.335,103.08a2.274,2.274,0,0,0-3.22,0l-20.493,20.493,0,0-4.552,4.552a2.277,2.277,0,0,0,3.22,3.22l.667-.667v19.553a2.277,2.277,0,0,0,2.277,2.277H125.17a2.277,2.277,0,0,0,2.277-2.277V138.849H132v11.386a2.277,2.277,0,0,0,2.277,2.277h15.941a2.277,2.277,0,0,0,2.277-2.277V130.683l.667.667a2.277,2.277,0,0,0,3.22-3.22Zm-3.89,24.381H136.557V136.572a2.277,2.277,0,0,0-2.277-2.277h-9.109a2.277,2.277,0,0,0-2.277,2.277v11.386H111.507v-21.83l18.218-18.218,18.218,18.218v21.83Z" transform="translate(-75.071 -75.085)"/>
    <path id="Path_2105" data-name="Path 2105" d="M79.679,34.147a45.546,45.546,0,1,0,45.546,45.546A45.6,45.6,0,0,0,79.679,34.147Zm0,86.537A40.991,40.991,0,1,1,120.67,79.693,41.038,41.038,0,0,1,79.679,120.684Z" transform="translate(-25.024 -25.038)"/>
    <path id="Path_2106" data-name="Path 2106" d="M363.345,377.547a2.277,2.277,0,0,0-1.61-.667h0a2.3,2.3,0,0,0-1.612.672L353.7,384.01a2.277,2.277,0,0,0,3.229,3.211l4.812-4.837,14.344,14.342a6.831,6.831,0,0,1-9.66,9.662L339.438,379.4a2.277,2.277,0,0,0-3.22,3.22L363.2,409.609a11.385,11.385,0,1,0,16.1-16.1Z" transform="translate(-246.004 -276.306)"/>
    <path id="Path_2107" data-name="Path 2107" d="M109.309,54.669a54.655,54.655,0,1,0-54.655,54.655A54.718,54.718,0,0,0,109.309,54.669Zm-54.655,50.1a50.1,50.1,0,1,1,50.1-50.1A50.156,50.156,0,0,1,54.655,104.769Z" transform="translate(0 -0.014)"/>
  </g>
</svg>
