<svg xmlns="http://www.w3.org/2000/svg" xmlns:xlink="http://www.w3.org/1999/xlink" width="22" height="21" viewBox="0 0 22 21">
    <defs>
        <clipPath id="clip-path">
            <rect id="Прямоугольник_1989" data-name="Прямоугольник 1989" width="22" height="21" transform="translate(-0.281)" fill="#fff"/>
        </clipPath>
    </defs>
    <g id="Группа_масок_21" data-name="Группа масок 21" transform="translate(0.281)" clip-path="url(#clip-path)">
        <path id="twitter" d="M23.879,7.08a9.033,9.033,0,0,1-2.511.681,4.394,4.394,0,0,0,1.926-2.415,8.735,8.735,0,0,1-2.777,1.064,4.362,4.362,0,0,0-7.448,3.979,12.385,12.385,0,0,1-8.99-4.564,4.426,4.426,0,0,0-.585,2.2A4.352,4.352,0,0,0,5.43,11.655a4.309,4.309,0,0,1-1.979-.543v.053a4.362,4.362,0,0,0,3.511,4.256,4.181,4.181,0,0,1-1.17.181,5.214,5.214,0,0,1-.819-.074,4.373,4.373,0,0,0,4.075,3.022,8.746,8.746,0,0,1-5.384,1.873A8.438,8.438,0,0,1,2.6,20.358a12.31,12.31,0,0,0,6.692,1.968A12.331,12.331,0,0,0,21.751,9.9V9.335A8.969,8.969,0,0,0,23.879,7.08Z" transform="translate(-2.6 -3.026)" fill="#fff"/>
    </g>
</svg>
