<?xml version="1.0" standalone="no"?>
<!DOCTYPE svg PUBLIC "-//W3C//DTD SVG 20010904//EN"
 "http://www.w3.org/TR/2001/REC-SVG-20010904/DTD/svg10.dtd">
<svg version="1.0" xmlns="http://www.w3.org/2000/svg"
 width="692.000000pt" height="1052.000000pt" viewBox="0 0 692.000000 1052.000000"
 preserveAspectRatio="xMidYMid meet">

<g transform="translate(0.000000,1052.000000) scale(0.100000,-0.100000)"
fill="#F4F4F4" stroke="none">
<path d="M2588 10485 c-97 -18 -195 -55 -278 -105 l-66 -38 -2 -51 c-4 -106
-54 -196 -191 -347 -214 -238 -286 -344 -329 -488 -20 -66 -24 -104 -25 -201
0 -66 5 -142 12 -169 11 -47 11 -50 -15 -77 -34 -35 -157 -100 -244 -127 -36
-12 -148 -42 -250 -68 -279 -70 -381 -114 -471 -204 -43 -43 -91 -127 -103
-180 l-5 -25 147 -1 c179 -1 272 -16 587 -94 132 -32 272 -64 310 -71 80 -14
259 -18 355 -7 l65 8 0 -59 c0 -75 16 -97 124 -174 44 -32 81 -63 81 -68 0 -6
-22 -31 -49 -55 -95 -85 -165 -218 -216 -406 -14 -51 -43 -196 -65 -323 -22
-126 -50 -276 -61 -332 -21 -100 -22 -102 -53 -108 -59 -12 -214 -95 -288
-153 -94 -75 -173 -160 -327 -350 -68 -85 -131 -156 -138 -159 -8 -3 -51 4
-96 17 -100 27 -181 30 -223 8 -51 -28 -113 -97 -125 -140 -8 -32 -7 -62 5
-133 9 -51 16 -112 16 -137 l0 -44 -85 -38 c-119 -54 -280 -162 -352 -236
-145 -148 -174 -298 -92 -465 49 -99 49 -99 213 -106 109 -4 149 -10 179 -24
20 -10 37 -24 37 -31 0 -26 101 -1249 120 -1459 105 -1130 252 -1890 489
-2521 107 -286 112 -295 167 -326 61 -34 213 -82 324 -103 47 -9 153 -19 235
-22 250 -10 471 17 1065 127 356 66 510 92 690 115 167 22 566 31 710 16 124
-13 310 -48 323 -60 5 -5 -10 -45 -32 -89 -66 -131 -71 -203 -19 -259 23 -25
25 -25 128 -19 58 3 172 15 254 26 81 11 181 20 221 20 142 0 302 -46 409
-118 l45 -31 39 57 c112 166 323 207 645 127 54 -14 99 -25 100 -25 1 0 2 53
3 118 0 85 8 153 27 250 15 72 27 136 27 141 0 5 -25 21 -55 35 -119 54 -216
137 -286 244 -109 166 -151 360 -184 847 -49 724 -97 913 -372 1469 -74 147
-143 296 -154 330 -35 102 -59 251 -68 417 -10 169 -10 179 15 652 9 169 15
391 12 492 l-4 183 26 -18 c15 -10 92 -81 171 -157 180 -172 263 -240 359
-292 159 -86 309 -93 446 -23 82 42 141 137 170 274 13 58 15 113 11 263 -6
197 -17 286 -96 760 -73 442 -90 705 -55 873 28 134 53 161 215 222 190 73
211 101 217 286 l4 121 -39 24 c-32 20 -51 24 -118 24 -68 -1 -94 -6 -175 -38
-52 -21 -113 -41 -136 -44 -54 -7 -114 20 -114 51 0 49 30 130 78 214 62 108
71 153 45 237 -17 55 -21 60 -58 72 -89 26 -175 5 -244 -60 -18 -18 -75 -84
-126 -147 -99 -124 -148 -170 -217 -199 -96 -41 -94 -42 -201 79 -319 359
-640 567 -946 611 -165 23 -383 -5 -533 -70 -27 -11 -48 -18 -48 -15 0 2 31
65 69 139 76 147 91 199 91 310 0 69 2 75 21 75 46 0 188 43 264 80 155 76
275 188 398 373 30 45 107 179 172 297 64 118 144 255 176 304 33 49 57 91 55
94 -10 9 -223 -20 -313 -43 -52 -13 -190 -62 -306 -109 -301 -120 -397 -146
-593 -161 l-82 -7 -57 79 c-221 301 -620 560 -986 639 -105 22 -306 27 -401 9z
m-1700 -5842 c151 -233 382 -415 645 -508 53 -19 77 -33 77 -44 0 -9 -11 -73
-24 -142 -109 -562 -193 -1293 -291 -2529 -19 -245 -38 -465 -41 -490 l-7 -45
-18 70 c-55 205 -113 558 -143 870 -30 305 -42 510 -71 1160 -35 790 -79 1233
-164 1645 -10 49 -17 90 -16 90 1 0 25 -35 53 -77z m980 -3795 c-9 -27 -132
-97 -225 -127 -104 -35 -241 -50 -303 -34 -33 8 -37 14 -59 81 -13 40 -22 75
-19 77 3 3 20 -1 39 -9 65 -26 128 -27 264 -2 146 27 309 34 303 14z"/>
<path d="M65 9425 c-3 -14 -7 -36 -10 -50 -3 -14 -3 -25 0 -25 3 0 180 -29
393 -64 213 -36 400 -66 416 -68 28 -3 31 0 39 40 5 24 7 45 5 47 -2 2 -181
34 -398 70 -217 36 -405 67 -417 70 -18 4 -24 0 -28 -20z"/>
</g>
</svg>
