<svg xmlns="http://www.w3.org/2000/svg" xmlns:xlink="http://www.w3.org/1999/xlink" width="21" height="21" viewBox="0 0 21 21">
    <defs>
        <clipPath id="clip-path">
            <rect id="Прямоугольник_1990" data-name="Прямоугольник 1990" width="21" height="21" transform="translate(0.436)" fill="#fff"/>
        </clipPath>
    </defs>
    <g id="Группа_масок_20" data-name="Группа масок 20" transform="translate(-0.436)" clip-path="url(#clip-path)">
        <path id="youtube" d="M22.445,10.3a8.216,8.216,0,0,0-.88-3.992A2.823,2.823,0,0,0,19.9,5.34a75.747,75.747,0,0,0-8.091-.3,75.828,75.828,0,0,0-8.062.29,2.774,2.774,0,0,0-1.411.715c-.87.8-.967,2.175-1.063,3.335a46.677,46.677,0,0,0,0,6.264,9.231,9.231,0,0,0,.29,1.933,3.035,3.035,0,0,0,.686,1.315,2.765,2.765,0,0,0,1.44.754,43.672,43.672,0,0,0,6.283.319c3.383.048,6.351,0,9.86-.271a2.784,2.784,0,0,0,1.479-.754,2.407,2.407,0,0,0,.59-.967,10.227,10.227,0,0,0,.5-3.287C22.445,14.146,22.445,10.879,22.445,10.3ZM9.628,15.268V9.284L15.35,12.29C13.745,13.18,11.628,14.185,9.628,15.268Z" transform="translate(-1.17 -1.866)" fill="#fff"/>
    </g>
</svg>
