<svg width="24" height="24" viewBox="0 0 24 24" fill="none" xmlns="http://www.w3.org/2000/svg">
<path d="M12.2335 1.70557L2.95801 9.37164V20.8979C2.95801 22.335 4.05296 23.5 5.40359 23.5H19.0635C20.4142 23.5 21.5091 22.335 21.5091 20.8979V9.37164L12.2335 1.70557Z" fill="#F1F5F4"/>
<path d="M21.8615 11.0216L12.2334 3.26334L2.6053 11.0216C2.09144 11.4358 1.35932 11.3282 0.970187 10.7814C0.580979 10.2347 0.682133 9.45578 1.19599 9.04167L11.4478 0.78084C11.9124 0.406387 12.5545 0.406387 13.0191 0.78084L23.2708 9.04167C23.7847 9.45578 23.8858 10.2347 23.4966 10.7814C23.1074 11.3282 22.3753 11.4358 21.8615 11.0216Z" fill="#32735F"/>
<path d="M10.9433 15.2764H13.523C14.7373 15.2764 15.7217 16.3237 15.7217 17.6157V23.5H8.74463V17.6157C8.74463 16.3237 9.72901 15.2764 10.9433 15.2764Z" fill="#32735F"/>
</svg>
