<svg xmlns="http://www.w3.org/2000/svg" width="22" height="36" viewBox="0 0 22 36" fill="none">
    <path d="M21.013 15.3021C20.9629 14.2562 20.5596 13.2581 19.869 12.4711L11.874 4.19009C11.613 3.91811 11.277 3.7299 10.9087 3.64941C10.5405 3.56893 10.1566 3.59979 9.80595 3.73809C9.28732 2.73416 8.62165 1.81333 7.83095 1.00609C6.68695 -0.0939145 5.85095 -0.093914 5.34995 0.099086C4.76595 0.328086 4.08095 1.02909 4.13595 3.07209C4.23264 4.75605 4.60948 6.41209 5.25095 7.97208L5.32095 8.14909L1.14395 12.4821C0.454133 13.2691 0.0515492 14.2667 0.00195312 15.3121L0.00895309 34.0471C0.00974715 34.5655 0.216111 35.0625 0.582788 35.429C0.949466 35.7954 1.44652 36.0016 1.96495 36.0021L19.065 35.9951C19.5842 35.9951 20.0823 35.7888 20.4495 35.4216C20.8167 35.0544 21.023 34.5564 21.023 34.0371L21.013 15.3021ZM5.17095 3.04409C5.13595 1.75609 5.44895 1.17209 5.72795 1.06309C6.24195 0.863086 7.60195 1.78409 8.96695 4.36309L6.11395 7.32308C5.57423 5.95592 5.2559 4.51147 5.17095 3.04409ZM19.065 34.9581L1.96495 34.9651C1.72103 34.9648 1.48718 34.8678 1.31471 34.6953C1.14223 34.5229 1.04522 34.289 1.04495 34.0451L1.03695 15.3121C1.08634 14.5345 1.38512 13.7935 1.88895 13.1991L5.76895 9.17408C6.23954 10.1963 6.82821 11.1598 7.52295 12.0451C7.50145 12.1924 7.49075 12.3412 7.49095 12.4901C7.49201 13.2893 7.81003 14.0555 8.37526 14.6205C8.94048 15.1855 9.70674 15.5033 10.506 15.5041C11.03 15.5031 11.5447 15.3654 11.9992 15.1046C12.4537 14.8439 12.8324 14.4691 13.0979 14.0173C13.3633 13.5655 13.5063 13.0523 13.5128 12.5283C13.5193 12.0043 13.389 11.4877 13.1348 11.0295C12.8806 10.5713 12.5113 10.1873 12.0633 9.91537C11.6153 9.64349 11.1042 9.49314 10.5804 9.47916C10.0566 9.46519 9.53813 9.58807 9.07631 9.83568C8.61448 10.0833 8.22522 10.4471 7.94695 10.8911C7.39675 10.0989 6.92518 9.2549 6.53895 8.37109L9.87795 4.91209C9.95857 4.82728 10.0556 4.75975 10.1631 4.7136C10.2706 4.66746 10.3864 4.64366 10.5035 4.64366C10.6205 4.64366 10.7363 4.66746 10.8438 4.7136C10.9513 4.75975 11.0483 4.82728 11.129 4.91209L19.123 13.1901C19.6274 13.7843 19.9269 14.5252 19.977 15.3031L19.984 34.0381C19.9837 34.2818 19.8868 34.5155 19.7146 34.688C19.5423 34.8604 19.3087 34.9576 19.065 34.9581ZM8.65195 13.1791C9.06248 13.5375 9.58086 13.7486 10.125 13.7791C10.3093 13.7798 10.4921 13.7459 10.664 13.6791C11.435 13.3791 11.854 12.4631 11.88 11.0671C12.1631 11.3409 12.3581 11.693 12.4399 12.0783C12.5217 12.4636 12.4866 12.8645 12.3391 13.2297C12.1916 13.595 11.9385 13.9078 11.6121 14.1283C11.2856 14.3487 10.9008 14.4667 10.507 14.4671C10.1034 14.4666 9.70965 14.3431 9.37819 14.1129C9.04674 13.8828 8.79338 13.557 8.65195 13.1791ZM10.836 10.5371C10.905 11.8611 10.622 12.5821 10.287 12.7131C10.2387 12.7311 10.1875 12.7399 10.136 12.7391C9.83595 12.7391 9.31795 12.4901 8.65895 11.7761C8.82289 11.3501 9.12916 10.994 9.52579 10.7682C9.92242 10.5423 10.386 10.4607 10.836 10.5371Z" fill="#B1B1B1"/>
    <path d="M10.9722 24.0423C9.29718 23.4783 8.55718 22.9873 8.54918 21.9783C8.54318 21.2413 9.16618 20.3563 10.8182 20.3433C11.2325 20.3124 11.6489 20.3299 12.0592 20.3953C12.1879 20.4568 12.3278 20.4911 12.4703 20.4963C12.6128 20.5014 12.7549 20.4772 12.8876 20.4252C13.0204 20.3731 13.1411 20.2944 13.2421 20.1938C13.3432 20.0932 13.4225 19.9729 13.4752 19.8403L13.5262 19.6983C12.7241 19.3559 11.8582 19.1881 10.9862 19.2063L10.9752 17.7703C10.9558 17.6185 10.8814 17.479 10.7662 17.3783C10.6509 17.2776 10.5028 17.2225 10.3497 17.2236C10.1966 17.2248 10.0493 17.2819 9.93548 17.3843C9.82169 17.4867 9.74937 17.6272 9.73218 17.7793L9.74418 19.3173C8.02618 19.6613 6.94418 20.7653 6.95318 22.1503C6.96418 23.6713 8.21118 24.5913 10.1912 25.1843C11.8302 25.7323 12.4812 26.3043 12.4912 27.3133C12.4992 28.4023 11.5712 29.1623 9.97218 29.1743C8.99417 29.1846 8.02916 28.9498 7.16518 28.4913L7.10618 28.6633C7.0242 28.9459 7.05617 29.2493 7.19524 29.5086C7.33432 29.7679 7.56943 29.9624 7.85018 30.0503C8.49099 30.2503 9.15891 30.3498 9.83018 30.3453L9.84118 31.7803C9.86057 31.9322 9.93492 32.0717 10.0502 32.1724C10.1654 32.2731 10.3136 32.3281 10.4667 32.327C10.6197 32.3259 10.7671 32.2688 10.8809 32.1664C10.9947 32.064 11.067 31.9235 11.0842 31.7713L11.0722 30.2393C13.1092 29.8723 14.0812 28.6033 14.0722 27.1913C14.0562 25.6043 13.0222 24.7473 10.9722 24.0423Z" fill="#B1B1B1"/>
</svg>