<svg xmlns="http://www.w3.org/2000/svg" width="24" height="22" viewBox="0 0 24 22" fill="none">
    <mask id="mask0_1_8776" style="mask-type:luminance" maskUnits="userSpaceOnUse" x="0" y="0" width="24" height="22">
        <path d="M23.222 0H0V22H23.222V0Z" fill="white"/>
    </mask>
    <g mask="url(#mask0_1_8776)">
        <path d="M21.8844 9.96059H1.83542V3.33859C1.83622 2.9052 2.00873 2.48979 2.31518 2.18334C2.62163 1.87689 3.03704 1.70438 3.47042 1.70359H4.41042V3.26859C4.41042 3.36512 4.44877 3.45771 4.51704 3.52597C4.5853 3.59424 4.67788 3.63259 4.77442 3.63259H9.77442C9.87096 3.63259 9.96355 3.59424 10.0318 3.52597C10.1001 3.45771 10.1384 3.36512 10.1384 3.26859V1.33959C10.1384 1.24305 10.1001 1.15046 10.0318 1.0822C9.96355 1.01394 9.87096 0.975586 9.77442 0.975586H3.46942C2.84313 0.976644 2.24281 1.22597 1.80005 1.66892C1.35729 2.11187 1.10822 2.7123 1.10742 3.33859V13.1726C1.10913 14.1652 1.37107 15.14 1.86711 15.9998C2.36315 16.8596 3.07596 17.5743 3.93442 18.0726V20.3036C3.93442 20.4001 3.97277 20.4927 4.04103 20.561C4.1093 20.6292 4.20188 20.6676 4.29842 20.6676H6.99242C7.08896 20.6676 7.18155 20.6292 7.24981 20.561C7.31807 20.4927 7.35642 20.4001 7.35642 20.3036V18.8516H15.9984V20.3076C15.9984 20.3554 16.0078 20.4027 16.0261 20.4469C16.0444 20.491 16.0712 20.5312 16.105 20.565C16.1388 20.5988 16.179 20.6256 16.2231 20.6439C16.2673 20.6622 16.3146 20.6716 16.3624 20.6716H19.0564C19.1042 20.6716 19.1516 20.6622 19.1957 20.6439C19.2399 20.6256 19.28 20.5988 19.3138 20.565C19.3476 20.5312 19.3744 20.491 19.3927 20.4469C19.411 20.4027 19.4204 20.3554 19.4204 20.3076V18.0766C20.2791 17.5784 20.9921 16.8638 21.4883 16.004C21.9845 15.1442 22.2466 14.1693 22.2484 13.1766V10.3246C22.2484 10.228 22.2101 10.1355 22.1418 10.0672C22.0735 9.99894 21.981 9.96059 21.8844 9.96059ZM7.53842 1.70359H9.41342V2.90359H5.13742V1.70359H7.53842ZM21.5204 12.1786H1.83542V10.6866H21.5204V12.1786ZM4.66342 19.9436V18.4316C5.28917 18.6837 5.95503 18.8215 6.62942 18.8386V19.9386L4.66342 19.9436ZM18.6924 19.9436H16.7264V18.8436C17.4008 18.8264 18.0667 18.6886 18.6924 18.4366V19.9436ZM16.5704 18.1236H6.78642C5.47391 18.1223 4.21553 17.6004 3.28735 16.6724C2.35917 15.7444 1.83701 14.4861 1.83542 13.1736V12.9076H21.5204V13.1726C21.5191 14.4853 20.9971 15.7438 20.0688 16.672C19.1406 17.6002 17.8831 18.1223 16.5704 18.1236Z" fill="#6C6C6C"/>
    </g>
</svg>