<svg xmlns="http://www.w3.org/2000/svg" width="27" height="20" viewBox="0 0 27 20" fill="none">
    <mask id="mask0_1_8771" style="mask-type:luminance" maskUnits="userSpaceOnUse" x="0" y="0" width="27" height="20">
        <path d="M26.667 0H0V20H26.667V0Z" fill="white"/>
    </mask>
    <g mask="url(#mask0_1_8771)">
        <path d="M25.226 13.3773H24.796V11.6573C24.796 11.0868 24.5694 10.5397 24.166 10.1363C23.7626 9.73292 23.2155 9.5063 22.645 9.5063H22.215V3.9143C22.2148 3.11608 21.8976 2.35063 21.3331 1.7862C20.7687 1.22177 20.0033 0.904562 19.205 0.904297H7.16103C6.36281 0.904562 5.59736 1.22177 5.03293 1.7862C4.46851 2.35063 4.1513 3.11608 4.15103 3.9143V9.5053H3.72103C3.43822 9.5049 3.15811 9.56028 2.89673 9.66827C2.63534 9.77625 2.39782 9.93472 2.19775 10.1346C1.99768 10.3345 1.83899 10.5719 1.73077 10.8331C1.62254 11.0944 1.5669 11.3745 1.56703 11.6573V13.3773H1.13703C1.02299 13.3773 0.913616 13.4226 0.832975 13.5032C0.752335 13.5839 0.707031 13.6933 0.707031 13.8073V18.5383C0.707031 18.6523 0.752335 18.7617 0.832975 18.8424C0.913616 18.923 1.02299 18.9683 1.13703 18.9683H4.29303C4.38321 18.9687 4.47123 18.9407 4.54463 18.8883C4.61803 18.8359 4.67309 18.7617 4.70203 18.6763L5.01203 17.7003C5.10128 17.4479 5.26687 17.2294 5.48583 17.0753C5.70479 16.9212 5.96628 16.8391 6.23403 16.8403H20.116C20.3838 16.8391 20.6453 16.9212 20.8642 17.0753C21.0832 17.2294 21.2488 17.4479 21.338 17.7003L21.665 18.6763C21.695 18.7652 21.7533 18.8419 21.8309 18.8946C21.9086 18.9473 22.0013 18.9732 22.095 18.9683H25.226C25.2825 18.9683 25.3384 18.9572 25.3906 18.9356C25.4428 18.914 25.4902 18.8823 25.5301 18.8424C25.57 18.8024 25.6017 18.755 25.6233 18.7029C25.6449 18.6507 25.656 18.5948 25.656 18.5383V13.8073C25.656 13.7508 25.6449 13.6949 25.6233 13.6427C25.6017 13.5906 25.57 13.5432 25.5301 13.5032C25.4902 13.4633 25.4428 13.4316 25.3906 13.41C25.3384 13.3884 25.2825 13.3773 25.226 13.3773ZM5.01103 3.9143C5.0113 3.34416 5.2379 2.79746 5.64104 2.39431C6.04419 1.99116 6.5909 1.76456 7.16103 1.7643H19.205C19.7752 1.76456 20.3219 1.99116 20.725 2.39431C21.1282 2.79746 21.3548 3.34416 21.355 3.9143V9.5053H19.987C20.0831 9.08209 20.1102 8.64613 20.067 8.2143C20.067 7.87217 19.9311 7.54405 19.6892 7.30213C19.4473 7.06021 19.1192 6.9243 18.777 6.9243H15.767C15.5973 6.92377 15.4291 6.95675 15.2721 7.02134C15.1152 7.08594 14.9725 7.18087 14.8523 7.30071C14.7321 7.42055 14.6367 7.56294 14.5716 7.71971C14.5065 7.87648 14.473 8.04456 14.473 8.2143C14.4177 8.64533 14.4438 9.08291 14.55 9.5043H11.815C11.9104 9.08131 11.9367 8.64569 11.893 8.2143C11.893 7.87217 11.7571 7.54405 11.5152 7.30213C11.2733 7.06021 10.9452 6.9243 10.603 6.9243H7.59203C7.42254 6.92417 7.25469 6.95744 7.09806 7.02221C6.94144 7.08698 6.79911 7.18198 6.67922 7.30178C6.55932 7.42158 6.46421 7.56383 6.39932 7.7204C6.33443 7.87698 6.30103 8.04481 6.30103 8.2143C6.25703 8.64564 6.28303 9.08125 6.37803 9.5043H5.01103V3.9143ZM15.334 9.0753V8.2143C15.334 8.10025 15.3793 7.99088 15.46 7.91024C15.5406 7.8296 15.65 7.7843 15.764 7.7843H18.775C18.8891 7.7843 18.9984 7.8296 19.0791 7.91024C19.1597 7.99088 19.205 8.10025 19.205 8.2143V9.0743C19.205 9.18834 19.1597 9.29771 19.0791 9.37835C18.9984 9.45899 18.8891 9.5043 18.775 9.5043H15.767C15.7105 9.50469 15.6544 9.49393 15.602 9.47262C15.5496 9.45131 15.502 9.41988 15.4617 9.38012C15.4215 9.34037 15.3895 9.29307 15.3676 9.24093C15.3457 9.1888 15.3343 9.13185 15.334 9.0753ZM7.16203 9.0753V8.2143C7.16203 8.10025 7.20733 7.99088 7.28798 7.91024C7.36862 7.8296 7.47799 7.7843 7.59203 7.7843H10.603C10.7171 7.7843 10.8264 7.8296 10.9071 7.91024C10.9877 7.99088 11.033 8.10025 11.033 8.2143V9.0743C11.033 9.18834 10.9877 9.29771 10.9071 9.37835C10.8264 9.45899 10.7171 9.5043 10.603 9.5043H7.59203C7.47816 9.50456 7.36883 9.45965 7.28803 9.37941C7.20723 9.29918 7.16156 9.19017 7.16103 9.0763L7.16203 9.0753ZM2.43003 11.6573C2.43003 11.3152 2.56594 10.9871 2.80786 10.7451C3.04979 10.5032 3.3779 10.3673 3.72003 10.3673H22.645C22.9872 10.3673 23.3153 10.5032 23.5572 10.7451C23.7991 10.9871 23.935 11.3152 23.935 11.6573V13.3773H2.43003V11.6573ZM24.796 18.1093H22.383L22.155 17.4293C22.0124 17.0012 21.7388 16.6289 21.3728 16.3649C21.0069 16.1009 20.5672 15.9587 20.116 15.9583H6.25003C5.79882 15.9587 5.35915 16.1009 4.99323 16.3649C4.62731 16.6289 4.35367 17.0012 4.21103 17.4293L3.98303 18.1093H1.56703V14.2383H24.796V18.1093Z" fill="#6C6C6C"/>
    </g>
</svg>