<svg width="24" height="24" viewBox="0 0 24 24" fill="none" xmlns="http://www.w3.org/2000/svg">
<path d="M19.0897 7.18684C19.0897 6.94991 19.281 6.75861 19.518 6.75861C19.7549 6.75861 19.9462 6.94992 19.9462 7.18684L19.9462 20.8043C19.9462 21.0412 19.7549 21.2325 19.518 21.2325C19.2811 21.2325 19.0898 21.0412 19.0898 20.8043L19.0897 7.18684Z" fill="white"/>
<path d="M16.8971 9.19075C16.8971 8.95382 17.0884 8.76253 17.3254 8.76253C17.5608 8.76253 17.7536 8.95383 17.7536 9.19075V20.8044C17.7536 21.0413 17.5608 21.2326 17.3254 21.2326C17.0884 21.2326 16.8971 21.0413 16.8971 20.8044V9.19075Z" fill="white"/>
<path d="M12.6722 12.2715C12.6722 12.0346 12.865 11.8433 13.1019 11.8433C13.3373 11.8433 13.5301 12.0346 13.5301 12.2715V20.8648C13.5301 21.1017 13.3373 21.2915 13.1019 21.2915C12.865 21.2915 12.6737 21.1002 12.6737 20.8633L12.6722 12.2715Z" fill="white"/>
<path d="M10.0535 12.2715C10.0535 12.0346 10.2463 11.8433 10.4817 11.8433C10.7187 11.8433 10.91 12.0346 10.91 12.2715V13.1007C10.91 13.3376 10.7187 13.5289 10.4817 13.5289C10.2463 13.5289 10.055 13.3376 10.055 13.1007L10.0535 12.2715Z" fill="white"/>
<path d="M7.53274 12.2715C7.53274 12.0346 7.72405 11.8433 7.96097 11.8433C8.19642 11.8433 8.38772 12.0346 8.38772 12.2715V12.6622C8.38772 12.8976 8.19642 13.0889 7.96097 13.0889C7.72404 13.0889 7.53274 12.8976 7.53274 12.6622V12.2715Z" fill="white"/>
<path d="M4.56601 17.3816L4.56748 17.3802C4.33055 17.3802 4.14072 17.1889 4.14072 16.9534C4.14072 16.718 4.33056 16.5267 4.56748 16.5267H7.58943C7.82488 16.5267 8.01618 16.718 8.01618 16.9534C8.01618 17.1889 7.82488 17.3802 7.58943 17.3802L4.56601 17.3816Z" fill="white"/>
<path d="M4.56601 19.4463L4.56748 19.4448C4.33203 19.4448 4.14072 19.2535 4.14072 19.0195C4.14072 18.7841 4.33203 18.5928 4.56748 18.5928H7.58943C7.82488 18.5928 8.01471 18.7841 8.01471 19.0195C8.01471 19.2535 7.82488 19.4448 7.58943 19.4448L4.56601 19.4463Z" fill="white"/>
<path d="M4.56601 21.5124L4.56748 21.5109C4.45123 21.5153 4.33938 21.4712 4.25698 21.3902C4.17309 21.3108 4.12747 21.2004 4.12747 21.0841C4.12747 20.9694 4.17309 20.859 4.25698 20.7781C4.33938 20.6971 4.45122 20.6545 4.56748 20.6574H7.58943C7.70422 20.6544 7.81605 20.6971 7.89993 20.7781C7.98234 20.859 8.02943 20.9694 8.02943 21.0841C8.02943 21.2004 7.98234 21.3108 7.89993 21.3902C7.81605 21.4712 7.70422 21.5153 7.58943 21.5109L4.56601 21.5124Z" fill="white"/>
<path fill-rule="evenodd" clip-rule="evenodd" d="M7.96097 11.8433C7.72405 11.8433 7.53274 12.0346 7.53274 12.2715V12.6622C7.53274 12.8976 7.72404 13.0889 7.96097 13.0889C8.19642 13.0889 8.38772 12.8976 8.38772 12.6622V12.2715C8.38772 12.0346 8.19642 11.8433 7.96097 11.8433ZM13.1019 11.8433C12.865 11.8433 12.6722 12.0346 12.6722 12.2715L12.6737 20.8633C12.6737 21.1002 12.865 21.2915 13.1019 21.2915C13.3373 21.2915 13.5301 21.1017 13.5301 20.8648V12.2715C13.5301 12.0346 13.3373 11.8433 13.1019 11.8433ZM10.4817 11.8433C10.2463 11.8433 10.0535 12.0346 10.0535 12.2715L10.055 13.1007C10.055 13.3376 10.2463 13.5289 10.4817 13.5289C10.7187 13.5289 10.91 13.3376 10.91 13.1007V12.2715C10.91 12.0346 10.7187 11.8433 10.4817 11.8433ZM4.56601 21.5124L4.56748 21.5109C4.45123 21.5153 4.33938 21.4712 4.25698 21.3902C4.17309 21.3108 4.12747 21.2004 4.12747 21.0841C4.12747 20.9694 4.17309 20.859 4.25698 20.7781C4.33938 20.6971 4.45122 20.6545 4.56748 20.6574H7.58943C7.70422 20.6544 7.81605 20.6971 7.89993 20.7781C7.98234 20.859 8.02943 20.9694 8.02943 21.0841C8.02943 21.2004 7.98234 21.3108 7.89993 21.3902C7.81605 21.4712 7.70422 21.5153 7.58943 21.5109L4.56601 21.5124ZM4.56601 19.4463L4.56748 19.4448C4.33203 19.4448 4.14072 19.2535 4.14072 19.0195C4.14072 18.7841 4.33203 18.5928 4.56748 18.5928H7.58943C7.82488 18.5928 8.01471 18.7841 8.01471 19.0195C8.01471 19.2535 7.82488 19.4448 7.58943 19.4448L4.56601 19.4463ZM4.56601 17.3816L4.56748 17.3802C4.33055 17.3802 4.14072 17.1889 4.14072 16.9534C4.14072 16.718 4.33056 16.5267 4.56748 16.5267H7.58943C7.82488 16.5267 8.01618 16.718 8.01618 16.9534C8.01618 17.1889 7.82488 17.3802 7.58943 17.3802L4.56601 17.3816ZM19.518 6.75861C19.281 6.75861 19.0897 6.94991 19.0897 7.18684L19.0898 20.8043C19.0898 21.0412 19.2811 21.2325 19.518 21.2325C19.7549 21.2325 19.9462 21.0412 19.9462 20.8043L19.9462 7.18684C19.9462 6.94992 19.7549 6.75861 19.518 6.75861ZM17.3254 8.76253C17.0884 8.76253 16.8971 8.95382 16.8971 9.19075V20.8044C16.8971 21.0413 17.0884 21.2326 17.3254 21.2326C17.5608 21.2326 17.7536 21.0413 17.7536 20.8044V9.19075C17.7536 8.95383 17.5608 8.76253 17.3254 8.76253Z" fill="white"/>
<path fill-rule="evenodd" clip-rule="evenodd" d="M5.48574 14.5366V9.86243C5.48574 9.74912 5.53136 9.64023 5.6123 9.56076C5.69324 9.4813 5.80213 9.43568 5.91544 9.43715H7.57687V6.27769C7.57687 6.04077 7.76817 5.84947 8.00509 5.84947C8.24054 5.84947 8.43331 6.04077 8.43331 6.27769V9.43715H11.673V8.07006C11.673 7.83314 11.8644 7.64184 12.1013 7.64184C12.3367 7.64184 12.5295 7.83315 12.5295 8.07006V9.43715H14.7192L14.7191 7.66493C14.7177 7.53544 14.7765 7.41329 14.8766 7.33236L16.8309 5.55174V0.928221C16.8309 0.692769 17.0236 0.5 17.2591 0.5C17.496 0.5 17.6873 0.692776 17.6873 0.928221V4.77494L21.4089 1.39031C21.534 1.27847 21.7135 1.24904 21.8681 1.31673C22.0226 1.38442 22.1212 1.536 22.1226 1.70521L22.1241 22.9772C22.1241 23.2659 21.8901 23.5 21.6014 23.5L2.39996 23.5C2.1113 23.5 1.87729 23.266 1.87724 22.9774L1.87585 14.9621C1.87733 14.7281 2.06863 14.5368 2.30261 14.5368L5.48574 14.5366ZM15.5756 7.85184L17.5298 6.07269L17.5338 6.06915C17.5455 6.05881 17.5561 6.04942 17.5666 6.03885L21.269 2.6719L21.2691 22.6465H15.5756L15.5756 7.85184ZM9.42603 22.6472H2.7311V15.3907H9.42603V22.6472ZM14.7191 22.6472H10.2825L10.2824 14.9627C10.2809 14.7273 10.0896 14.5375 9.85418 14.5375H6.34218L6.34365 10.2897H14.7191V22.6472Z" fill="white"/>
<path fill-rule="evenodd" clip-rule="evenodd" d="M7.53274 12.2715C7.53274 12.0346 7.72405 11.8433 7.96097 11.8433C8.19642 11.8433 8.38772 12.0346 8.38772 12.2715V12.6622C8.38772 12.8976 8.19642 13.0889 7.96097 13.0889C7.72404 13.0889 7.53274 12.8976 7.53274 12.6622V12.2715ZM12.6722 12.2715C12.6722 12.0346 12.865 11.8433 13.1019 11.8433C13.3373 11.8433 13.5301 12.0346 13.5301 12.2715V20.8648C13.5301 21.1017 13.3373 21.2915 13.1019 21.2915C12.865 21.2915 12.6737 21.1002 12.6737 20.8633L12.6722 12.2715ZM10.0535 12.2715C10.0535 12.0346 10.2463 11.8433 10.4817 11.8433C10.7187 11.8433 10.91 12.0346 10.91 12.2715V13.1007C10.91 13.3376 10.7187 13.5289 10.4817 13.5289C10.2463 13.5289 10.055 13.3376 10.055 13.1007L10.0535 12.2715ZM4.56748 21.5109L4.56601 21.5124L7.58943 21.5109C7.70422 21.5153 7.81605 21.4712 7.89993 21.3902C7.98234 21.3108 8.02943 21.2004 8.02943 21.0841C8.02943 20.9694 7.98234 20.859 7.89993 20.7781C7.81605 20.6971 7.70422 20.6544 7.58943 20.6574H4.56748C4.45122 20.6545 4.33938 20.6971 4.25698 20.7781C4.17309 20.859 4.12747 20.9694 4.12747 21.0841C4.12747 21.2004 4.17309 21.3108 4.25698 21.3902C4.33938 21.4712 4.45123 21.5153 4.56748 21.5109ZM4.56748 19.4448L4.56601 19.4463L7.58943 19.4448C7.82488 19.4448 8.01471 19.2535 8.01471 19.0195C8.01471 18.7841 7.82488 18.5928 7.58943 18.5928H4.56748C4.33203 18.5928 4.14072 18.7841 4.14072 19.0195C4.14072 19.2535 4.33203 19.4448 4.56748 19.4448ZM4.56748 17.3802L4.56601 17.3816L7.58943 17.3802C7.82488 17.3802 8.01618 17.1889 8.01618 16.9534C8.01618 16.718 7.82488 16.5267 7.58943 16.5267H4.56748C4.33056 16.5267 4.14072 16.718 4.14072 16.9534C4.14072 17.1889 4.33055 17.3802 4.56748 17.3802ZM19.0897 7.18684C19.0897 6.94991 19.281 6.75861 19.518 6.75861C19.7549 6.75861 19.9462 6.94992 19.9462 7.18684L19.9462 20.8043C19.9462 21.0412 19.7549 21.2325 19.518 21.2325C19.2811 21.2325 19.0898 21.0412 19.0898 20.8043L19.0897 7.18684ZM16.8971 9.19075C16.8971 8.95382 17.0884 8.76253 17.3254 8.76253C17.5608 8.76253 17.7536 8.95383 17.7536 9.19075V20.8044C17.7536 21.0413 17.5608 21.2326 17.3254 21.2326C17.0884 21.2326 16.8971 21.0413 16.8971 20.8044V9.19075Z" fill="white"/>
</svg>
