<svg width="24" height="24" viewBox="0 0 24 24" fill="none" xmlns="http://www.w3.org/2000/svg">
<path fill-rule="evenodd" clip-rule="evenodd" d="M5.36056 23.5996H3.35083C3.25105 23.5996 3.15103 23.572 3.0733 23.5173C2.99522 23.4624 2.93973 23.3789 2.93973 23.2807V12.7738C2.93973 12.6756 2.99522 12.5921 3.0733 12.5372C3.15103 12.4825 3.25105 12.4549 3.35083 12.4549H5.36056C5.46034 12.4549 5.56037 12.4825 5.63809 12.5372C5.6946 12.577 5.73928 12.6316 5.75965 12.6961C5.76743 12.7206 5.77167 12.7466 5.77167 12.7738V13.2704V14.0926V15.7157V16.5379V18.1641V18.9864V20.6215V21.4437V22.7776V23.2807C5.77167 23.3789 5.71618 23.4624 5.63809 23.5173C5.56037 23.572 5.46034 23.5996 5.36056 23.5996ZM4.94946 13.2493H3.76206L3.77425 22.9618H4.94946V13.2493Z" fill="white"/>
<path fill-rule="evenodd" clip-rule="evenodd" d="M14.2551 8.04486H13.5613C13.4523 8.04486 13.3477 8.00155 13.2706 7.92445C13.1935 7.84736 13.1502 7.74279 13.1502 7.63376C13.1502 7.52473 13.1935 7.42016 13.2706 7.34307C13.3477 7.26597 13.4523 7.22266 13.5613 7.22266H14.2551C14.3641 7.22266 14.4687 7.26597 14.5458 7.34307C14.6229 7.42016 14.6662 7.52473 14.6662 7.63376C14.6662 7.74279 14.6229 7.84736 14.5458 7.92445C14.4687 8.00155 14.3641 8.04486 14.2551 8.04486Z" fill="white"/>
<path fill-rule="evenodd" clip-rule="evenodd" d="M12.348 8.04486H11.6512C11.5421 8.04486 11.4376 8.00155 11.3605 7.92445C11.2834 7.84736 11.2401 7.74279 11.2401 7.63376C11.2401 7.52473 11.2834 7.42016 11.3605 7.34307C11.4376 7.26597 11.5421 7.22266 11.6512 7.22266H12.348C12.4571 7.22266 12.5616 7.26597 12.6387 7.34307C12.7158 7.42016 12.7591 7.52473 12.7591 7.63376C12.7591 7.74279 12.7158 7.84736 12.6387 7.92445C12.5616 8.00155 12.4571 8.04486 12.348 8.04486Z" fill="white"/>
<path fill-rule="evenodd" clip-rule="evenodd" d="M10.4379 8.04486H9.74418C9.63515 8.04486 9.53059 8.00155 9.45349 7.92445C9.37639 7.84736 9.33308 7.74279 9.33308 7.63376C9.33308 7.52473 9.37639 7.42016 9.45349 7.34307C9.53059 7.26597 9.63515 7.22266 9.74418 7.22266H10.4379C10.547 7.22266 10.6515 7.26597 10.7286 7.34307C10.8057 7.42016 10.849 7.52473 10.849 7.63376C10.849 7.74279 10.8057 7.84736 10.7286 7.92445C10.6515 8.00155 10.547 8.04486 10.4379 8.04486Z" fill="white"/>
<path fill-rule="evenodd" clip-rule="evenodd" d="M14.2551 9.86786H13.5613C13.4523 9.86786 13.3477 9.82455 13.2706 9.74745C13.1935 9.67035 13.1502 9.56579 13.1502 9.45676C13.1502 9.34773 13.1935 9.24316 13.2706 9.16606C13.3477 9.08897 13.4523 9.04565 13.5613 9.04565H14.2551C14.3641 9.04565 14.4687 9.08897 14.5458 9.16606C14.6229 9.24316 14.6662 9.34773 14.6662 9.45676C14.6662 9.56579 14.6229 9.67035 14.5458 9.74745C14.4687 9.82455 14.3641 9.86786 14.2551 9.86786Z" fill="white"/>
<path fill-rule="evenodd" clip-rule="evenodd" d="M12.348 9.86786H11.6512C11.5421 9.86786 11.4376 9.82455 11.3605 9.74745C11.2834 9.67035 11.2401 9.56579 11.2401 9.45676C11.2401 9.34773 11.2834 9.24316 11.3605 9.16606C11.4376 9.08897 11.5421 9.04565 11.6512 9.04565H12.348C12.4571 9.04565 12.5616 9.08897 12.6387 9.16606C12.7158 9.24316 12.7591 9.34773 12.7591 9.45676C12.7591 9.56579 12.7158 9.67035 12.6387 9.74745C12.5616 9.82455 12.4571 9.86786 12.348 9.86786Z" fill="white"/>
<path fill-rule="evenodd" clip-rule="evenodd" d="M10.4379 9.86786H9.74418C9.63515 9.86786 9.53059 9.82455 9.45349 9.74745C9.37639 9.67035 9.33308 9.56579 9.33308 9.45676C9.33308 9.34773 9.37639 9.24316 9.45349 9.16606C9.53059 9.08897 9.63515 9.04565 9.74418 9.04565H10.4379C10.547 9.04565 10.6515 9.08897 10.7286 9.16606C10.8057 9.24316 10.849 9.34773 10.849 9.45676C10.849 9.56579 10.8057 9.67035 10.7286 9.74745C10.6515 9.82455 10.547 9.86786 10.4379 9.86786Z" fill="white"/>
<path fill-rule="evenodd" clip-rule="evenodd" d="M14.2551 11.6909H13.5613C13.4523 11.6909 13.3477 11.6475 13.2706 11.5704C13.1935 11.4934 13.1502 11.3888 13.1502 11.2798C13.1502 11.1707 13.1935 11.0662 13.2706 10.9891C13.3477 10.912 13.4523 10.8687 13.5613 10.8687H14.2551C14.3641 10.8687 14.4687 10.912 14.5458 10.9891C14.6229 11.0662 14.6662 11.1707 14.6662 11.2798C14.6662 11.3888 14.6229 11.4934 14.5458 11.5704C14.4687 11.6475 14.3641 11.6909 14.2551 11.6909Z" fill="white"/>
<path fill-rule="evenodd" clip-rule="evenodd" d="M12.348 11.6909H11.6512C11.5421 11.6909 11.4376 11.6475 11.3605 11.5704C11.2834 11.4934 11.2401 11.3888 11.2401 11.2798C11.2401 11.1707 11.2834 11.0662 11.3605 10.9891C11.4376 10.912 11.5421 10.8687 11.6512 10.8687H12.348C12.4571 10.8687 12.5616 10.912 12.6387 10.9891C12.7158 11.0662 12.7591 11.1707 12.7591 11.2798C12.7591 11.3888 12.7158 11.4934 12.6387 11.5704C12.5616 11.6475 12.4571 11.6909 12.348 11.6909Z" fill="white"/>
<path fill-rule="evenodd" clip-rule="evenodd" d="M10.4379 11.6909H9.74418C9.63515 11.6909 9.53059 11.6475 9.45349 11.5704C9.37639 11.4934 9.33308 11.3888 9.33308 11.2798C9.33308 11.1707 9.37639 11.0662 9.45349 10.9891C9.53059 10.912 9.63515 10.8687 9.74418 10.8687H10.4379C10.547 10.8687 10.6515 10.912 10.7286 10.9891C10.8057 11.0662 10.849 11.1707 10.849 11.2798C10.849 11.3888 10.8057 11.4934 10.7286 11.5704C10.6515 11.6475 10.547 11.6909 10.4379 11.6909Z" fill="white"/>
<path fill-rule="evenodd" clip-rule="evenodd" d="M14.2551 13.5141H13.5613C13.4523 13.5141 13.3477 13.4708 13.2706 13.3937C13.1935 13.3166 13.1502 13.212 13.1502 13.103C13.1502 12.994 13.1935 12.8894 13.2706 12.8123C13.3477 12.7352 13.4523 12.6919 13.5613 12.6919H14.2551C14.3641 12.6919 14.4687 12.7352 14.5458 12.8123C14.6229 12.8894 14.6662 12.994 14.6662 13.103C14.6662 13.212 14.6229 13.3166 14.5458 13.3937C14.4687 13.4708 14.3641 13.5141 14.2551 13.5141Z" fill="white"/>
<path fill-rule="evenodd" clip-rule="evenodd" d="M12.348 13.5141H11.6512C11.5421 13.5141 11.4376 13.4708 11.3605 13.3937C11.2834 13.3166 11.2401 13.212 11.2401 13.103C11.2401 12.994 11.2834 12.8894 11.3605 12.8123C11.4376 12.7352 11.5421 12.6919 11.6512 12.6919H12.348C12.4571 12.6919 12.5616 12.7352 12.6387 12.8123C12.7158 12.8894 12.7591 12.994 12.7591 13.103C12.7591 13.212 12.7158 13.3166 12.6387 13.3937C12.5616 13.4708 12.4571 13.5141 12.348 13.5141Z" fill="white"/>
<path fill-rule="evenodd" clip-rule="evenodd" d="M10.4379 13.5141H9.74418C9.63515 13.5141 9.53059 13.4708 9.45349 13.3937C9.37639 13.3166 9.33308 13.212 9.33308 13.103C9.33308 12.994 9.37639 12.8894 9.45349 12.8123C9.53059 12.7352 9.63515 12.6919 9.74418 12.6919H10.4379C10.547 12.6919 10.6515 12.7352 10.7286 12.8123C10.8057 12.8894 10.849 12.994 10.849 13.103C10.849 13.212 10.8057 13.3166 10.7286 13.3937C10.6515 13.4708 10.547 13.5141 10.4379 13.5141Z" fill="white"/>
<path fill-rule="evenodd" clip-rule="evenodd" d="M14.2551 15.3276H13.5613C13.4523 15.3276 13.3477 15.2843 13.2706 15.2072C13.1935 15.1301 13.1502 15.0255 13.1502 14.9165C13.1502 14.8074 13.1935 14.7029 13.2706 14.6258C13.3477 14.5487 13.4523 14.5054 13.5613 14.5054H14.2551C14.3641 14.5054 14.4687 14.5487 14.5458 14.6258C14.6229 14.7029 14.6662 14.8074 14.6662 14.9165C14.6662 15.0255 14.6229 15.1301 14.5458 15.2072C14.4687 15.2843 14.3641 15.3276 14.2551 15.3276Z" fill="white"/>
<path fill-rule="evenodd" clip-rule="evenodd" d="M12.348 15.3276H11.6512C11.5421 15.3276 11.4376 15.2843 11.3605 15.2072C11.2834 15.1301 11.2401 15.0255 11.2401 14.9165C11.2401 14.8074 11.2834 14.7029 11.3605 14.6258C11.4376 14.5487 11.5421 14.5054 11.6512 14.5054H12.348C12.4571 14.5054 12.5616 14.5487 12.6387 14.6258C12.7158 14.7029 12.7591 14.8074 12.7591 14.9165C12.7591 15.0255 12.7158 15.1301 12.6387 15.2072C12.5616 15.2843 12.4571 15.3276 12.348 15.3276Z" fill="white"/>
<path fill-rule="evenodd" clip-rule="evenodd" d="M10.4379 15.3276H9.74418C9.63515 15.3276 9.53059 15.2843 9.45349 15.2072C9.37639 15.1301 9.33308 15.0255 9.33308 14.9165C9.33308 14.8074 9.37639 14.7029 9.45349 14.6258C9.53059 14.5487 9.63515 14.5054 9.74418 14.5054H10.4379C10.547 14.5054 10.6515 14.5487 10.7286 14.6258C10.8057 14.7029 10.849 14.8074 10.849 14.9165C10.849 15.0255 10.8057 15.1301 10.7286 15.2072C10.6515 15.2843 10.547 15.3276 10.4379 15.3276Z" fill="white"/>
<path fill-rule="evenodd" clip-rule="evenodd" d="M14.2551 17.1633H13.5613C13.4523 17.1633 13.3477 17.12 13.2706 17.0429C13.1935 16.9658 13.1502 16.8612 13.1502 16.7522C13.1502 16.6431 13.1935 16.5386 13.2706 16.4615C13.3477 16.3844 13.4523 16.3411 13.5613 16.3411H14.2551C14.3641 16.3411 14.4687 16.3844 14.5458 16.4615C14.6229 16.5386 14.6662 16.6431 14.6662 16.7522C14.6662 16.8612 14.6229 16.9658 14.5458 17.0429C14.4687 17.12 14.3641 17.1633 14.2551 17.1633Z" fill="white"/>
<path fill-rule="evenodd" clip-rule="evenodd" d="M12.348 17.1633H11.6512C11.5421 17.1633 11.4376 17.12 11.3605 17.0429C11.2834 16.9658 11.2401 16.8612 11.2401 16.7522C11.2401 16.6431 11.2834 16.5386 11.3605 16.4615C11.4376 16.3844 11.5421 16.3411 11.6512 16.3411H12.348C12.4571 16.3411 12.5616 16.3844 12.6387 16.4615C12.7158 16.5386 12.7591 16.6431 12.7591 16.7522C12.7591 16.8612 12.7158 16.9658 12.6387 17.0429C12.5616 17.12 12.4571 17.1633 12.348 17.1633Z" fill="white"/>
<path fill-rule="evenodd" clip-rule="evenodd" d="M10.4379 17.1633H9.74418C9.63515 17.1633 9.53059 17.12 9.45349 17.0429C9.37639 16.9658 9.33308 16.8612 9.33308 16.7522C9.33308 16.6431 9.37639 16.5386 9.45349 16.4615C9.53059 16.3844 9.63515 16.3411 9.74418 16.3411H10.4379C10.547 16.3411 10.6515 16.3844 10.7286 16.4615C10.8057 16.5386 10.849 16.6431 10.849 16.7522C10.849 16.8612 10.8057 16.9658 10.7286 17.0429C10.6515 17.12 10.547 17.1633 10.4379 17.1633Z" fill="white"/>
<path fill-rule="evenodd" clip-rule="evenodd" d="M14.2551 18.9863H13.5613C13.4523 18.9863 13.3477 18.943 13.2706 18.8659C13.1935 18.7888 13.1502 18.6842 13.1502 18.5752C13.1502 18.4661 13.1935 18.3616 13.2706 18.2845C13.3477 18.2074 13.4523 18.1641 13.5613 18.1641H14.2551C14.3641 18.1641 14.4687 18.2074 14.5458 18.2845C14.6229 18.3616 14.6662 18.4661 14.6662 18.5752C14.6662 18.6842 14.6229 18.7888 14.5458 18.8659C14.4687 18.943 14.3641 18.9863 14.2551 18.9863Z" fill="white"/>
<path fill-rule="evenodd" clip-rule="evenodd" d="M12.348 18.9863H11.6512C11.5421 18.9863 11.4376 18.943 11.3605 18.8659C11.2834 18.7888 11.2401 18.6842 11.2401 18.5752C11.2401 18.4661 11.2834 18.3616 11.3605 18.2845C11.4376 18.2074 11.5421 18.1641 11.6512 18.1641H12.348C12.4571 18.1641 12.5616 18.2074 12.6387 18.2845C12.7158 18.3616 12.7591 18.4661 12.7591 18.5752C12.7591 18.6842 12.7158 18.7888 12.6387 18.8659C12.5616 18.943 12.4571 18.9863 12.348 18.9863Z" fill="white"/>
<path fill-rule="evenodd" clip-rule="evenodd" d="M10.4379 18.9863H9.74418C9.63515 18.9863 9.53059 18.943 9.45349 18.8659C9.37639 18.7888 9.33308 18.6842 9.33308 18.5752C9.33308 18.4661 9.37639 18.3616 9.45349 18.2845C9.53059 18.2074 9.63515 18.1641 9.74418 18.1641H10.4379C10.547 18.1641 10.6515 18.2074 10.7286 18.2845C10.8057 18.3616 10.849 18.4661 10.849 18.5752C10.849 18.6842 10.8057 18.7888 10.7286 18.8659C10.6515 18.943 10.547 18.9863 10.4379 18.9863Z" fill="white"/>
<path fill-rule="evenodd" clip-rule="evenodd" d="M13.426 23.5998H10.5731C10.4601 23.5998 10.3544 23.5493 10.2785 23.4639C10.2028 23.3789 10.162 23.2659 10.162 23.1502V22.7776V20.8915C10.162 20.7758 10.2028 20.6628 10.2785 20.5778C10.3544 20.4924 10.4601 20.4418 10.5731 20.4418H13.426C13.539 20.4418 13.6447 20.4924 13.7207 20.5778C13.7963 20.6628 13.8371 20.7758 13.8371 20.8915V22.7776V23.1502C13.8371 23.2659 13.7963 23.3789 13.7207 23.4639C13.6447 23.5493 13.539 23.5998 13.426 23.5998ZM13.0149 21.3411H10.9842V22.7776H13.0149V21.3411Z" fill="white"/>
<path fill-rule="evenodd" clip-rule="evenodd" d="M18.651 11.6439H18.2399H17.5404C17.4314 11.6439 17.3268 11.6006 17.2497 11.5235C17.1726 11.4464 17.1293 11.3418 17.1293 11.2328C17.1293 11.1237 17.1726 11.0192 17.2497 10.9421C17.3268 10.865 17.4314 10.8217 17.5404 10.8217H18.2399H18.651C18.7601 10.8217 18.8646 10.865 18.9417 10.9421C19.0188 11.0192 19.0621 11.1237 19.0621 11.2328C19.0621 11.3418 19.0188 11.4464 18.9417 11.5235C18.8646 11.6006 18.7601 11.6439 18.651 11.6439Z" fill="white"/>
<path fill-rule="evenodd" clip-rule="evenodd" d="M18.651 14.0926H18.2271H17.5404C17.4314 14.0926 17.3268 14.0493 17.2497 13.9722C17.1726 13.8951 17.1293 13.7905 17.1293 13.6815C17.1293 13.5724 17.1726 13.4679 17.2497 13.3908C17.3268 13.3137 17.4314 13.2704 17.5404 13.2704H18.2271H18.651C18.7601 13.2704 18.8646 13.3137 18.9417 13.3908C19.0169 13.4659 19.06 13.5673 19.0621 13.6733C19.0621 13.676 19.0621 13.6788 19.0621 13.6815C19.0621 13.6842 19.0621 13.6869 19.0621 13.6896C19.06 13.7957 19.0169 13.897 18.9417 13.9722C18.8646 14.0493 18.7601 14.0926 18.651 14.0926Z" fill="white"/>
<path fill-rule="evenodd" clip-rule="evenodd" d="M18.651 16.5379H18.2271H17.5404C17.4314 16.5379 17.3268 16.4946 17.2497 16.4175C17.1726 16.3404 17.1293 16.2359 17.1293 16.1268C17.1293 16.0178 17.1726 15.9132 17.2497 15.8361C17.3268 15.759 17.4314 15.7157 17.5404 15.7157H18.2271H18.651C18.7601 15.7157 18.8646 15.759 18.9417 15.8361C19.0169 15.9113 19.06 16.0126 19.0621 16.1187C19.0621 16.1214 19.0621 16.1241 19.0621 16.1268C19.0621 16.1295 19.0621 16.1322 19.0621 16.1349C19.06 16.241 19.0169 16.3423 18.9417 16.4175C18.8646 16.4946 18.7601 16.5379 18.651 16.5379Z" fill="white"/>
<path fill-rule="evenodd" clip-rule="evenodd" d="M18.651 18.9864H18.2271H17.5404C17.4314 18.9864 17.3268 18.943 17.2497 18.8659C17.1726 18.7888 17.1293 18.6843 17.1293 18.5753C17.1293 18.4662 17.1726 18.3617 17.2497 18.2846C17.3268 18.2075 17.4314 18.1641 17.5404 18.1641H18.2271H18.651C18.7601 18.1641 18.8646 18.2075 18.9417 18.2846C19.0169 18.3597 19.06 18.461 19.0621 18.5671C19.0621 18.5698 19.0621 18.5725 19.0621 18.5753C19.0621 18.578 19.0621 18.5807 19.0621 18.5834C19.06 18.6895 19.0169 18.7908 18.9417 18.8659C18.8646 18.943 18.7601 18.9864 18.651 18.9864Z" fill="white"/>
<path fill-rule="evenodd" clip-rule="evenodd" d="M18.651 21.4437H18.2271H17.5404C17.4314 21.4437 17.3268 21.4004 17.2497 21.3233C17.1726 21.2462 17.1293 21.1416 17.1293 21.0326C17.1293 20.9236 17.1726 20.819 17.2497 20.7419C17.3268 20.6648 17.4314 20.6215 17.5404 20.6215H18.2271H18.651C18.7601 20.6215 18.8646 20.6648 18.9417 20.7419C19.0169 20.8171 19.06 20.9184 19.0621 21.0245C19.0621 21.0272 19.0621 21.0299 19.0621 21.0326C19.0621 21.0353 19.0621 21.038 19.0621 21.0407C19.06 21.1468 19.0169 21.2481 18.9417 21.3233C18.8646 21.4004 18.7601 21.4437 18.651 21.4437Z" fill="white"/>
<path fill-rule="evenodd" clip-rule="evenodd" d="M5.36066 11.6439C5.25163 11.6439 5.14707 11.6006 5.06997 11.5235C4.99287 11.4464 4.94956 11.3418 4.94956 11.2328C4.94956 11.1237 4.99287 11.0192 5.06997 10.9421C5.14707 10.865 5.25163 10.8217 5.36066 10.8217H5.75965H6.47131C6.58034 10.8217 6.6849 10.865 6.762 10.9421C6.8391 11.0192 6.88241 11.1237 6.88241 11.2328C6.88241 11.3418 6.8391 11.4464 6.762 11.5235C6.6849 11.6006 6.58034 11.6439 6.47131 11.6439H5.75965H5.36066Z" fill="white"/>
<path fill-rule="evenodd" clip-rule="evenodd" d="M5.36066 14.0926C5.25163 14.0926 5.14707 14.0493 5.06997 13.9722C4.99287 13.8951 4.94956 13.7905 4.94956 13.6815C4.94956 13.5724 4.99287 13.4679 5.06997 13.3908C5.14707 13.3137 5.25163 13.2704 5.36066 13.2704H5.77167H6.47131C6.58034 13.2704 6.6849 13.3137 6.762 13.3908C6.8391 13.4679 6.88241 13.5724 6.88241 13.6815C6.88241 13.7905 6.8391 13.8951 6.762 13.9722C6.6849 14.0493 6.58034 14.0926 6.47131 14.0926H5.77167H5.36066Z" fill="white"/>
<path fill-rule="evenodd" clip-rule="evenodd" d="M5.36066 16.5379C5.25163 16.5379 5.14707 16.4946 5.06997 16.4175C4.99287 16.3404 4.94956 16.2359 4.94956 16.1268C4.94956 16.0178 4.99287 15.9132 5.06997 15.8361C5.14707 15.759 5.25163 15.7157 5.36066 15.7157H5.77167H6.47131C6.58034 15.7157 6.6849 15.759 6.762 15.8361C6.8391 15.9132 6.88241 16.0178 6.88241 16.1268C6.88241 16.2359 6.8391 16.3404 6.762 16.4175C6.6849 16.4946 6.58034 16.5379 6.47131 16.5379H5.77167H5.36066Z" fill="white"/>
<path fill-rule="evenodd" clip-rule="evenodd" d="M5.36066 18.9864C5.25163 18.9864 5.14707 18.943 5.06997 18.8659C4.99287 18.7888 4.94956 18.6843 4.94956 18.5753C4.94956 18.4662 4.99287 18.3617 5.06997 18.2846C5.14707 18.2075 5.25163 18.1641 5.36066 18.1641H5.77167H6.47131C6.58034 18.1641 6.6849 18.2075 6.762 18.2846C6.8391 18.3617 6.88241 18.4662 6.88241 18.5753C6.88241 18.6843 6.8391 18.7888 6.762 18.8659C6.6849 18.943 6.58034 18.9864 6.47131 18.9864H5.77167H5.36066Z" fill="white"/>
<path fill-rule="evenodd" clip-rule="evenodd" d="M5.36066 21.4437C5.25163 21.4437 5.14707 21.4004 5.06997 21.3233C4.99287 21.2462 4.94956 21.1416 4.94956 21.0326C4.94956 20.9236 4.99287 20.819 5.06997 20.7419C5.14707 20.6648 5.25163 20.6215 5.36066 20.6215H5.77167H6.47131C6.58034 20.6215 6.6849 20.6648 6.762 20.7419C6.8391 20.819 6.88241 20.9236 6.88241 21.0326C6.88241 21.1416 6.8391 21.2462 6.762 21.3233C6.6849 21.4004 6.58034 21.4437 6.47131 21.4437H5.77167H5.36066Z" fill="white"/>
<path fill-rule="evenodd" clip-rule="evenodd" d="M21.6571 23.5998H2.34292C2.24037 23.5998 2.1459 23.552 2.07897 23.4737C2.01245 23.3958 1.97717 23.2931 1.97717 23.1887C1.97717 23.0843 2.01245 22.9817 2.07897 22.9038C2.1459 22.8254 2.24037 22.7776 2.34292 22.7776H5.77167H7.52861H8.35115H10.162H13.8371H15.6484H16.4706H18.2271H19.0621H20.2369H21.6571C21.7596 22.7776 21.8541 22.8254 21.921 22.9038C21.9875 22.9817 22.0228 23.0843 22.0228 23.1887C22.0228 23.2931 21.9875 23.3958 21.921 23.4737C21.8541 23.552 21.7596 23.5998 21.6571 23.5998Z" fill="white"/>
<path fill-rule="evenodd" clip-rule="evenodd" d="M10.4958 3.44881C10.4054 3.44545 10.3164 3.47202 10.2425 3.52442C10.1681 3.57727 10.1134 3.6534 10.087 3.74079L9.55169 5.55829C9.53337 5.62091 9.53017 5.68717 9.54244 5.75125C9.55472 5.81534 9.58208 5.87558 9.62225 5.927C9.66242 5.97841 9.71425 6.01953 9.77346 6.04695C9.83202 6.07407 9.89613 6.08701 9.9606 6.08475H14.0417C14.1075 6.08701 14.173 6.07341 14.2325 6.04506C14.2927 6.01641 14.345 5.97358 14.3849 5.92023L14.3856 5.91935C14.4232 5.86794 14.4483 5.80851 14.459 5.74573C14.4697 5.68306 14.4657 5.61878 14.4473 5.55793L13.9123 3.74144C13.8859 3.65405 13.831 3.57727 13.7566 3.52442C13.6828 3.47202 13.5937 3.44545 13.5033 3.44881H10.4958ZM13.6266 5.36255L13.5969 5.2625L13.272 4.17102H12.2683H11.731H10.7271L10.4051 5.2625L10.3756 5.36255H13.6266Z" fill="white"/>
<path fill-rule="evenodd" clip-rule="evenodd" d="M11.9996 4.27093C11.9007 4.27093 11.8054 4.23525 11.731 4.17102C11.7234 4.16448 11.7161 4.15764 11.7089 4.15052C11.6318 4.07342 11.5885 3.96885 11.5885 3.85982V0.811006C11.5885 0.701975 11.6318 0.597409 11.7089 0.520312C11.786 0.443215 11.8906 0.399902 11.9996 0.399902C12.1087 0.399902 12.2132 0.443215 12.2903 0.520312C12.3674 0.597409 12.4107 0.701975 12.4107 0.811006V3.85982C12.4107 3.96885 12.3674 4.07342 12.2903 4.15052C12.2832 4.15764 12.2758 4.16448 12.2683 4.17102C12.1939 4.23525 12.0986 4.27093 11.9996 4.27093Z" fill="white"/>
<path fill-rule="evenodd" clip-rule="evenodd" d="M13.6266 5.36255H10.3756L10.4051 5.2625H13.5969L13.6266 5.36255ZM12.2683 4.17102C12.1939 4.23525 12.0986 4.27093 11.9996 4.27093C11.9007 4.27093 11.8054 4.23525 11.731 4.17102H12.2683Z" fill="white"/>
<path fill-rule="evenodd" clip-rule="evenodd" d="M16.0595 23.5997L18.651 23.5996C18.7507 23.5996 18.8508 23.5719 18.9285 23.5172C19.0066 23.4623 19.0621 23.3789 19.0621 23.2807V22.7776V21.0407V21.0245V18.5834V18.5671V16.1349V16.1187V13.6896V13.6733V13.2496V8.77011C19.0621 8.67192 19.0066 8.58848 18.9285 8.53354C18.8508 8.47886 18.7507 8.45121 18.651 8.45121H16.0595C15.9597 8.45121 15.8597 8.47886 15.7819 8.53354C15.7052 8.58752 15.6503 8.66899 15.6484 8.76493L15.6484 8.77011V22.7776V23.2807C15.6484 23.3789 15.7039 23.4623 15.7819 23.5172C15.8597 23.5719 15.9597 23.5997 16.0595 23.5997ZM16.4706 22.7776L16.4706 9.2956H18.2399V10.8217H17.5404C17.4314 10.8217 17.3268 10.865 17.2497 10.9421C17.1726 11.0192 17.1293 11.1237 17.1293 11.2328C17.1293 11.3418 17.1726 11.4464 17.2497 11.5235C17.3268 11.6006 17.4314 11.6439 17.5404 11.6439H18.2399V12.6941C18.2316 12.7193 18.2271 12.7461 18.2271 12.774V13.2704H17.5404C17.4314 13.2704 17.3268 13.3137 17.2497 13.3908C17.1726 13.4679 17.1293 13.5724 17.1293 13.6815C17.1293 13.7905 17.1726 13.8951 17.2497 13.9722C17.3268 14.0493 17.4314 14.0926 17.5404 14.0926H18.2271V15.7157H17.5404C17.4314 15.7157 17.3268 15.759 17.2497 15.8361C17.1726 15.9132 17.1293 16.0178 17.1293 16.1268C17.1293 16.2359 17.1726 16.3404 17.2497 16.4175C17.3268 16.4946 17.4314 16.5379 17.5404 16.5379H18.2271V18.1641H17.5404C17.4314 18.1641 17.3268 18.2075 17.2497 18.2846C17.1726 18.3617 17.1293 18.4662 17.1293 18.5753C17.1293 18.6843 17.1726 18.7888 17.2497 18.8659C17.3268 18.943 17.4314 18.9864 17.5404 18.9864H18.2271V20.6215H17.5404C17.4314 20.6215 17.3268 20.6648 17.2497 20.7419C17.1726 20.819 17.1293 20.9236 17.1293 21.0326C17.1293 21.1416 17.1726 21.2462 17.2497 21.3233C17.3268 21.4004 17.4314 21.4437 17.5404 21.4437H18.2271V22.7776H16.4706Z" fill="white"/>
<path fill-rule="evenodd" clip-rule="evenodd" d="M5.34855 23.5996L7.93971 23.5997C8.03949 23.5997 8.13985 23.5719 8.21757 23.5172C8.29566 23.4623 8.35115 23.3789 8.35115 23.2807V22.7776V8.77011C8.35115 8.76571 8.35104 8.76135 8.35082 8.75702C8.34614 8.66451 8.29216 8.58603 8.21757 8.53354C8.13985 8.47886 8.03982 8.45121 7.94004 8.45121H5.34855C5.24877 8.45121 5.14875 8.47886 5.07102 8.53354C4.99293 8.58849 4.93745 8.67192 4.93745 8.77011V23.2807C4.93745 23.3789 4.99293 23.4623 5.07102 23.5172C5.14875 23.5719 5.24877 23.5996 5.34855 23.5996ZM7.52894 9.2956L7.52861 22.7776H5.77167V21.4437H6.47131C6.58034 21.4437 6.6849 21.4004 6.762 21.3233C6.8391 21.2462 6.88241 21.1416 6.88241 21.0326C6.88241 20.9236 6.8391 20.819 6.762 20.7419C6.6849 20.6648 6.58034 20.6215 6.47131 20.6215H5.77167V18.9864H6.47131C6.58034 18.9864 6.6849 18.943 6.762 18.8659C6.8391 18.7888 6.88241 18.6843 6.88241 18.5753C6.88241 18.4662 6.8391 18.3617 6.762 18.2846C6.6849 18.2075 6.58034 18.1641 6.47131 18.1641H5.77167V16.5379H6.47131C6.58034 16.5379 6.6849 16.4946 6.762 16.4175C6.8391 16.3404 6.88241 16.2359 6.88241 16.1268C6.88241 16.0178 6.8391 15.9132 6.762 15.8361C6.6849 15.759 6.58034 15.7157 6.47131 15.7157H5.77167V14.0926H6.47131C6.58034 14.0926 6.6849 14.0493 6.762 13.9722C6.8391 13.8951 6.88241 13.7905 6.88241 13.6815C6.88241 13.5724 6.8391 13.4679 6.762 13.3908C6.6849 13.3137 6.58034 13.2704 6.47131 13.2704H5.77167V12.7738C5.77167 12.7466 5.76743 12.7206 5.75965 12.6961V11.6439H6.47131C6.58034 11.6439 6.6849 11.6006 6.762 11.5235C6.8391 11.4464 6.88241 11.3418 6.88241 11.2328C6.88241 11.1237 6.8391 11.0192 6.762 10.9421C6.6849 10.865 6.58034 10.8217 6.47131 10.8217H5.75965V9.2956H7.52894Z" fill="white"/>
<path fill-rule="evenodd" clip-rule="evenodd" d="M18.6382 23.5999H20.648C20.7477 23.5999 20.8478 23.5723 20.9255 23.5176C21.0036 23.4626 21.0591 23.3792 21.0591 23.281V12.774C21.0591 12.6759 21.0036 12.5924 20.9255 12.5375C20.8478 12.4828 20.7477 12.4551 20.648 12.4551H18.6382C18.5385 12.4551 18.4384 12.4828 18.3607 12.5375C18.3048 12.5768 18.2606 12.6307 18.2399 12.6941C18.2316 12.7193 18.2271 12.7461 18.2271 12.774V13.2704V14.0926V15.7157V16.5379V18.1641V18.9864V20.6215V21.4437V22.7776V23.281C18.2271 23.3792 18.2826 23.4626 18.3607 23.5176C18.4384 23.5723 18.5385 23.5999 18.6382 23.5999ZM19.0621 22.7776V21.0407L19.0621 21.0326L19.0621 21.0245V18.5834L19.0621 18.5753L19.0621 18.5671V16.1349L19.0621 16.1268L19.0621 16.1187V13.6896L19.0621 13.6815L19.0621 13.6733V13.2496H20.2369V22.7776H19.0621Z" fill="white"/>
<path fill-rule="evenodd" clip-rule="evenodd" d="M16.0595 23.5997H7.93971C7.83928 23.5997 7.73883 23.571 7.66101 23.5145C7.58272 23.4577 7.52861 23.3726 7.52861 23.274V22.7776V5.58817C7.52861 5.48954 7.58272 5.40444 7.66101 5.34765C7.73883 5.2912 7.83928 5.2625 7.93971 5.2625H10.4051H13.5969H16.0595C16.16 5.2625 16.2604 5.2912 16.3382 5.34765C16.4165 5.40444 16.4706 5.48954 16.4706 5.58817V22.7776V23.274C16.4706 23.3726 16.4165 23.4577 16.3382 23.5145C16.2604 23.571 16.16 23.5997 16.0595 23.5997ZM10.9842 21.3411H13.0149V22.7776H10.9842V21.3411ZM8.35082 6.0959H15.6484V8.76493L15.6484 8.77011V22.7776H13.8371V20.8915C13.8371 20.7758 13.7963 20.6628 13.7207 20.5778C13.6447 20.4924 13.539 20.4418 13.426 20.4418H10.5731C10.4601 20.4418 10.3544 20.4924 10.2785 20.5778C10.2028 20.6628 10.162 20.7758 10.162 20.8915V22.7776H8.35115V8.77011C8.35115 8.76571 8.35104 8.76135 8.35082 8.75702V6.0959ZM13.5613 8.04486H14.2551C14.3641 8.04486 14.4687 8.00155 14.5458 7.92445C14.6229 7.84736 14.6662 7.74279 14.6662 7.63376C14.6662 7.52473 14.6229 7.42016 14.5458 7.34307C14.4687 7.26597 14.3641 7.22266 14.2551 7.22266H13.5613C13.4523 7.22266 13.3477 7.26597 13.2706 7.34307C13.1935 7.42016 13.1502 7.52473 13.1502 7.63376C13.1502 7.74279 13.1935 7.84736 13.2706 7.92445C13.3477 8.00155 13.4523 8.04486 13.5613 8.04486ZM11.6512 8.04486H12.348C12.4571 8.04486 12.5616 8.00155 12.6387 7.92445C12.7158 7.84736 12.7591 7.74279 12.7591 7.63376C12.7591 7.52473 12.7158 7.42016 12.6387 7.34307C12.5616 7.26597 12.4571 7.22266 12.348 7.22266H11.6512C11.5421 7.22266 11.4376 7.26597 11.3605 7.34307C11.2834 7.42016 11.2401 7.52473 11.2401 7.63376C11.2401 7.74279 11.2834 7.84736 11.3605 7.92445C11.4376 8.00155 11.5421 8.04486 11.6512 8.04486ZM9.74418 8.04486H10.4379C10.547 8.04486 10.6515 8.00155 10.7286 7.92445C10.8057 7.84736 10.849 7.74279 10.849 7.63376C10.849 7.52473 10.8057 7.42016 10.7286 7.34307C10.6515 7.26597 10.547 7.22266 10.4379 7.22266H9.74418C9.63515 7.22266 9.53059 7.26597 9.45349 7.34307C9.37639 7.42016 9.33308 7.52473 9.33308 7.63376C9.33308 7.74279 9.37639 7.84736 9.45349 7.92445C9.53059 8.00155 9.63515 8.04486 9.74418 8.04486ZM13.5613 9.86786H14.2551C14.3641 9.86786 14.4687 9.82455 14.5458 9.74745C14.6229 9.67035 14.6662 9.56579 14.6662 9.45676C14.6662 9.34773 14.6229 9.24316 14.5458 9.16606C14.4687 9.08897 14.3641 9.04565 14.2551 9.04565H13.5613C13.4523 9.04565 13.3477 9.08897 13.2706 9.16606C13.1935 9.24316 13.1502 9.34773 13.1502 9.45676C13.1502 9.56579 13.1935 9.67035 13.2706 9.74745C13.3477 9.82455 13.4523 9.86786 13.5613 9.86786ZM11.6512 9.86786H12.348C12.4571 9.86786 12.5616 9.82455 12.6387 9.74745C12.7158 9.67035 12.7591 9.56579 12.7591 9.45676C12.7591 9.34773 12.7158 9.24316 12.6387 9.16606C12.5616 9.08897 12.4571 9.04565 12.348 9.04565H11.6512C11.5421 9.04565 11.4376 9.08897 11.3605 9.16606C11.2834 9.24316 11.2401 9.34773 11.2401 9.45676C11.2401 9.56579 11.2834 9.67035 11.3605 9.74745C11.4376 9.82455 11.5421 9.86786 11.6512 9.86786ZM9.74418 9.86786H10.4379C10.547 9.86786 10.6515 9.82455 10.7286 9.74745C10.8057 9.67035 10.849 9.56579 10.849 9.45676C10.849 9.34773 10.8057 9.24316 10.7286 9.16606C10.6515 9.08897 10.547 9.04565 10.4379 9.04565H9.74418C9.63515 9.04565 9.53059 9.08897 9.45349 9.16606C9.37639 9.24316 9.33308 9.34773 9.33308 9.45676C9.33308 9.56579 9.37639 9.67035 9.45349 9.74745C9.53059 9.82455 9.63515 9.86786 9.74418 9.86786ZM13.5613 11.6909H14.2551C14.3641 11.6909 14.4687 11.6475 14.5458 11.5704C14.6229 11.4934 14.6662 11.3888 14.6662 11.2798C14.6662 11.1707 14.6229 11.0662 14.5458 10.9891C14.4687 10.912 14.3641 10.8687 14.2551 10.8687H13.5613C13.4523 10.8687 13.3477 10.912 13.2706 10.9891C13.1935 11.0662 13.1502 11.1707 13.1502 11.2798C13.1502 11.3888 13.1935 11.4934 13.2706 11.5704C13.3477 11.6475 13.4523 11.6909 13.5613 11.6909ZM11.6512 11.6909H12.348C12.4571 11.6909 12.5616 11.6475 12.6387 11.5704C12.7158 11.4934 12.7591 11.3888 12.7591 11.2798C12.7591 11.1707 12.7158 11.0662 12.6387 10.9891C12.5616 10.912 12.4571 10.8687 12.348 10.8687H11.6512C11.5421 10.8687 11.4376 10.912 11.3605 10.9891C11.2834 11.0662 11.2401 11.1707 11.2401 11.2798C11.2401 11.3888 11.2834 11.4934 11.3605 11.5704C11.4376 11.6475 11.5421 11.6909 11.6512 11.6909ZM9.74418 11.6909H10.4379C10.547 11.6909 10.6515 11.6475 10.7286 11.5704C10.8057 11.4934 10.849 11.3888 10.849 11.2798C10.849 11.1707 10.8057 11.0662 10.7286 10.9891C10.6515 10.912 10.547 10.8687 10.4379 10.8687H9.74418C9.63515 10.8687 9.53059 10.912 9.45349 10.9891C9.37639 11.0662 9.33308 11.1707 9.33308 11.2798C9.33308 11.3888 9.37639 11.4934 9.45349 11.5704C9.53059 11.6475 9.63515 11.6909 9.74418 11.6909ZM13.5613 13.5141H14.2551C14.3641 13.5141 14.4687 13.4708 14.5458 13.3937C14.6229 13.3166 14.6662 13.212 14.6662 13.103C14.6662 12.994 14.6229 12.8894 14.5458 12.8123C14.4687 12.7352 14.3641 12.6919 14.2551 12.6919H13.5613C13.4523 12.6919 13.3477 12.7352 13.2706 12.8123C13.1935 12.8894 13.1502 12.994 13.1502 13.103C13.1502 13.212 13.1935 13.3166 13.2706 13.3937C13.3477 13.4708 13.4523 13.5141 13.5613 13.5141ZM11.6512 13.5141H12.348C12.4571 13.5141 12.5616 13.4708 12.6387 13.3937C12.7158 13.3166 12.7591 13.212 12.7591 13.103C12.7591 12.994 12.7158 12.8894 12.6387 12.8123C12.5616 12.7352 12.4571 12.6919 12.348 12.6919H11.6512C11.5421 12.6919 11.4376 12.7352 11.3605 12.8123C11.2834 12.8894 11.2401 12.994 11.2401 13.103C11.2401 13.212 11.2834 13.3166 11.3605 13.3937C11.4376 13.4708 11.5421 13.5141 11.6512 13.5141ZM9.74418 13.5141H10.4379C10.547 13.5141 10.6515 13.4708 10.7286 13.3937C10.8057 13.3166 10.849 13.212 10.849 13.103C10.849 12.994 10.8057 12.8894 10.7286 12.8123C10.6515 12.7352 10.547 12.6919 10.4379 12.6919H9.74418C9.63515 12.6919 9.53059 12.7352 9.45349 12.8123C9.37639 12.8894 9.33308 12.994 9.33308 13.103C9.33308 13.212 9.37639 13.3166 9.45349 13.3937C9.53059 13.4708 9.63515 13.5141 9.74418 13.5141ZM13.5613 15.3276H14.2551C14.3641 15.3276 14.4687 15.2843 14.5458 15.2072C14.6229 15.1301 14.6662 15.0255 14.6662 14.9165C14.6662 14.8074 14.6229 14.7029 14.5458 14.6258C14.4687 14.5487 14.3641 14.5054 14.2551 14.5054H13.5613C13.4523 14.5054 13.3477 14.5487 13.2706 14.6258C13.1935 14.7029 13.1502 14.8074 13.1502 14.9165C13.1502 15.0255 13.1935 15.1301 13.2706 15.2072C13.3477 15.2843 13.4523 15.3276 13.5613 15.3276ZM11.6512 15.3276H12.348C12.4571 15.3276 12.5616 15.2843 12.6387 15.2072C12.7158 15.1301 12.7591 15.0255 12.7591 14.9165C12.7591 14.8074 12.7158 14.7029 12.6387 14.6258C12.5616 14.5487 12.4571 14.5054 12.348 14.5054H11.6512C11.5421 14.5054 11.4376 14.5487 11.3605 14.6258C11.2834 14.7029 11.2401 14.8074 11.2401 14.9165C11.2401 15.0255 11.2834 15.1301 11.3605 15.2072C11.4376 15.2843 11.5421 15.3276 11.6512 15.3276ZM9.74418 15.3276H10.4379C10.547 15.3276 10.6515 15.2843 10.7286 15.2072C10.8057 15.1301 10.849 15.0255 10.849 14.9165C10.849 14.8074 10.8057 14.7029 10.7286 14.6258C10.6515 14.5487 10.547 14.5054 10.4379 14.5054H9.74418C9.63515 14.5054 9.53059 14.5487 9.45349 14.6258C9.37639 14.7029 9.33308 14.8074 9.33308 14.9165C9.33308 15.0255 9.37639 15.1301 9.45349 15.2072C9.53059 15.2843 9.63515 15.3276 9.74418 15.3276ZM13.5613 17.1633H14.2551C14.3641 17.1633 14.4687 17.12 14.5458 17.0429C14.6229 16.9658 14.6662 16.8612 14.6662 16.7522C14.6662 16.6431 14.6229 16.5386 14.5458 16.4615C14.4687 16.3844 14.3641 16.3411 14.2551 16.3411H13.5613C13.4523 16.3411 13.3477 16.3844 13.2706 16.4615C13.1935 16.5386 13.1502 16.6431 13.1502 16.7522C13.1502 16.8612 13.1935 16.9658 13.2706 17.0429C13.3477 17.12 13.4523 17.1633 13.5613 17.1633ZM11.6512 17.1633H12.348C12.4571 17.1633 12.5616 17.12 12.6387 17.0429C12.7158 16.9658 12.7591 16.8612 12.7591 16.7522C12.7591 16.6431 12.7158 16.5386 12.6387 16.4615C12.5616 16.3844 12.4571 16.3411 12.348 16.3411H11.6512C11.5421 16.3411 11.4376 16.3844 11.3605 16.4615C11.2834 16.5386 11.2401 16.6431 11.2401 16.7522C11.2401 16.8612 11.2834 16.9658 11.3605 17.0429C11.4376 17.12 11.5421 17.1633 11.6512 17.1633ZM9.74418 17.1633H10.4379C10.547 17.1633 10.6515 17.12 10.7286 17.0429C10.8057 16.9658 10.849 16.8612 10.849 16.7522C10.849 16.6431 10.8057 16.5386 10.7286 16.4615C10.6515 16.3844 10.547 16.3411 10.4379 16.3411H9.74418C9.63515 16.3411 9.53059 16.3844 9.45349 16.4615C9.37639 16.5386 9.33308 16.6431 9.33308 16.7522C9.33308 16.8612 9.37639 16.9658 9.45349 17.0429C9.53059 17.12 9.63515 17.1633 9.74418 17.1633ZM13.5613 18.9863H14.2551C14.3641 18.9863 14.4687 18.943 14.5458 18.8659C14.6229 18.7888 14.6662 18.6842 14.6662 18.5752C14.6662 18.4661 14.6229 18.3616 14.5458 18.2845C14.4687 18.2074 14.3641 18.1641 14.2551 18.1641H13.5613C13.4523 18.1641 13.3477 18.2074 13.2706 18.2845C13.1935 18.3616 13.1502 18.4661 13.1502 18.5752C13.1502 18.6842 13.1935 18.7888 13.2706 18.8659C13.3477 18.943 13.4523 18.9863 13.5613 18.9863ZM11.6512 18.9863H12.348C12.4571 18.9863 12.5616 18.943 12.6387 18.8659C12.7158 18.7888 12.7591 18.6842 12.7591 18.5752C12.7591 18.4661 12.7158 18.3616 12.6387 18.2845C12.5616 18.2074 12.4571 18.1641 12.348 18.1641H11.6512C11.5421 18.1641 11.4376 18.2074 11.3605 18.2845C11.2834 18.3616 11.2401 18.4661 11.2401 18.5752C11.2401 18.6842 11.2834 18.7888 11.3605 18.8659C11.4376 18.943 11.5421 18.9863 11.6512 18.9863ZM9.74418 18.9863H10.4379C10.547 18.9863 10.6515 18.943 10.7286 18.8659C10.8057 18.7888 10.849 18.6842 10.849 18.5752C10.849 18.4661 10.8057 18.3616 10.7286 18.2845C10.6515 18.2074 10.547 18.1641 10.4379 18.1641H9.74418C9.63515 18.1641 9.53059 18.2074 9.45349 18.2845C9.37639 18.3616 9.33308 18.4661 9.33308 18.5752C9.33308 18.6842 9.37639 18.7888 9.45349 18.8659C9.53059 18.943 9.63515 18.9863 9.74418 18.9863Z" fill="white"/>
</svg>
