<svg xmlns="http://www.w3.org/2000/svg" width="32" height="32" viewBox="0 0 32 32" fill="none">
    <mask id="mask0_1_1167" style="mask-type:luminance" maskUnits="userSpaceOnUse" x="0" y="0" width="32" height="32">
        <path d="M31.243 0.755859H0V31.9989H31.243V0.755859Z" fill="white"/>
    </mask>
    <g mask="url(#mask0_1_1167)">
        <path d="M31.0919 14.0616C31.0687 13.8583 31.0024 13.6624 30.8974 13.4868C30.7924 13.3113 30.6511 13.1601 30.4829 13.0436L26.1249 9.92559V3.77859C26.1251 3.71692 26.113 3.65582 26.0895 3.5988C26.066 3.54179 26.0315 3.48997 25.9879 3.44631C25.9444 3.40265 25.8926 3.36802 25.8356 3.34439C25.7787 3.32075 25.7176 3.30859 25.6559 3.30859H21.9839C21.9222 3.30846 21.861 3.32053 21.8039 3.3441C21.7468 3.36767 21.695 3.40229 21.6513 3.44596C21.6076 3.48963 21.573 3.54149 21.5494 3.59857C21.5259 3.65566 21.5138 3.71683 21.5139 3.77859V6.62659L15.8939 2.60659C15.8144 2.54996 15.7191 2.51953 15.6214 2.51953C15.5238 2.51953 15.4285 2.54996 15.3489 2.60659L0.756934 13.0436C0.589406 13.1606 0.448655 13.3118 0.344008 13.4873C0.239362 13.6628 0.173209 13.8586 0.149934 14.0616C0.1296 14.2592 0.151541 14.4588 0.2143 14.6473C0.277059 14.8357 0.379198 15.0087 0.513934 15.1546L0.613934 15.2656C0.769927 15.4362 0.960021 15.5722 1.17191 15.6647C1.38379 15.7572 1.61274 15.8042 1.84393 15.8026C2.19357 15.8031 2.5347 15.6948 2.81993 15.4926L4.58593 14.2296V29.2956H2.05293C1.92855 29.2956 1.80926 29.345 1.7213 29.433C1.63335 29.5209 1.58393 29.6402 1.58393 29.7646C1.58393 29.889 1.63335 30.0083 1.7213 30.0962C1.80926 30.1842 1.92855 30.2336 2.05293 30.2336H29.1899C29.3143 30.2336 29.4336 30.1842 29.5216 30.0962C29.6095 30.0083 29.6589 29.889 29.6589 29.7646C29.6589 29.6402 29.6095 29.5209 29.5216 29.433C29.4336 29.345 29.3143 29.2956 29.1899 29.2956H26.6569V14.2306L27.0359 14.5016L28.4229 15.4936C28.7536 15.7249 29.1561 15.8301 29.5576 15.7903C29.9591 15.7505 30.3331 15.5683 30.6119 15.2766L30.7339 15.1496C30.8673 15.0039 30.9681 14.8316 31.0298 14.6441C31.0916 14.4565 31.1127 14.258 31.0919 14.0616ZM22.4519 4.24759H25.1869V9.25459L22.4519 7.29759V4.24759ZM11.8829 29.2956H5.52493V26.5546H11.8829V29.2956ZM18.4229 29.2956H12.8229V22.0096H18.4229V29.2956ZM18.4229 21.0706H12.8229V20.0136H18.4229V21.0706ZM25.7229 29.2956H19.3609V26.5546H25.7189L25.7229 29.2956ZM25.7229 25.6156H19.3609V19.5446C19.3609 19.4202 19.3115 19.3009 19.2236 19.213C19.1356 19.125 19.0163 19.0756 18.8919 19.0756H12.3519C12.2903 19.0755 12.2292 19.0875 12.1721 19.111C12.1151 19.1345 12.0633 19.169 12.0197 19.2126C11.976 19.2562 11.9414 19.3079 11.9177 19.3649C11.8941 19.4218 11.8819 19.4829 11.8819 19.5446V25.6166H5.52493V13.5596L15.6249 6.33659L25.7249 13.5596L25.7229 25.6156ZM30.0499 14.5156L29.9259 14.6446C29.803 14.7696 29.6398 14.8471 29.4652 14.8634C29.2906 14.8797 29.1159 14.8337 28.9719 14.7336L27.5859 13.7426L15.8949 5.37759C15.8151 5.32102 15.7197 5.29063 15.6219 5.29063C15.5241 5.29063 15.4287 5.32102 15.3489 5.37759L2.27593 14.7296C2.12969 14.8304 1.95253 14.8762 1.77577 14.859C1.599 14.8418 1.43401 14.7627 1.30993 14.6356L1.20993 14.5246C1.16428 14.4766 1.12942 14.4193 1.10769 14.3567C1.08595 14.2941 1.07786 14.2276 1.08393 14.1616C1.09371 14.0901 1.11855 14.0215 1.15682 13.9603C1.19509 13.8991 1.24592 13.8467 1.30593 13.8066L15.6219 3.56459L21.6379 7.86459C21.6802 7.91092 21.7316 7.94803 21.7889 7.97359L29.9369 13.8016C29.9975 13.842 30.0488 13.8948 30.0874 13.9565C30.126 14.0182 30.1511 14.0875 30.1609 14.1596C30.1674 14.2234 30.1603 14.2878 30.1401 14.3486C30.12 14.4094 30.0872 14.4653 30.0439 14.5126L30.0499 14.5156Z" fill="#B1B1B1"/>
        <path d="M12.9856 12.2201C12.9944 12.7399 13.1567 13.2455 13.4519 13.6733C13.7472 14.1012 14.1623 14.4323 14.6451 14.6251C15.1279 14.8178 15.6569 14.8636 16.1656 14.7567C16.6744 14.6498 17.1402 14.395 17.5046 14.0243C17.869 13.6535 18.1157 13.1833 18.2138 12.6728C18.3119 12.1623 18.2569 11.6342 18.0559 11.1548C17.8548 10.6754 17.5166 10.2661 17.0836 9.97828C16.6507 9.69047 16.1424 9.53699 15.6226 9.53711C14.9173 9.54398 14.2436 9.83032 13.7493 10.3333C13.2549 10.8363 12.9802 11.5149 12.9856 12.2201ZM17.3226 12.2201C17.3137 12.5543 17.2065 12.8784 17.0144 13.152C16.8224 13.4256 16.5539 13.6365 16.2425 13.7583C15.9312 13.8801 15.5909 13.9074 15.2642 13.8368C14.9374 13.7662 14.6388 13.6008 14.4055 13.3614C14.1722 13.1219 14.0147 12.819 13.9527 12.4906C13.8907 12.1621 13.9268 11.8226 14.0567 11.5146C14.1866 11.2066 14.4044 10.9437 14.6829 10.7588C14.9614 10.5739 15.2883 10.4752 15.6226 10.4751C16.079 10.482 16.5142 10.6695 16.8326 10.9966C17.1511 11.3236 17.3279 11.7636 17.3226 12.2201ZM17.3336 25.6821C17.3952 25.6821 17.4563 25.6699 17.5133 25.6463C17.5702 25.6227 17.622 25.588 17.6656 25.5444C17.7091 25.5007 17.7436 25.4489 17.7672 25.3919C17.7907 25.3349 17.8027 25.2738 17.8026 25.2121V24.3401C17.8026 24.2157 17.7532 24.0964 17.6652 24.0085C17.5772 23.9205 17.458 23.8711 17.3336 23.8711C17.2092 23.8711 17.0899 23.9205 17.0019 24.0085C16.914 24.0964 16.8646 24.2157 16.8646 24.3401V25.2121C16.8644 25.2737 16.8764 25.3347 16.8999 25.3917C16.9233 25.4486 16.9578 25.5004 17.0012 25.544C17.0447 25.5877 17.0963 25.6223 17.1532 25.646C17.21 25.6697 17.272 25.682 17.3336 25.6821ZM6.94457 28.8301C7.06922 28.8301 7.18877 28.7806 7.27691 28.6924C7.36505 28.6043 7.41457 28.4848 7.41457 28.3601V27.4881C7.41457 27.3637 7.36515 27.2444 7.2772 27.1565C7.18924 27.0685 7.06995 27.0191 6.94557 27.0191C6.82118 27.0191 6.70189 27.0685 6.61393 27.1565C6.52598 27.2444 6.47657 27.3637 6.47657 27.4881V28.3601C6.4763 28.4217 6.48821 28.4828 6.51162 28.5398C6.53502 28.5968 6.56945 28.6487 6.61293 28.6923C6.65642 28.736 6.7081 28.7707 6.76501 28.7943C6.82192 28.8179 6.88294 28.8301 6.94457 28.8301ZM8.68857 28.8301C8.81322 28.8301 8.93276 28.7806 9.02091 28.6924C9.10905 28.6043 9.15857 28.4848 9.15857 28.3601V27.4881C9.15857 27.3637 9.10916 27.2444 9.0212 27.1565C8.93325 27.0685 8.81395 27.0191 8.68957 27.0191C8.56518 27.0191 8.44589 27.0685 8.35793 27.1565C8.26998 27.2444 8.22057 27.3637 8.22057 27.4881V28.3601C8.2203 28.4843 8.26932 28.6036 8.35687 28.6917C8.44442 28.7798 8.56435 28.8296 8.68857 28.8301ZM10.4326 28.8301C10.4943 28.8302 10.5555 28.8182 10.6126 28.7946C10.6697 28.771 10.7215 28.7364 10.7652 28.6927C10.8089 28.6491 10.8435 28.5972 10.8671 28.5401C10.8906 28.483 10.9027 28.4219 10.9026 28.3601V27.4881C10.9026 27.3637 10.8532 27.2444 10.7652 27.1565C10.6772 27.0685 10.558 27.0191 10.4336 27.0191C10.3092 27.0191 10.1899 27.0685 10.1019 27.1565C10.014 27.2444 9.96457 27.3637 9.96457 27.4881V28.3601C9.9643 28.4216 9.97618 28.4826 9.99952 28.5396C10.0229 28.5965 10.0572 28.6483 10.1006 28.692C10.144 28.7356 10.1955 28.7703 10.2523 28.794C10.3091 28.8177 10.371 28.83 10.4326 28.8301ZM20.7806 28.8301C20.9052 28.8301 21.0248 28.7806 21.1129 28.6924C21.201 28.6043 21.2506 28.4848 21.2506 28.3601V27.4881C21.2506 27.3637 21.2012 27.2444 21.1132 27.1565C21.0252 27.0685 20.906 27.0191 20.7816 27.0191C20.6572 27.0191 20.5379 27.0685 20.4499 27.1565C20.362 27.2444 20.3126 27.3637 20.3126 27.4881V28.3601C20.3123 28.4843 20.3613 28.6036 20.4489 28.6917C20.5364 28.7798 20.6564 28.8296 20.7806 28.8301ZM22.5246 28.8301C22.6492 28.8301 22.7688 28.7806 22.8569 28.6924C22.945 28.6043 22.9946 28.4848 22.9946 28.3601V27.4881C22.9946 27.3637 22.9452 27.2444 22.8572 27.1565C22.7692 27.0685 22.65 27.0191 22.5256 27.0191C22.4012 27.0191 22.2819 27.0685 22.1939 27.1565C22.106 27.2444 22.0566 27.3637 22.0566 27.4881V28.3601C22.0563 28.4216 22.0682 28.4826 22.0915 28.5396C22.1149 28.5965 22.1492 28.6483 22.1926 28.692C22.236 28.7356 22.2875 28.7703 22.3443 28.794C22.4011 28.8177 22.463 28.83 22.5246 28.8301ZM24.2696 28.8301C24.3312 28.8301 24.3923 28.8179 24.4493 28.7943C24.5062 28.7707 24.558 28.736 24.6016 28.6924C24.6451 28.6487 24.6796 28.5969 24.7032 28.5399C24.7267 28.4829 24.7387 28.4218 24.7386 28.3601V27.4881C24.7386 27.3637 24.6892 27.2444 24.6012 27.1565C24.5132 27.0685 24.394 27.0191 24.2696 27.0191C24.1452 27.0191 24.0259 27.0685 23.9379 27.1565C23.85 27.2444 23.8006 27.3637 23.8006 27.4881V28.3601C23.8004 28.4217 23.8124 28.4827 23.8359 28.5397C23.8593 28.5966 23.8938 28.6484 23.9372 28.692C23.9807 28.7357 24.0323 28.7703 24.0892 28.794C24.146 28.8177 24.208 28.83 24.2696 28.8301Z" fill="#B1B1B1"/>
    </g>
</svg>