<svg xmlns="http://www.w3.org/2000/svg" width="41" height="37" viewBox="0 0 41 37" fill="none">
    <path d="M35.036 0.544752C33.6359 0.520601 32.2831 1.05152 31.2732 2.02153C30.2633 2.99155 29.6783 4.32181 29.646 5.72175C29.7066 6.62139 29.9868 7.49247 30.462 8.25875C30.9575 9.14632 31.518 9.99597 32.139 10.8008C33.339 12.3958 34.545 13.6678 34.545 13.6678C34.6084 13.7344 34.6847 13.7875 34.7693 13.8238C34.8539 13.8601 34.945 13.8788 35.037 13.8788C35.129 13.8788 35.2201 13.8601 35.3047 13.8238C35.3893 13.7875 35.4656 13.7344 35.529 13.6678C35.529 13.6678 36.729 12.3948 37.937 10.8008C38.557 9.99592 39.1165 9.14626 39.611 8.25875C40.0862 7.49247 40.3664 6.62139 40.427 5.72175C40.3947 4.32164 39.8096 2.99122 38.7994 2.02117C37.7893 1.05113 36.4363 0.520334 35.036 0.544752ZM35.036 1.87775C35.5541 1.86366 36.0699 1.95201 36.5538 2.13774C37.0377 2.32348 37.4802 2.60294 37.8558 2.96008C38.2315 3.31723 38.5329 3.74504 38.7428 4.21895C38.9527 4.69287 39.0669 5.20357 39.079 5.72175C38.999 6.39744 38.7757 7.04826 38.424 7.63075C37.9586 8.45849 37.4335 9.25125 36.853 10.0028C36.2888 10.7586 35.6825 11.482 35.037 12.1698C34.3903 11.4823 33.783 10.7588 33.218 10.0028C32.639 9.25121 32.1156 8.45844 31.652 7.63075C31.2998 7.04827 31.0755 6.39754 30.994 5.72175C31.0061 5.20366 31.1203 4.69304 31.3301 4.21919C31.54 3.74534 31.8413 3.31758 32.2168 2.96045C32.5923 2.60331 33.0347 2.32383 33.5185 2.13804C34.0022 1.95224 34.518 1.86379 35.036 1.87775ZM35.036 3.55275C34.6414 3.5569 34.2568 3.67771 33.9306 3.89997C33.6045 4.12224 33.3514 4.43603 33.2033 4.80182C33.0551 5.16762 33.0185 5.56908 33.098 5.95565C33.1775 6.34222 33.3697 6.69661 33.6502 6.97422C33.9307 7.25183 34.2871 7.44024 34.6745 7.51572C35.0619 7.5912 35.4629 7.55039 35.8271 7.39842C36.1914 7.24644 36.5025 6.99011 36.7213 6.66168C36.9402 6.33325 37.057 5.94742 37.057 5.55275C37.0515 5.0204 36.8361 4.51173 36.4577 4.13725C36.0793 3.76276 35.5684 3.55272 35.036 3.55275ZM35.036 4.88575C35.1676 4.88713 35.2959 4.92742 35.4046 5.00155C35.5134 5.07567 35.5978 5.18032 35.6472 5.30232C35.6966 5.42431 35.7088 5.55819 35.6823 5.68712C35.6558 5.81604 35.5917 5.93423 35.4982 6.02681C35.4046 6.11939 35.2858 6.18223 35.1566 6.2074C35.0274 6.23258 34.8936 6.21896 34.7722 6.16828C34.6507 6.1176 34.5469 6.03211 34.4739 5.92258C34.401 5.81305 34.362 5.68437 34.362 5.55275C34.361 5.4643 34.3779 5.37656 34.4115 5.29474C34.4451 5.21293 34.4948 5.1387 34.5577 5.07648C34.6206 5.01426 34.6953 4.96532 34.7775 4.93255C34.8597 4.89979 34.9476 4.88387 35.036 4.88575ZM33.436 13.2858L31.13 14.6598L31.822 15.8028L34.133 14.4308L33.436 13.2858ZM26.409 15.2108C25.0089 15.1866 23.6561 15.7175 22.6462 16.6875C21.6363 17.6575 21.0513 18.9878 21.019 20.3878C21.0796 21.2874 21.3598 22.1585 21.835 22.9248C22.2544 23.6761 22.7238 24.3984 23.24 25.0868C22.8009 25.3034 22.4267 25.6319 22.1549 26.0392C21.8832 26.4465 21.7235 26.9181 21.692 27.4068C21.7225 27.89 21.8774 28.3572 22.1416 28.763C22.4058 29.1687 22.7704 29.4994 23.2 29.7228C24.1845 30.2626 25.2892 30.5455 26.412 30.5455C27.5348 30.5455 28.6395 30.2626 29.624 29.7228C30.0521 29.4986 30.4151 29.1677 30.6779 28.7621C30.9406 28.3566 31.0943 27.8901 31.124 27.4078C31.0932 26.919 30.9342 26.4469 30.663 26.0391C30.3917 25.6313 30.0179 25.3021 29.579 25.0848C30.0935 24.3972 30.5612 23.6759 30.979 22.9258C31.4542 22.1595 31.7344 21.2884 31.795 20.3888C31.7627 18.9899 31.1785 17.6605 30.1699 16.6907C29.1613 15.7208 27.8101 15.1892 26.411 15.2118L26.409 15.2108ZM26.409 16.5438C26.9271 16.5297 27.4429 16.618 27.9268 16.8037C28.4107 16.9895 28.8532 17.2689 29.2288 17.6261C29.6045 17.9832 29.9059 18.411 30.1158 18.885C30.3257 19.3589 30.4399 19.8696 30.452 20.3878C30.3705 21.0635 30.1462 21.7143 29.794 22.2968C29.3304 23.1245 28.807 23.9172 28.228 24.6688C27.6631 25.4249 27.0558 26.1484 26.409 26.8358C25.7622 26.1484 25.1549 25.4249 24.59 24.6688C24.011 23.9172 23.4876 23.1245 23.024 22.2968C22.6718 21.7143 22.4475 21.0635 22.366 20.3878C22.3782 19.8695 22.4926 19.3587 22.7027 18.8848C22.9128 18.4109 23.2144 17.9831 23.5902 17.626C23.966 17.2689 24.4087 16.9896 24.8928 16.8041C25.3768 16.6185 25.8928 16.5304 26.411 16.5448L26.409 16.5438ZM26.409 18.2188C26.0144 18.2229 25.6298 18.3437 25.3036 18.566C24.9775 18.7882 24.7244 19.102 24.5763 19.4678C24.4281 19.8336 24.3915 20.2351 24.471 20.6216C24.5505 21.0082 24.7427 21.3626 25.0232 21.6402C25.3037 21.9178 25.6601 22.1062 26.0475 22.1817C26.4349 22.2572 26.8359 22.2164 27.2001 22.0644C27.5644 21.9124 27.8755 21.6561 28.0943 21.3277C28.3132 20.9993 28.43 20.6134 28.43 20.2188C28.4242 19.6869 28.209 19.1788 27.8311 18.8046C27.4531 18.4304 26.9429 18.2202 26.411 18.2198L26.409 18.2188ZM26.409 19.5518C26.5406 19.5531 26.6689 19.5934 26.7776 19.6675C26.8864 19.7417 26.9708 19.8463 27.0202 19.9683C27.0696 20.0903 27.0818 20.2242 27.0553 20.3531C27.0288 20.482 26.9647 20.6002 26.8712 20.6928C26.7776 20.7854 26.6588 20.8482 26.5296 20.8734C26.4004 20.8986 26.2666 20.885 26.1452 20.8343C26.0237 20.7836 25.9199 20.6981 25.8469 20.5886C25.774 20.479 25.735 20.3504 25.735 20.2188C25.7342 20.1302 25.7512 20.0424 25.785 19.9606C25.8188 19.8787 25.8687 19.8045 25.9318 19.7424C25.9948 19.6803 26.0698 19.6314 26.1521 19.5989C26.2344 19.5663 26.3225 19.5506 26.411 19.5528L26.409 19.5518ZM5.39 23.2118C3.98939 23.1876 2.63618 23.7189 1.62617 24.6896C0.616167 25.6603 0.0315086 26.9913 0 28.3918C0.0607143 29.2904 0.340898 30.1605 0.816 30.9258C1.31045 31.8142 1.86998 32.6649 2.49 33.4707C3.24508 34.4644 4.04942 35.4196 4.9 36.3327C4.96175 36.3981 5.03586 36.4505 5.11802 36.4869C5.20017 36.5234 5.28875 36.5431 5.37861 36.5451C5.46847 36.547 5.55783 36.5311 5.64149 36.4983C5.72516 36.4654 5.80147 36.4163 5.866 36.3537L7.545 35.8768L7.227 34.7767C7.574 34.3627 7.903 33.9847 8.29 33.4767C8.91095 32.6712 9.47148 31.8209 9.967 30.9328C10.4421 30.1675 10.7223 29.2974 10.783 28.3988C10.7533 26.9965 10.169 25.6632 9.15819 24.691C8.14733 23.7188 6.79231 23.1868 5.39 23.2118ZM5.39 24.5448C5.90823 24.5309 6.42408 24.6195 6.908 24.8055C7.39191 24.9914 7.83435 25.2711 8.20996 25.6284C8.58557 25.9857 8.88695 26.4136 9.09683 26.8877C9.3067 27.3617 9.42094 27.8725 9.433 28.3908C9.35092 29.0636 9.12662 29.7113 8.775 30.2908C8.31143 31.1194 7.78805 31.9132 7.209 32.6657C6.6444 33.4227 6.03708 34.1469 5.39 34.8348C4.74432 34.1483 4.13802 33.4258 3.574 32.6707C2.99237 31.9183 2.46631 31.1246 2 30.2958C1.64904 29.7162 1.42574 29.0685 1.345 28.3958C1.3564 27.8769 1.47023 27.3654 1.67995 26.8906C1.88966 26.4159 2.19112 25.9873 2.56701 25.6294C2.9429 25.2716 3.3858 24.9915 3.87026 24.8054C4.35472 24.6192 4.8712 24.5307 5.39 24.5448ZM28.751 26.1448C29.428 26.5118 29.78 26.9818 29.78 27.4028C29.7502 27.6572 29.6551 27.8996 29.5039 28.1064C29.3526 28.3132 29.1505 28.4773 28.917 28.5828C28.1461 28.9931 27.2863 29.2077 26.413 29.2077C25.5397 29.2077 24.6799 28.9931 23.909 28.5828C23.6752 28.4774 23.4726 28.3133 23.3209 28.1066C23.1692 27.8998 23.0734 27.6574 23.043 27.4028C23.043 26.9828 23.396 26.5138 24.072 26.1478C25.044 27.3608 25.92 28.3298 25.92 28.3298C25.9834 28.3964 26.0597 28.4495 26.1443 28.4858C26.2289 28.5221 26.32 28.5408 26.412 28.5408C26.504 28.5408 26.5951 28.5221 26.6797 28.4858C26.7643 28.4495 26.8406 28.3964 26.904 28.3298C26.904 28.3298 27.778 27.3638 28.751 26.1498V26.1448ZM5.39 26.2148C4.99536 26.2189 4.61076 26.3397 4.28464 26.562C3.95852 26.7842 3.70544 27.098 3.55728 27.4638C3.40912 27.8296 3.3725 28.2311 3.45202 28.6176C3.53155 29.0042 3.72367 29.3586 4.00419 29.6362C4.28471 29.9138 4.6411 30.1022 5.02848 30.1777C5.41586 30.2532 5.81691 30.2124 6.18114 30.0604C6.54537 29.9084 6.85649 29.6521 7.07534 29.3237C7.29419 28.9953 7.41098 28.6094 7.411 28.2148C7.40416 27.6833 7.18822 27.1759 6.80995 26.8025C6.43168 26.4291 5.92153 26.2197 5.39 26.2198V26.2148ZM20.51 27.2068L17.81 27.2198L17.815 28.5528L20.515 28.5398L20.51 27.2068ZM5.39 27.5478C5.52161 27.5491 5.64988 27.5894 5.75864 27.6635C5.8674 27.7377 5.9518 27.8423 6.00121 27.9643C6.05063 28.0863 6.06284 28.2202 6.03632 28.3491C6.0098 28.478 5.94573 28.5962 5.85217 28.6888C5.75862 28.7814 5.63976 28.8442 5.51057 28.8694C5.38138 28.8946 5.24763 28.881 5.12616 28.8303C5.00469 28.7796 4.90093 28.6941 4.82794 28.5846C4.75496 28.475 4.71601 28.3464 4.716 28.2148C4.71585 28.1268 4.73327 28.0397 4.76725 27.9586C4.80123 27.8775 4.85108 27.804 4.91388 27.7424C4.97667 27.6808 5.05113 27.6324 5.13289 27.6C5.21466 27.5676 5.30207 27.5519 5.39 27.5538V27.5478ZM16.215 28.0138L14.483 30.0558L15.515 30.9128L17.247 28.8688L16.215 28.0138ZM13.615 31.0788L11.883 33.1208L12.917 33.9777L14.649 31.9448L13.615 31.0788ZM11.054 33.4847L8.464 34.2217L8.838 35.5028L11.428 34.7658L11.054 33.4847Z" fill="#B1B1B1"/>
</svg>