<svg xmlns="http://www.w3.org/2000/svg" width="23" height="15" viewBox="0 0 23 15" fill="none">
    <path d="M1 3.49805H21.604" stroke="#6C6C6C" stroke-width="2" stroke-linecap="round"/>
    <path d="M1.19531 11.9404H20.9213" stroke="#6C6C6C" stroke-width="2" stroke-linecap="round"/>
    <path d="M14.6387 14.668C16.2955 14.668 17.6387 13.3248 17.6387 11.668C17.6387 10.0111 16.2955 8.66797 14.6387 8.66797C12.9818 8.66797 11.6387 10.0111 11.6387 11.668C11.6387 13.3248 12.9818 14.668 14.6387 14.668Z" fill="#EAEAEA"/>
    <path d="M14.6387 13.668C15.7432 13.668 16.6387 12.7725 16.6387 11.668C16.6387 10.5634 15.7432 9.66797 14.6387 9.66797C13.5341 9.66797 12.6387 10.5634 12.6387 11.668C12.6387 12.7725 13.5341 13.668 14.6387 13.668Z" stroke="#6C6C6C" stroke-width="2"/>
    <path d="M7.63867 6.66797C9.29553 6.66797 10.6387 5.32482 10.6387 3.66797C10.6387 2.01111 9.29553 0.667969 7.63867 0.667969C5.98182 0.667969 4.63867 2.01111 4.63867 3.66797C4.63867 5.32482 5.98182 6.66797 7.63867 6.66797Z" fill="#EAEAEA"/>
    <path d="M7.63867 5.66797C8.74324 5.66797 9.63867 4.77254 9.63867 3.66797C9.63867 2.5634 8.74324 1.66797 7.63867 1.66797C6.5341 1.66797 5.63867 2.5634 5.63867 3.66797C5.63867 4.77254 6.5341 5.66797 7.63867 5.66797Z" stroke="#6C6C6C" stroke-width="2"/>
</svg>