<svg xmlns="http://www.w3.org/2000/svg" width="100" height="100" viewBox="0 0 100 100">
    <path id="real-11923" d="M50,0a50,50,0,1,0,50,50A50.016,50.016,0,0,0,50,0Zm0,2.083A47.917,47.917,0,1,1,2.083,50,47.9,47.9,0,0,1,50,2.083ZM47.925,18.762a1.042,1.042,0,0,0-.761.321l-23.958,25a1.042,1.042,0,0,0,.753,1.762h3.125V73.971a1.042,1.042,0,0,0,1.042,1.042h31.25V72.929H54.167V55.221a1.042,1.042,0,0,0-1.042-1.042H42.708a1.042,1.042,0,0,0-1.042,1.042V72.929h-12.5V45.846h37.5v8.333H68.75V45.846h3.125a1.042,1.042,0,0,0,.753-1.762L68.75,40.039q0-.012,0-.024V28.137A1.042,1.042,0,0,0,67.708,27.1H63.542A1.042,1.042,0,0,0,62.5,28.137v5.379L48.669,19.084A1.042,1.042,0,0,0,47.925,18.762Zm-.008,2.551L69.43,43.762H26.4Zm16.667,7.865h2.083v8.683l-2.108-2.2a1.042,1.042,0,0,0,.024-.236ZM43.75,56.262h8.333V72.929H43.75Zm24.939.061v0a1.042,1.042,0,0,0-.33.061c-2.393.89-6.063,2.352-9.041,2.352a1.042,1.042,0,0,0-1.042,1.042c0,11.663,5.687,16.06,9.819,19.177a1.042,1.042,0,0,0,1.249,0c4.2-3.125,9.823-7.554,9.823-19.181a1.042,1.042,0,0,0-1.042-1.042c-4.01,0-6.865-1.513-9.029-2.348A1.042,1.042,0,0,0,68.689,56.323Zm.016,2.161a26.269,26.269,0,0,0,8.276,2.161c-.266,9.635-4.318,13.214-8.2,16.117-3.875-2.923-8.053-6.383-8.321-16.125A31.909,31.909,0,0,0,68.705,58.484Zm2.067,5.835-2.979,2.84-1.131-1.078-1.436,1.51,2.568,2.445,4.415-4.207Z" fill="#b1b1b1" fill-rule="evenodd"/>
</svg>
