<svg width="20" height="21" viewBox="0 0 20 21" fill="none" xmlns="http://www.w3.org/2000/svg">
<path fill-rule="evenodd" clip-rule="evenodd" d="M14.7942 8.63362C14.7942 12.2273 11.8504 15.1405 8.21901 15.1405C4.58762 15.1405 1.6438 12.2273 1.6438 8.63362C1.6438 5.03996 4.58762 2.12672 8.21901 2.12672C11.8504 2.12672 14.7942 5.03996 14.7942 8.63362ZM13.3042 15.024C11.9051 16.1158 10.139 16.7672 8.21901 16.7672C3.67978 16.7672 0 13.1257 0 8.63362C0 4.14154 3.67978 0.5 8.21901 0.5C12.7582 0.5 16.438 4.14154 16.438 8.63362C16.438 10.6397 15.7041 12.4762 14.4875 13.8945L19.7593 19.1115C20.0802 19.4291 20.0802 19.9441 19.7593 20.2618C19.4383 20.5794 18.9179 20.5794 18.5969 20.2618L13.3042 15.024Z" fill="white"/>
</svg>
